<svg width="14" height="15" viewBox="0 0 14 15" fill="none" xmlns="http://www.w3.org/2000/svg">
<path d="M6.52944 0.0433503C6.31922 0.100076 6.16907 0.203517 5.80535 0.543873C5.39493 0.927606 5.15134 1.09445 4.66083 1.33136C4.17031 1.56827 3.78324 1.67505 3.14258 1.74846C2.42516 1.82855 2.1482 1.93866 1.88793 2.25232C1.67771 2.50592 1.61431 2.74951 1.58428 3.43355C1.56093 3.93074 1.49085 4.30446 1.33402 4.73825C1.16051 5.21541 0.933604 5.57579 0.376356 6.25316C0.109411 6.57683 0.0159799 6.79039 0.00263262 7.11073C-0.0140515 7.4344 0.0460112 7.62126 0.256231 7.89488C0.342988 8.00833 0.529849 8.25525 0.673332 8.43878C1.23058 9.16287 1.50754 9.95703 1.55091 10.9447C1.58095 11.6455 1.62432 11.819 1.85457 12.1026C2.10483 12.4096 2.37177 12.513 3.10921 12.5931C4.29378 12.7199 5.05123 13.0236 5.82871 13.6909C6.44602 14.2148 6.52277 14.2615 6.87647 14.2982C7.21015 14.3316 7.4771 14.2382 7.83748 13.9612C8.66167 13.3272 8.83518 13.2071 9.13216 13.0503C9.74947 12.7266 10.2633 12.5664 11.0575 12.443C11.2978 12.4063 11.5413 12.3629 11.6014 12.3462C11.8984 12.2594 12.2321 11.9591 12.3922 11.6288C12.499 11.4085 12.5424 11.1516 12.5424 10.7078C12.5424 9.8636 12.6592 9.2563 12.8994 8.84587C12.9495 8.75911 13.1697 8.50551 13.3866 8.27861C13.8304 7.81813 13.9272 7.65129 13.9839 7.26422C14.0273 6.97392 13.9806 6.60687 13.8738 6.39331C13.8337 6.31656 13.6202 6.07298 13.3966 5.85275C13.093 5.55243 12.9562 5.38893 12.846 5.19206C12.519 4.61145 12.3889 4.13429 12.3455 3.33679C12.3021 2.59935 12.2221 2.36911 11.9151 2.09215C11.6414 1.84523 11.4512 1.78517 10.8072 1.73178C10.0464 1.66838 9.54592 1.53491 8.96532 1.2446C8.58826 1.05441 8.29462 0.857533 7.83748 0.48381C7.44707 0.163476 7.30025 0.0800553 7.03998 0.030003C6.81641 -0.0133756 6.72632 -0.0100387 6.52944 0.0433503ZM7.94425 2.66609C8.83185 2.85295 9.57596 3.26338 10.24 3.93074C10.6571 4.34784 10.894 4.67819 11.1242 5.15201C11.4613 5.84607 11.558 6.29988 11.558 7.1541C11.558 7.83481 11.5213 8.1051 11.3545 8.60562C10.8072 10.244 9.38242 11.4352 7.66396 11.6922C5.8454 11.9658 4.04018 11.1149 3.06917 9.52658C2.36176 8.37204 2.21494 6.90051 2.6821 5.60248C3.24602 4.02083 4.64081 2.87631 6.31922 2.61603C6.73299 2.5493 7.51714 2.57599 7.94425 2.66609Z" fill="#960046"/>
<path d="M6.3526 2.98C5.41495 3.13683 4.60411 3.55727 3.97345 4.21462C3.17929 5.04549 2.79222 5.99982 2.78888 7.13767C2.78888 7.8384 2.89899 8.36228 3.16928 8.93621C3.77658 10.2342 4.97783 11.1185 6.44603 11.3454C6.7697 11.3954 7.52382 11.3654 7.87085 11.292C9.56595 10.9216 10.8606 9.57355 11.1576 7.86843C11.2277 7.46801 11.2277 6.84069 11.1576 6.43694C10.8673 4.75518 9.56929 3.3971 7.90422 3.03005C7.50046 2.94329 6.733 2.9166 6.3526 2.98ZM9.0087 5.6995C9.08545 5.75956 9.08879 5.7896 9.0988 6.20002L9.11214 6.63715H8.13779C7.0233 6.63715 6.99327 6.64382 6.84645 6.89408C6.77637 7.01754 6.76303 7.07093 6.77637 7.22443C6.79306 7.41796 6.85646 7.53475 7.01662 7.65154C7.10338 7.71828 7.15677 7.72161 8.10776 7.73162L9.11214 7.74163L9.0988 8.17208C9.09212 8.53246 9.07878 8.61254 9.02872 8.66259C8.972 8.71932 8.84186 8.72266 6.92319 8.72266C4.95447 8.72266 4.87105 8.71932 4.80432 8.65926C4.73424 8.59586 4.73424 8.57584 4.73424 7.18105C4.73424 5.81295 4.73758 5.76624 4.80098 5.70284C4.86772 5.6361 4.91109 5.6361 6.89984 5.6361C8.84854 5.6361 8.93529 5.63944 9.0087 5.6995ZM4.36719 7.17104C4.36719 7.6482 4.35385 8.03861 4.3405 8.03861C4.29045 8.03861 3.56302 7.20107 3.57303 7.15769C3.58638 7.10096 4.30046 6.30347 4.3405 6.30347C4.35385 6.30347 4.36719 6.69387 4.36719 7.17104ZM9.90297 6.74059C10.28 7.17437 10.28 7.17437 10.22 7.24778C10.1833 7.28783 10.0164 7.47802 9.84291 7.67156C9.66939 7.8651 9.51256 8.03527 9.49922 8.05196C9.48587 8.07198 9.47252 7.68491 9.47252 7.1944C9.47252 6.70388 9.48253 6.30347 9.49922 6.3068C9.51256 6.3068 9.69275 6.50367 9.90297 6.74059Z" fill="#960046"/>
<circle cx="7.33695" cy="7.17075" r="0.166841" fill="white"/>
</svg>
