<svg width="17" height="20" viewBox="0 0 17 20" fill="none" xmlns="http://www.w3.org/2000/svg">
<path d="M16.7487 10.5003H15.6661C15.6099 10.4967 15.5542 10.514 15.51 10.5489C15.4657 10.5838 15.4359 10.6339 15.4264 10.6895L9.29681 6.88931C9.5829 6.7206 9.80508 6.4619 9.92865 6.15361C9.94102 6.12359 9.94732 6.09142 9.9472 6.05895C9.94708 6.02649 9.94053 5.99437 9.92794 5.96444C9.91535 5.93451 9.89696 5.90738 9.87383 5.88459C9.85071 5.8618 9.8233 5.84381 9.79319 5.83167C9.76308 5.81952 9.73087 5.81345 9.6984 5.8138C9.66594 5.81416 9.63387 5.82094 9.60403 5.83375C9.5742 5.84655 9.54719 5.86514 9.52457 5.88843C9.50195 5.91172 9.48416 5.93926 9.47223 5.96945C9.41073 6.12369 9.31205 6.26032 9.18496 6.36719C9.05788 6.47406 8.90634 6.54785 8.74384 6.58198C8.70892 6.57992 8.67396 6.58533 8.6413 6.59785C8.50458 6.61115 8.36659 6.59661 8.23565 6.5551C8.10472 6.51358 7.98355 6.44596 7.87948 6.35631C7.7754 6.26666 7.69058 6.15685 7.63013 6.03351C7.56968 5.91017 7.53485 5.77585 7.52776 5.63867C7.52067 5.5015 7.54145 5.3643 7.58886 5.23538C7.63626 5.10646 7.70931 4.98849 7.80358 4.88858C7.89785 4.78868 8.01139 4.70892 8.13735 4.65412C8.26331 4.59932 8.39906 4.57062 8.53642 4.56975C8.60111 4.56931 8.66306 4.5436 8.70904 4.4981C8.75502 4.4526 8.78139 4.39092 8.78251 4.32624L8.80766 2.95341H9.98714C10.123 2.95341 10.2131 2.84714 10.2131 2.71142V1.41976C10.2151 1.38939 10.2106 1.35895 10.2 1.33043C10.1894 1.30191 10.1729 1.27595 10.1515 1.25424C10.1302 1.23254 10.1046 1.21557 10.0762 1.20446C10.0479 1.19334 10.0175 1.18833 9.98714 1.18974H9.55689V0.22899C9.55879 0.198676 9.55426 0.168302 9.5436 0.139861C9.53294 0.11142 9.51639 0.085553 9.49503 0.0639577C9.47367 0.0423624 9.44799 0.0255262 9.41967 0.0145534C9.39134 0.00358062 9.36102 -0.00128094 9.33069 0.000287528H7.80007C7.66414 0.000287528 7.54712 0.0931058 7.54712 0.22899V1.18974H7.19049C7.05461 1.18974 6.93189 1.28408 6.93189 1.41976V2.71142C6.93496 2.7775 6.9637 2.83978 7.01201 2.88498C7.06031 2.93018 7.12435 2.95473 7.19049 2.95341H8.31539L8.29439 4.0952C7.97086 4.14991 7.6739 4.30838 7.44834 4.54669C7.22279 4.785 7.08087 5.09021 7.04402 5.41626C7.00717 5.74231 7.07738 6.0715 7.24406 6.35414C7.41073 6.63678 7.66483 6.85753 7.96799 6.98307L1.55511 10.6931C1.54634 10.6367 1.51683 10.5857 1.47237 10.5501C1.42791 10.5144 1.37172 10.4966 1.31484 10.5003H0.232029C0.200807 10.4999 0.169829 10.5058 0.140999 10.5178C0.11217 10.5298 0.0860993 10.5476 0.0643899 10.57C0.0426804 10.5925 0.0257914 10.6191 0.014761 10.6483C0.00373067 10.6775 -0.00120776 10.7087 0.00024947 10.7399V19.5411C-0.000997142 19.5718 0.00417619 19.6023 0.0154376 19.6308C0.0266989 19.6594 0.0437997 19.6852 0.0656428 19.7068C0.087486 19.7283 0.113589 19.745 0.142278 19.7559C0.170966 19.7668 0.201607 19.7715 0.232234 19.7698H1.31505C1.36692 19.7699 1.41761 19.7543 1.46041 19.725C1.50322 19.6957 1.53613 19.6541 1.55478 19.6057H15.4262C15.4449 19.6541 15.4778 19.6957 15.5206 19.725C15.5634 19.7543 15.6141 19.7699 15.666 19.7698H16.7486C16.7792 19.7715 16.8099 19.7668 16.8386 19.7559C16.8673 19.7451 16.8934 19.7284 16.9153 19.7068C16.9371 19.6853 16.9542 19.6594 16.9655 19.6309C16.9768 19.6023 16.982 19.5718 16.9807 19.5411V10.7399C16.9822 10.7087 16.9772 10.6775 16.9662 10.6483C16.9551 10.6191 16.9382 10.5924 16.9165 10.57C16.8948 10.5475 16.8687 10.5297 16.8398 10.5178C16.811 10.5058 16.78 10.4998 16.7487 10.5003ZM8.03931 0.492475H9.0647V1.18974H8.03931V0.492475ZM7.42408 2.46122V1.68193H9.72095V2.46122H7.42408ZM1.06666 19.2776H0.492437V10.9925H1.06666V19.2776ZM8.72526 7.11403L14.5841 10.7464H2.4463L8.72526 7.11403ZM4.63501 19.1136H3.32251V13.9456C3.32251 13.8803 3.29659 13.8177 3.25044 13.7716C3.20428 13.7254 3.14169 13.6995 3.07642 13.6995C3.01115 13.6995 2.94856 13.7254 2.90241 13.7716C2.85626 13.8177 2.83033 13.8803 2.83033 13.9456V19.1136H1.55884V11.2386H2.83033V12.305C2.83033 12.3702 2.85626 12.4328 2.90241 12.479C2.94856 12.5251 3.01115 12.5511 3.07642 12.5511C3.14169 12.5511 3.20428 12.5251 3.25044 12.479C3.29659 12.4328 3.32251 12.3702 3.32251 12.305V11.2386H4.63501V19.1136ZM6.4397 19.1136H5.1272V11.2386H6.4397V19.1136ZM8.24439 19.1136H6.93189V11.2386H8.24439V19.1136ZM10.0491 19.1136H8.73658V11.2386H10.0491V19.1136ZM11.8538 19.1136H10.5413V11.2386H11.8538V19.1136ZM13.6585 19.1136H12.346V11.2386H13.6585V19.1136ZM15.4221 19.1136H14.1506V11.2386H15.4221V19.1136ZM16.4885 19.2776H15.9143V10.9925H16.4885V19.2776Z" fill="#979797"/>
</svg>
