<svg width="14" height="14" viewBox="0 0 14 14" fill="none" xmlns="http://www.w3.org/2000/svg">
<path d="M7 14C10.866 14 14 10.866 14 7C14 3.13401 10.866 0 7 0C3.13401 0 0 3.13401 0 7C0 10.866 3.13401 14 7 14Z" fill="#E33E23"/>
<path fill-rule="evenodd" clip-rule="evenodd" d="M1.60795 7.09103C1.60795 7.09103 4.72421 7.76387 5.16213 6.31562C5.59148 4.89564 4.16762 4.60197 4.16762 4.60197H3.5421V6.983H2.87187V4.67934H2.27837V4.43592C2.27837 4.43592 4.5269 4.42697 4.77522 4.45599C6.02364 4.60194 6.63124 6.83851 4.6318 7.28413C3.07663 7.63077 1.60794 7.091 1.60794 7.091L1.60795 7.09103ZM2.86809 7.60399V9.03325C2.86809 9.03325 2.86418 9.33739 2.58983 9.33739C2.31548 9.33739 2.24824 9.33739 2.24824 9.33739V9.57595H4.18243V9.31348H3.75457C3.75457 9.31348 3.53388 9.28845 3.53388 9.06405V7.59083H2.87191L2.86808 7.60398L2.86809 7.60399ZM5.34016 9.58779H7.28826V9.28909H6.72826C6.72826 9.28909 6.54634 9.18634 6.54634 8.97829V5.38099L8.71764 9.58328L10.8417 5.46149L10.795 9.0173C10.795 9.0173 10.8483 9.31119 10.5478 9.31119C10.2472 9.31119 10.1835 9.32028 10.1835 9.32028L10.1799 9.54911H12.1281V9.2771H11.6733C11.6733 9.2771 11.4837 9.29569 11.4837 9.08753C11.4837 8.87937 11.4837 4.7717 11.4837 4.7717C11.4837 4.7717 11.4865 4.67742 11.6543 4.67742H12.0491V4.38672H10.8403L8.85029 8.51103L6.87265 4.41584H5.79106V4.66231H6.13447C6.13447 4.66231 6.25356 4.64919 6.25356 4.83016C6.25356 5.01114 6.20689 8.9974 6.20689 8.9974C6.20689 8.9974 6.22259 9.30683 5.88293 9.30683C5.54327 9.30683 5.34085 9.30683 5.34085 9.30683V9.60758L5.34014 9.58776L5.34016 9.58779Z" fill="white"/>
</svg>
