<svg width="14" height="15" viewBox="0 0 14 15" fill="none" xmlns="http://www.w3.org/2000/svg">
<path d="M11.1318 9.11137C11.3752 9.20499 11.4688 9.5696 11.4874 9.72864C11.5249 10.0188 11.4409 10.131 11.3473 10.131C11.2536 10.131 11.1225 10.0188 10.9824 9.79435C10.8419 9.5696 10.7858 9.31723 10.8608 9.1861C10.9074 9.10178 11.01 9.06456 11.1318 9.11137ZM9.71004 10.1686C9.85977 10.1686 10.0281 10.234 10.1779 10.3648C10.4677 10.6082 10.5521 10.8888 10.4023 11.0946C10.318 11.1975 10.1779 11.263 10.0188 11.263C9.85977 11.263 9.69143 11.2068 9.5792 11.1039C9.31723 10.8794 9.2425 10.505 9.41056 10.2994C9.47627 10.2151 9.5792 10.1686 9.71004 10.1686ZM6.43614 12.872C2.88109 12.872 0 9.99061 0 6.43585C0 2.88109 2.88138 0 6.43585 0C9.99061 0 12.872 2.88138 12.872 6.43585C12.872 7.64248 12.5353 8.77468 11.9648 9.73824C11.9459 9.76615 11.8991 9.75685 11.8898 9.71934C11.6654 8.13851 10.7018 7.26828 9.29862 7.0066C9.17679 6.9877 9.15818 6.91298 9.31723 6.89437C9.74754 6.85686 10.3555 6.86617 10.6736 6.92228C10.6922 6.76324 10.7018 6.59489 10.7018 6.42655C10.7018 4.07841 8.79329 2.1699 6.44515 2.1699C4.09731 2.1699 2.1888 4.07841 2.1888 6.42655C2.1888 8.77468 4.09731 10.6832 6.44544 10.6832H6.6417C6.57503 10.3034 6.54678 9.91784 6.55738 9.53238C6.56698 9.27041 6.6231 9.23291 6.73533 9.43876C7.32469 10.4584 8.16671 11.3752 9.81296 11.7401C11.16 12.0396 12.5071 12.3856 13.9571 14.2284C14.0879 14.3874 13.8917 14.5557 13.7419 14.4249C12.264 13.1151 10.917 12.6847 9.69143 12.6847C8.31616 12.6943 7.38109 12.872 6.43614 12.872Z" fill="#FF8C00"/>
</svg>
