<svg width="14" height="14" viewBox="0 0 14 14" fill="none" xmlns="http://www.w3.org/2000/svg">
<path d="M6.9667 0C8.05893 0 9.09811 0.250238 10.0306 0.697869C10.1769 0.763849 10.3241 0.842816 10.4698 0.921853L9.83043 1.48824L8.87187 0.500547L7.22015 1.949L6.24749 0.908523L3.21023 3.60824L5.15478 5.72844L4.39565 6.38671L6.31415 8.50691L5.55495 9.16492L8.29925 12.1806L9.92348 10.7057L11.3362 12.2863C11.0562 12.4971 10.7498 12.7082 10.4172 12.8922C9.4046 13.4584 8.23217 13.787 6.98015 13.787C3.13002 13.787 4.41217e-05 10.693 4.41217e-05 6.88759C-0.0135523 3.10789 3.11697 0 6.9667 0ZM5.68767 6.46589L7.35286 4.99091L8.84513 6.63695L7.1796 8.11179L5.68767 6.46589ZM6.87357 9.31042L8.52522 7.82238L10.0306 9.46829L8.36537 10.9433L6.87357 9.31042ZM4.50279 3.66109L6.1675 2.18611L7.65944 3.83215L5.99418 5.30706L4.50279 3.66109ZM7.55271 2.87071L8.79167 1.7646L9.91091 2.98934L8.67194 4.10852L7.55271 2.87071ZM9.76425 7.94066L11.0028 6.83448L12.122 8.072L10.8829 9.17887L9.76425 7.94066ZM10.8564 10.4298L12.0954 9.32341L13.2137 10.5481L11.9752 11.6671L10.8564 10.4298ZM11.3627 4.74067L12.1885 4.00315L12.9342 4.81991L12.1086 5.55716L11.3627 4.74067ZM10.297 2.30446L11.1229 1.55401L11.8691 2.38349L11.0427 3.12095L10.297 2.30446ZM12.4149 7.17709L13.2407 6.43963L14 7.25613L13.1611 7.99338L12.4149 7.17709ZM8.69847 5.34658L9.9375 4.2404L11.0562 5.46487L9.81771 6.57125L8.69847 5.34658Z" fill="#036CB5"/>
</svg>
