<svg width="14" height="19" viewBox="0 0 14 19" fill="none" xmlns="http://www.w3.org/2000/svg">
<path d="M0.000206368 9.45505C0.000206368 8.39153 0.0866487 7.71666 2.22243 6.07251C3.99067 4.71139 9.65828 0.0599976 9.65828 0.0599976V7.82466H13.9684V19H1.34645C0.606025 19 0 18.375 0 17.6114L0.000206368 9.45505Z" fill="#FCCB06"/>
<path d="M9.65829 7.8245V12.3236L1.73819 17.8877L11.7517 14.5278V7.8245H9.65829Z" fill="#CFA705"/>
<path d="M6.03901 7.59198C6.50213 7.02287 7.17856 6.8219 7.54996 7.14334C7.92135 7.46477 7.84713 8.18677 7.38394 8.75588C6.92108 9.32493 6.24446 9.52562 5.87307 9.20419C5.50161 8.88282 5.57603 8.16103 6.03901 7.59198" fill="#231F20"/>
</svg>
