<?xml version="1.0" standalone="no"?>
<!DOCTYPE svg PUBLIC "-//W3C//DTD SVG 1.1//EN" "http://www.w3.org/Graphics/SVG/1.1/DTD/svg11.dtd" >
<svg>
<metadata>
Created by FontForge 20090914 at Mon Sep 14 20:27:30 2020
 By www-data
Copyright &#194;&#169; 2016 by Inkyotter Design. All rights reserved.
</metadata>
<defs>
<font id="RifficFree-Bold" horiz-adv-x="781" >
  <font-face 
    font-family="Riffic Free Medium"
    font-weight="700"
    font-stretch="normal"
    units-per-em="1000"
    panose-1="0 0 8 0 0 0 0 0 0 0"
    ascent="800"
    descent="-200"
    x-height="534"
    cap-height="760"
    bbox="-1.00098 -258 1367 972"
    underline-thickness="50"
    underline-position="-75"
    unicode-range="U+000D-U+2122"
  />
<missing-glyph horiz-adv-x="793" 
d="M784 761v-761h-775v765zM79 71h635v623h-635v-623z" />
    <glyph glyph-name=".notdef" horiz-adv-x="793" 
d="M784 761v-761h-775v765zM79 71h635v623h-635v-623z" />
    <glyph glyph-name="uni0000" horiz-adv-x="36" 
 />
    <glyph glyph-name="uni0000" horiz-adv-x="36" 
 />
    <glyph glyph-name="uni000D" unicode="&#xd;" horiz-adv-x="36" 
 />
    <glyph glyph-name="space" unicode=" " horiz-adv-x="275" 
 />
    <glyph glyph-name="exclam" unicode="!" horiz-adv-x="251" 
d="M15 760h219l-4 -498l-197 -8zM68.5 12.5c-18.333 11 -32.833 25.667 -43.5 44s-16 38.166 -16 59.499c0 32.667 11.5 59.5 34.5 80.5s52.5 31.5 88.5 31.5c33.333 0 60 -9.5 80 -28.5s30 -44.833 30 -77.5c0 -35.333 -11.167 -65.166 -33.5 -89.499
s-49.5 -36.5 -81.5 -36.5c-20.667 0 -40.167 5.5 -58.5 16.5z" />
    <glyph glyph-name="quotedbl" unicode="&#x22;" horiz-adv-x="367" 
d="M9 791l164 15v-288h-129zM196 518v259l162 24l-41 -301z" />
    <glyph glyph-name="numbersign" unicode="#" horiz-adv-x="798" 
d="M643 123v-123l-174 2l-4 121h-126l3 -127l-211 -2l-1 129h-97l-23 193l118 1l-1 142l-107 1l-11 180h116l-1 100l198 19l3 -119h124l-3 104l199 15v-119h97l22 -187l-120 1v-134l122 1l23 -198h-146zM459 319l-4 137l-125 1l4 -139z" />
    <glyph glyph-name="dollar" unicode="$" horiz-adv-x="494" 
d="M431 401c38 -26.667 57 -63.665 57 -110.998c0 -38 -12.333 -72.833 -37 -104.5s-57 -55.834 -97 -72.501l10 -114h-220l12 103c-28 7.33301 -53.667 17.666 -77 30.999s-43 29.333 -59 48l101 114c16 -14 34.333 -24.833 55 -32.5s41.667 -11.5 63 -11.5
c20.667 0 38.167 3.5 52.5 10.5s21.5 15.5 21.5 25.5c0 8 -4.66699 13.667 -14 17s-25 5 -47 5c-4 -0.666992 -10 -1 -18 -1c-33.333 0 -64.833 7.5 -94.5 22.5s-53.5 35.167 -71.5 60.5s-27 52.666 -27 81.999c0 33.333 12.333 64.5 37 93.5s56.667 50.833 96 65.5l-17 108
l195 21v-126c49.333 -14 94.666 -38.667 135.999 -74l-70 -111c-30 16.667 -56.667 28.834 -80 36.501s-45.666 11.5 -66.999 11.5c-20 0 -36.5 -3 -49.5 -9s-19.5 -13.667 -19.5 -23c0 -16.667 23.333 -25 70 -25c68 0 121 -13.333 159 -40z" />
    <glyph glyph-name="percent" unicode="%" horiz-adv-x="955" 
d="M115 422c-31.333 18 -56.834 42.168 -76.501 72.501s-29.5 62.833 -29.5 97.5c0 32.667 9.16699 62.167 27.5 88.5s43.333 47 75 62s66.5 22.5 104.5 22.5c36 0 68.333 -6.83301 97 -20.5s51.167 -33.334 67.5 -59.001s24.5 -55.5 24.5 -89.5
c0 -34.667 -8.66699 -67.5 -26 -98.5s-40.666 -55.833 -69.999 -74.5s-61 -28 -95 -28c-34.667 0 -67.667 9 -99 27zM243.999 91.001l283 663l184 8l-268 -773zM248.499 549.001c11 11.333 16.5 24.668 16.5 40.001s-5.83301 28.666 -17.5 39.999s-25.5 17 -41.5 17
c-15.333 0 -28.5 -5.16699 -39.5 -15.5s-16.5 -22.833 -16.5 -37.5c0 -15.333 6.33301 -29.333 19 -42s26.667 -19 42 -19c14 0 26.5 5.66699 37.5 17zM655.499 22.5029c-29.667 15.667 -53.334 37.3291 -71.001 64.9961s-26.5 58.834 -26.5 93.501
c0 34 8.16699 65.833 24.5 95.5s38.333 53.5 66 71.5s57.834 27 90.501 27c35.333 0 69 -9.66699 101 -29s57.667 -44.666 77 -75.999s29 -64.333 29 -99c0 -31.333 -8.66699 -60.166 -26 -86.499s-41 -47.166 -71 -62.499s-62.667 -23 -98 -23
c-34 0 -65.833 7.83301 -95.5 23.5zM782.999 136.998c12.667 11.333 19 24.999 19 40.999c0 16.667 -5.5 30.5 -16.5 41.5s-24.833 16.5 -41.5 16.5c-17.333 0 -31.333 -5.66699 -42 -17s-16 -25.666 -16 -42.999s4.66699 -31 14 -41s22 -15 38 -15
c17.333 0 32.333 5.66699 45 17z" />
    <glyph glyph-name="ampersand" unicode="&#x26;" horiz-adv-x="592" 
d="M577 315l-28.001 3.00098c12 -26.667 18 -57.334 18 -92.001c0 -40.667 -12.5 -79 -37.5 -115s-59.333 -65 -103 -87s-91.834 -33 -144.501 -33c-52 0 -98.5 10.333 -139.5 31s-73 49.334 -96 86.001s-34.5 78.667 -34.5 126c0 37.333 6.66699 69.833 20 97.5
s31.333 45.5 54 53.5c-23.333 11.333 -42 31.333 -56 60s-21 60.667 -21 96c0 43.333 11.333 82.5 34 117.5s53.667 62.333 93 82s83.333 29.5 132 29.5c45.333 0 86.166 -8.5 122.499 -25.5s65 -40.167 86 -69.5s31.5 -62 31.5 -98l-154 -70
c0.666992 31.333 -7.16602 55.833 -23.499 73.5s-37.166 26.5 -62.499 26.5c-19.333 0 -36.333 -7.16699 -51 -21.5s-22 -30.833 -22 -49.5c0 -25.333 9.5 -46.666 28.5 -63.999s42.833 -26 71.5 -26l3 -103c-16.667 0 -32.667 -4.83301 -48 -14.5
s-27.666 -22.334 -36.999 -38.001s-14 -31.834 -14 -48.501c0 -23.333 9.16699 -43.166 27.5 -59.499s40.5 -24.5 66.5 -24.5c27.333 0 50.833 7.66699 70.5 23s29.5 33.666 29.5 54.999c0 22 -6 44 -18 66s-25.667 34.333 -41 37l-6 1v95h255z" />
    <glyph glyph-name="quotesingle" unicode="'" horiz-adv-x="189" 
d="M9 809l171 12v-277h-136z" />
    <glyph glyph-name="parenleft" unicode="(" horiz-adv-x="338" 
d="M51.5 109c-28.333 85.333 -42.499 172.334 -42.499 261.001c0 80 14.833 160.667 44.5 242s71.5 146 125.5 194l139 -86c-45.333 -49.333 -78.333 -101.5 -99 -156.5s-31 -120.833 -31 -197.5c0 -68.667 11.167 -133.5 33.5 -194.5s58.166 -118.833 107.499 -173.5
l-157 -97c-52 53.333 -92.167 122.666 -120.5 207.999z" />
    <glyph glyph-name="parenright" unicode=")" horiz-adv-x="338" 
d="M9 -2c49.333 54.667 85.167 112.499 107.5 173.499s33.5 125.833 33.5 194.5c0 76.667 -10.333 142.5 -31 197.5s-53.667 107.167 -99 156.5l139 86c54 -48 95.833 -112.667 125.5 -194s44.5 -162 44.5 -242c0 -88.667 -14.167 -175.667 -42.5 -261
s-68.5 -154.666 -120.5 -207.999z" />
    <glyph glyph-name="asterisk" unicode="*" horiz-adv-x="288" 
d="M144 617l-53 -78l-59 41l47 72l-70 36l32 70l65 -32l3 71l73 5l2 -76l61 25l34 -70l-70 -29l45 -80l-64 -36z" />
    <glyph glyph-name="plus" unicode="+" horiz-adv-x="568" 
d="M546 171l-169 4l2 -167l-190 -13l3 184l-171 4l-12 186l186 -3l3 179l174 -11l2 -170l185 -3z" />
    <glyph glyph-name="comma" unicode="," horiz-adv-x="312" 
d="M9 -101l103 318l191 -72l-147 -271z" />
    <glyph glyph-name="hyphen" unicode="-" horiz-adv-x="393" 
d="M9 389l372 2l3 -197l-367 -3z" />
    <glyph glyph-name="period" unicode="." horiz-adv-x="236" 
d="M39 31c-21.333 23.333 -32.001 50.667 -32.001 82c0 21.333 5.5 40.833 16.5 58.5s25.333 31.5 43 41.5s36.5 15 56.5 15c28.667 0 53.167 -10 73.5 -30s30.5 -47 30.5 -81s-10.167 -62.667 -30.5 -86s-46.166 -35 -77.499 -35c-32 0 -58.667 11.667 -80 35z" />
    <glyph glyph-name="slash" unicode="/" horiz-adv-x="531" 
d="M4 0l318 761h200l-317 -761h-201z" />
    <glyph glyph-name="zero" unicode="0" horiz-adv-x="694" 
d="M184.5 46.5c-53 35.667 -95.499 83.165 -127.499 142.498s-48 123 -48 191c0 66 16 128.833 48 188.5s74.5 107.5 127.5 143.5s109.5 54 169.5 54c58.667 0 113.5 -17.667 164.5 -53s91.5 -82.666 121.5 -141.999s45 -123 45 -191c0 -70.667 -14.833 -135.667 -44.5 -195
s-69.834 -106.166 -120.501 -140.499s-106 -51.5 -166 -51.5s-116.5 17.833 -169.5 53.5zM438.501 259.498c21 29.667 31.5 69.833 31.5 120.5c0 56.667 -10.5 101.334 -31.5 134.001s-49.167 49 -84.5 49c-25.333 0 -48 -7.83301 -68 -23.5s-35.5 -37.5 -46.5 -65.5
s-16.5 -59.333 -16.5 -94c0 -50.667 11.667 -90.834 35 -120.501s55.333 -44.5 96 -44.5c35.333 0 63.5 14.833 84.5 44.5z" />
    <glyph glyph-name="one" unicode="1" horiz-adv-x="378" 
d="M227 760l142 -15v-744h-219v550h-141v209h218z" />
    <glyph glyph-name="two" unicode="2" horiz-adv-x="609" 
d="M600 0l-570 -0.998047l-17 172c46.667 20.667 96.334 50.167 149.001 88.5s97 78.833 133 121.5s54 80.667 54 114c0 20 -6 38 -18 54s-27 24 -45 24c-22 0 -41.333 -10.833 -58 -32.5s-26.334 -46.167 -29.001 -73.5l-183 32c2.66699 50.667 16.167 96.167 40.5 136.5
s57.333 72.166 99 95.499s88.5 35 140.5 35c51.333 0 96.333 -11.333 135 -34s68.5 -54.334 89.5 -95.001s31.5 -86.667 31.5 -138c0 -102 -55.333 -209.333 -166 -322l193 3z" />
    <glyph glyph-name="three" unicode="3" horiz-adv-x="578" 
d="M489.5 447c24.333 -25.333 43.667 -55.001 58 -89.001s21.5 -69 21.5 -105c0 -49.333 -13.333 -93.833 -40 -133.5s-63.834 -70.667 -111.501 -93s-101.167 -33.5 -160.5 -33.5c-57.333 0 -106 11 -146 33s-74 56.667 -102 104l104 149
c18 -29.333 38.833 -51.666 62.5 -66.999s49.167 -23 76.5 -23c28.667 0 52 8.5 70 25.5s27 38.833 27 65.5c0 24.667 -8.33301 45.667 -25 63s-37 26 -61 26c-17.333 0 -33.166 -2.33301 -47.499 -7s-30.166 -12.667 -47.499 -24l-51 131l146 120l-235 -3v173l513 1l4 -167
l-136 -92c29.333 -10.667 56.166 -28.667 80.499 -54z" />
    <glyph glyph-name="four" unicode="4" horiz-adv-x="581" 
d="M572 181l-108 3l-1 -178l-198 -6l5 188l-251 6l-10 561l184 12v-389l81 -5l5 181l186 55l-1 -247l108 -6v-175z" />
    <glyph glyph-name="five" unicode="5" horiz-adv-x="536" 
d="M392 484c40 -18 72.502 -45.3301 97.502 -81.9971s37.5 -82 37.5 -136c0 -48.667 -12 -93.334 -36 -134.001s-56.833 -72.834 -98.5 -96.501s-87.5 -35.5 -137.5 -35.5s-96.833 12.5 -140.5 37.5s-81.834 61.167 -114.501 108.5l144 93
c8.66699 -17.333 21.5 -31.166 38.5 -41.499s35.5 -15.5 55.5 -15.5c25.333 0 47.166 8.16699 65.499 24.5s27.5 36.166 27.5 59.499c0 22.667 -9 41.5 -27 56.5s-40.667 22.5 -68 22.5c-20.667 0 -38.667 -3.83301 -54 -11.5s-26 -17.834 -32 -30.501l-130 56l9 396h460
v-168h-281l3 -80c15.333 2.66699 33 4 53 4c45.333 0 88 -9 128 -27z" />
    <glyph glyph-name="six" unicode="6" horiz-adv-x="557" 
d="M436.5 457c35.667 -22.667 63.165 -52.165 82.498 -88.498s29 -76.833 29 -121.5c0 -48.667 -11 -92 -33 -130s-52.667 -67.833 -92 -89.5s-84 -32.5 -134 -32.5c-53.333 0 -101 12.5 -143 37.5s-74.667 57.833 -98 98.5s-36 84 -38 130c-0.666992 6 -1 14.667 -1 26
c0 76 25.5 154.167 76.5 234.5s139.5 160.166 265.5 239.499l131 -138c-24.667 -10.667 -52.167 -27.167 -82.5 -49.5s-59.166 -47.5 -86.499 -75.5c46.667 -4.66699 87.834 -18.334 123.501 -41.001zM344.998 184.002c17.333 18 25.9971 39.332 25.9971 63.999
s-8.66699 45.834 -26 63.501s-39.666 26.5 -66.999 26.5c-24 0 -45.5 -6.66699 -64.5 -20s-29.167 -33 -30.5 -59v-7c0.666992 -28.667 11.334 -51.667 32.001 -69s43.334 -26 68.001 -26c24 0 44.667 9 62 27z" />
    <glyph glyph-name="seven" unicode="7" horiz-adv-x="564" 
d="M555 584c-36 -42.667 -68.332 -87 -96.999 -133s-57.334 -97.333 -86.001 -154c-32 -63.333 -70.667 -163 -116 -299h-235c35.333 114 72 212.333 110 295c58 129.333 108.333 223.333 151 282l-273 -8v193h541z" />
    <glyph glyph-name="eight" unicode="8" horiz-adv-x="541" 
d="M495.5 328.5c24.333 -33 36.5 -69.165 36.5 -108.498c0 -44 -10.5 -83.5 -31.5 -118.5s-50.5 -62.167 -88.5 -81.5s-81.333 -29 -130 -29c-49.333 0 -94.833 9.83301 -136.5 29.5s-74.834 46 -99.501 79s-37 68.833 -37 107.5c0 37.333 11.5 72.5 34.5 105.5
s55.833 61.167 98.5 84.5c-43.333 22 -74.833 45.833 -94.5 71.5s-29.5 55.167 -29.5 88.5c0 38 11.333 73.167 34 105.5s53.334 58.166 92.001 77.499s80.667 29 126 29c44.667 0 85.5 -9.5 122.5 -28.5s66.333 -44.833 88 -77.5s32.5 -68.334 32.5 -107.001
c0 -35.333 -8.16699 -66 -24.5 -92s-44.5 -48.333 -84.5 -67c36.667 -12.667 67.167 -35.5 91.5 -68.5zM216.5 597.002c-13.667 -12.667 -20.498 -27.668 -20.498 -45.001s7.5 -33.666 22.5 -48.999s35.5 -27.333 61.5 -36c16 10.667 29 23.667 39 39s15 30.333 15 45
c0 17.333 -6.83301 32.5 -20.5 45.5s-29.834 19.5 -48.501 19.5s-34.834 -6.33301 -48.501 -19zM332.002 168.001c16 15.333 24 33.333 24 54c0 20 -7.83301 37.833 -23.5 53.5s-36.5 27.167 -62.5 34.5c-31.333 -12 -50.833 -26.833 -58.5 -44.5s-11.5 -33.167 -11.5 -46.5
c0.666992 -20.667 8.66699 -38.167 24 -52.5s33 -21.5 53 -21.5c20.667 0 39 7.66699 55 23z" />
    <glyph glyph-name="nine" unicode="9" horiz-adv-x="552" 
d="M543 496c0 -90 -28.165 -178.67 -84.498 -266.003s-140.5 -165.666 -252.5 -234.999l-131 138c30 14.667 62.5 36.334 97.5 65.001s64.833 58.334 89.5 89.001c-48.667 0.666992 -92.334 12 -131.001 34s-68.667 50.5 -90 85.5s-32 71.833 -32 110.5
c0 42.667 12.667 83.167 38 121.5s58.833 69.166 100.5 92.499s85.834 35 132.501 35c43.333 0 85.166 -10.333 125.499 -31s73.166 -49.167 98.499 -85.5s38 -77.166 38 -122.499v-1c0.666992 -6.66699 1 -16.667 1 -30zM210.502 459.997c14.333 -18 35.168 -27 62.501 -27
c26 0 46.5 8.33301 61.5 25s22.5 36.667 22.5 60c0 26 -8.83301 46 -26.5 60s-37.834 21 -60.501 21c-22 0 -41 -7 -57 -21s-24 -33 -24 -57c0 -22.667 7.16699 -43 21.5 -61z" />
    <glyph glyph-name="colon" unicode=":" horiz-adv-x="236" 
d="M63 433.5c-16.667 10.333 -30.166 24.1689 -40.499 41.502s-15.5 36.666 -15.5 57.999c0 32 11 59.5 33 82.5s48.667 34.5 80 34.5c28.667 0 53.667 -10.667 75 -32s32 -48 32 -80c0 -19.333 -5 -38.333 -15 -57s-23.5 -33.834 -40.5 -45.501s-35.5 -17.5 -55.5 -17.5
c-18.667 0 -36.334 5.16699 -53.001 15.5zM63.001 9.50293c-16.667 10.333 -30.166 24.1689 -40.499 41.502s-15.5 36.666 -15.5 57.999c0 32 11 59.5 33 82.5s48.667 34.5 80 34.5c28.667 0 53.667 -10.667 75 -32s32 -48 32 -80c0 -19.333 -5 -38.333 -15 -57
s-23.5 -33.834 -40.5 -45.501s-35.5 -17.5 -55.5 -17.5c-18.667 0 -36.334 5.16699 -53.001 15.5z" />
    <glyph glyph-name="semicolon" unicode=";" horiz-adv-x="253" 
d="M79 433.5c-16.667 10.333 -30 24.332 -40 41.999s-15 36.834 -15 57.501c0 32 10.833 59.5 32.5 82.5s48.167 34.5 79.5 34.5c30 0 55.5 -10.833 76.5 -32.5s31.5 -48.167 31.5 -79.5c0 -20 -5 -39.167 -15 -57.5s-23.5 -33.333 -40.5 -45s-35.5 -17.5 -55.5 -17.5
c-19.333 0 -37.333 5.16699 -54 15.5zM9 -49.001l82 271l153 -75l-117 -216z" />
    <glyph glyph-name="less" unicode="&#x3c;" horiz-adv-x="486" 
d="M383 552l94 -169l-260 -95l256 -121l-59 -169l-405 192l1 197z" />
    <glyph glyph-name="equal" unicode="=" horiz-adv-x="385" 
d="M9 473l367 -8v-150h-367v158zM9 283h364v-159h-364v159z" />
    <glyph glyph-name="greater" unicode="&#x3e;" horiz-adv-x="486" 
d="M477 190l-405 -192l-59 169l256 121l-260 95l94 169l373 -165z" />
    <glyph glyph-name="question" unicode="?" horiz-adv-x="515" 
d="M298 237l-158.002 13.001v199c26.667 -8 50.334 -12 71.001 -12c32 0 57.5 7.33301 76.5 22s28.5 34 28.5 58c0 22.667 -7.33301 41.167 -22 55.5s-33 21.5 -55 21.5c-23.333 0 -43.5 -8.16699 -60.5 -24.5s-26.167 -36.5 -27.5 -60.5l-132 54
c3.33301 37.333 16.333 71.5 39 102.5s51.5 55.5 86.5 73.5s72.167 27 111.5 27c50 0 94 -11.333 132 -34s67.167 -54.334 87.5 -95.001s30.5 -86.667 30.5 -138c0 -34 -10.167 -66.833 -30.5 -98.5s-46.666 -57.167 -78.999 -76.5s-65.833 -29 -100.5 -29zM139.998 31.001
c-21.333 23.333 -32.001 50.667 -32.001 82c0 21.333 5.5 40.833 16.5 58.5s25.333 31.5 43 41.5s36.5 15 56.5 15c28.667 0 53.167 -10 73.5 -30s30.5 -47 30.5 -81s-10.167 -62.667 -30.5 -86s-46.166 -35 -77.499 -35c-32 0 -58.667 11.667 -80 35z" />
    <glyph glyph-name="at" unicode="@" horiz-adv-x="822" 
d="M618.5 724c59.667 -28 106.999 -68.502 141.999 -121.502s52.5 -115.167 52.5 -186.5c0 -55.333 -10.167 -107.333 -30.5 -156s-47.5 -87.667 -81.5 -117s-70.333 -44 -109 -44c-35.333 0 -66.666 12.5 -93.999 37.5s-42.333 62.833 -45 113.5
c-12 -9.33301 -26 -16.666 -42 -21.999s-32.333 -8 -49 -8c-27.333 0 -52.666 7.66699 -75.999 23s-41.833 36 -55.5 62s-20.5 54.333 -20.5 85c0 31.333 7 59.833 21 85.5s33.333 46 58 61s51.667 22.5 81 22.5c17.333 0 33.166 -2.66699 47.499 -8
s25.833 -12.666 34.5 -21.999v26h104l13 -313c1.33301 -8.66699 5.5 -16.167 12.5 -22.5s14.833 -9.5 23.5 -9.5c13.333 0 26.833 7 40.5 21s25 35 34 63s13.5 62 13.5 102c0 86.667 -24.167 150.167 -72.5 190.5s-111.833 60.5 -190.5 60.5
c-61.333 0 -113.333 -12 -156 -36s-74.834 -55.167 -96.501 -93.5s-32.5 -79.5 -32.5 -123.5c0 -48 11.167 -93.5 33.5 -136.5s51.833 -77.5 88.5 -103.5s76 -39 118 -39c10 0 21.833 0.833008 35.5 2.5s24.834 3.83398 33.501 6.50098l97 -91
c-50.667 -25.333 -105 -38 -163 -38c-71.333 0 -136 16.667 -194 50s-103.333 79.166 -136 137.499s-49 123.5 -49 195.5s18.5 137.667 55.5 197s87 106 150 140s131.833 51 206.5 51c72 0 137.833 -14 197.5 -42zM427.999 345.998c12.667 14.667 19 31.334 19 50.001
c0 17.333 -5.5 31.666 -16.5 42.999s-24.833 17 -41.5 17c-18.667 0 -34.834 -6.5 -48.501 -19.5s-20.5 -28.167 -20.5 -45.5s6.5 -32.833 19.5 -46.5s27.833 -20.5 44.5 -20.5s31.334 7.33301 44.001 22z" />
    <glyph glyph-name="A" unicode="A" 
d="M527 167l-254 1l-64 -159l-200 82l328 669l200 -2l235 -710l-200 -48zM473 367l-48 180l-72 -179z" />
    <glyph glyph-name="B" unicode="B" horiz-adv-x="585" 
d="M419 418c29.333 0 55.832 -8.33105 79.499 -24.998s42.5 -39.834 56.5 -69.501s21 -62.834 21 -99.501c0 -76 -34 -132.5 -102 -169.5s-172.333 -55.5 -313 -55.5h-152l4 728c24 14.667 60.833 24.834 110.5 30.501s96.834 8.5 141.501 8.5c41.333 0 81 -8 119 -24
s68.833 -37.667 92.5 -65s35.5 -57.666 35.5 -90.999c0 -40.667 -10.5 -77.334 -31.5 -110.001s-48.5 -52.334 -82.5 -59.001c4.66699 0.666992 11.667 1 21 1zM305.499 598.002c-14.333 11.333 -32.832 17 -55.499 17c-16.667 0 -32.334 -3.66699 -47.001 -11v-114
c8 -2.66699 17.667 -4 29 -4c24.667 0 46.667 6.66699 66 20s29 29.333 29 48c0 18 -7.16699 32.667 -21.5 44zM327.5 188.002c23 17.333 34.498 38.666 34.498 63.999c0 20.667 -8.66699 37.334 -26 50.001s-38.666 19 -63.999 19s-48.333 -5.66699 -69 -17v-134
c12.667 -5.33301 26.334 -8 41.001 -8c32.667 0 60.5 8.66699 83.5 26z" />
    <glyph glyph-name="C" unicode="C" horiz-adv-x="725" 
d="M182.5 46.5c-56.333 35.667 -101.001 83.333 -134.001 143s-49.5 123.834 -49.5 192.501c0 70 17 134.167 51 192.5s80.167 104.666 138.5 138.999s121.833 51.5 190.5 51.5c50 0 98.167 -9.5 144.5 -28.5s86.5 -47.833 120.5 -86.5s58 -85.667 72 -141l-174 -53
c-10 28.667 -30 54 -60 76s-65.333 33 -106 33c-50.667 0 -92.834 -15.5 -126.501 -46.5s-50.5 -75.833 -50.5 -134.5c0 -39.333 8 -73.5 24 -102.5s37.333 -51 64 -66s55.667 -22.5 87 -22.5c28 0 54 6 78 18s43.833 26.833 59.5 44.5s25.834 34.5 30.501 50.5l163 -56
c-8 -46.667 -28.667 -89.667 -62 -129s-74.666 -70.5 -123.999 -93.5s-100.333 -34.5 -153 -34.5c-66 0 -127.167 17.833 -183.5 53.5z" />
    <glyph glyph-name="D" unicode="D" horiz-adv-x="672" 
d="M419.5 711c73 -36.667 131.834 -86.833 176.501 -150.5s67 -134.5 67 -212.5c0 -119.333 -43.333 -208.333 -130 -267s-203.334 -88 -350.001 -88c-58.667 0 -116.667 3.33301 -174 10l8 725c30.667 13.333 59.5 23 86.5 29s55.833 9 86.5 9
c80 0 156.5 -18.333 229.5 -55zM446.001 379.001c0 34 -9.5 63.667 -28.5 89s-43.667 44.833 -74 58.5s-61.5 20.5 -93.5 20.5c-16.667 0 -30.667 -1.33301 -42 -4v-339c158.667 -3.33301 238 55 238 175z" />
    <glyph glyph-name="E" unicode="E" horiz-adv-x="572" 
d="M563 212v-200l-528 -12l-26 760l528 17l14 -200l-338 -4l4 -79l281 6l10 -200l-279 -6l5 -95z" />
    <glyph glyph-name="F" unicode="F" horiz-adv-x="520" 
d="M192 552l3 -88l237 3l16 -200l-247 -3l8 -265h-200v752l502 9v-200z" />
    <glyph glyph-name="G" unicode="G" horiz-adv-x="734" 
d="M736 334c0 -48.667 -11.4971 -96.333 -34.4971 -143s-54.833 -86.5 -95.5 -119.5s-86.334 -54.833 -137.001 -65.5c-25.333 -5.33301 -49.666 -8 -72.999 -8c-58 0 -113.667 13 -167 39s-98.833 62.333 -136.5 109s-62.834 99.334 -75.501 158.001
c-4.66699 22.667 -7 47 -7 73c0 57.333 12.5 112.666 37.5 165.999s60.167 98.666 105.5 135.999s97 62.333 155 75c28 5.33301 55.667 8 83 8c46 0 90.5 -6.5 133.5 -19.5s78.167 -31.833 105.5 -56.5l-106 -164c-14.667 14 -33.834 24.833 -57.501 32.5
s-47.834 11.5 -72.501 11.5c-14.667 0 -29.667 -1.66699 -45 -5c-36.667 -8.66699 -66.834 -29.167 -90.501 -61.5s-35.5 -68.166 -35.5 -107.499c0 -10.667 1 -21.667 3 -33c9.33301 -41.333 29.333 -75.5 60 -102.5s65.334 -40.5 104.001 -40.5c9.33301 0 19 1 29 3
c22 4.66699 43.5 13.667 64.5 27s33.833 28.333 38.5 45l-178 34l41 179l331 -66c13.333 -31.333 20 -66 20 -104z" />
    <glyph glyph-name="H" unicode="H" horiz-adv-x="644" 
d="M433 275l-224 24v-298h-200v758h200v-261l223 -23l-2 281l200 4l5 -767l-200 1z" />
    <glyph glyph-name="I" unicode="I" horiz-adv-x="218" 
d="M15 760h194l-6 -760h-194z" />
    <glyph glyph-name="J" unicode="J" horiz-adv-x="584" 
d="M552 346c5.33301 -21.333 8.00098 -45.002 8.00098 -71.002c0 -50 -11.667 -96.333 -35 -139s-55.333 -76.5 -96 -101.5s-86.334 -37.5 -137.001 -37.5c-38 0 -76.333 7.5 -115 22.5s-73.167 36.333 -103.5 64s-52.166 58.834 -65.499 93.501l168 112
c5.33301 -19.333 16.666 -35.166 33.999 -47.499s36 -18.5 56 -18.5c22.667 0 41.167 8.16699 55.5 24.5s21.5 37.5 21.5 63.5c0 6 -1.33301 16.333 -4 31l-54 242l-222 7l27 175l470 -23l15 -167l-77 2z" />
    <glyph glyph-name="K" unicode="K" horiz-adv-x="679" 
d="M264 268l-55 -56v-209h-199v754h199v-234l255 252l159 -146l-207 -209l254 -304l-166 -147z" />
    <glyph glyph-name="L" unicode="L" horiz-adv-x="488" 
d="M479 198v-200h-470v762h200v-562h270z" />
    <glyph glyph-name="M" unicode="M" horiz-adv-x="861" 
d="M652 -2l-21 449l-96 -449h-200l-111 420l-5 -409l-200 -1v758l144 -9l153 -5l112 -402l76 408h194h119l35 -753z" />
    <glyph glyph-name="N" unicode="N" horiz-adv-x="730" 
d="M721 772l-6 -772h-194l-315 425l4 -424l-194 -7l-7 781l194 -8l321 -421l3 419z" />
    <glyph glyph-name="O" unicode="O" horiz-adv-x="801" 
d="M209 47.5c-60.667 36.333 -109.167 84.335 -145.5 144.002s-54.5 123.167 -54.5 190.5s18.167 130.5 54.5 189.5s84.833 106 145.5 141s125.334 52.5 194.001 52.5c68 0 132 -17.5 192 -52.5s107.833 -81.833 143.5 -140.5s53.5 -122 53.5 -190
c0 -68.667 -17.833 -132.834 -53.5 -192.501s-83.5 -107.334 -143.5 -143.001s-124 -53.5 -192 -53.5c-68.667 0 -133.334 18.167 -194.001 54.5zM494.5 218.002c29.667 16.667 53.334 39.335 71.001 68.002s26.5 60.667 26.5 96c0 34.667 -8.83301 66 -26.5 94
s-41.5 49.833 -71.5 65.5s-63.333 23.5 -100 23.5c-34.667 0 -66.167 -7.83301 -94.5 -23.5s-50.5 -37.334 -66.5 -65.001s-24 -58.834 -24 -93.501c0 -36 8.16699 -68.5 24.5 -97.5s38.666 -51.667 66.999 -68s60.5 -24.5 96.5 -24.5c35.333 0 67.833 8.33301 97.5 25z" />
    <glyph glyph-name="P" unicode="P" horiz-adv-x="602" 
d="M423 727c51.333 -24.667 92.501 -58.6689 123.501 -102.002s46.5 -92 46.5 -146c0 -51.333 -13.667 -98.666 -41 -141.999s-64.833 -77.666 -112.5 -102.999s-99.834 -38 -156.501 -38c-18 0 -38 1.66699 -60 5l5 -201h-200l-20 695c90.667 46 174 69 250 69
c58.667 0 113.667 -12.333 165 -37zM266.001 374.998c21.333 0 41.833 4.66602 61.5 13.999s35.5 22 47.5 38s18 33.333 18 52c0 32.667 -12 59.834 -36 81.501s-52 32.5 -84 32.5c-20 0 -39.333 -5 -58 -15l4 -194c15.333 -6 31 -9 47 -9z" />
    <glyph glyph-name="Q" unicode="Q" horiz-adv-x="801" 
d="M764 241.5c-18.667 -45 -44.667 -85.5 -78 -121.5l87 -116l-178 -113l-85 118c-36 -10.667 -71.667 -16 -107 -16c-68.667 0 -133.334 18.167 -194.001 54.5s-109.167 84.333 -145.5 144s-54.5 123.167 -54.5 190.5s18.167 130.5 54.5 189.5s84.833 106 145.5 141
s125.334 52.5 194.001 52.5c68 0 132 -17.5 192 -52.5s107.833 -81.833 143.5 -140.5s53.5 -122 53.5 -190c0 -48.667 -9.33301 -95.5 -28 -140.5zM494.5 218c29.667 16.667 53.334 39.335 71.001 68.002s26.5 60.667 26.5 96c0 34.667 -8.83301 66 -26.5 94
s-41.5 49.833 -71.5 65.5s-63.333 23.5 -100 23.5c-34.667 0 -66.167 -7.83301 -94.5 -23.5s-50.5 -37.334 -66.5 -65.001s-24 -58.834 -24 -93.501c0 -36 8.16699 -68.5 24.5 -97.5s38.666 -51.667 66.999 -68s60.5 -24.5 96.5 -24.5c35.333 0 67.833 8.33301 97.5 25z" />
    <glyph glyph-name="R" unicode="R" horiz-adv-x="590" 
d="M500 184c22.667 -15.333 48.667 -23.0039 78 -23.0039v-200c-48 0 -95.167 10.167 -141.5 30.5s-86.666 48.5 -120.999 84.5s-58.833 76.333 -73.5 121l-27 2l2 -191h-200l-8 715c23.333 13.333 57.166 23.833 101.499 31.5s88.166 11.5 131.499 11.5
c72.667 0 134.334 -11.667 185.001 -35s89 -55.666 115 -96.999s39 -89.333 39 -144c0 -53.333 -11.833 -100.666 -35.5 -141.999s-56.167 -74.666 -97.5 -99.999c12 -27.333 29.333 -48.666 52 -63.999zM213 391.996c11.333 -4.66699 24.332 -6.99805 38.999 -6.99805
c20.667 0 41 4.33301 61 13s36.333 20.667 49 36s19 32.666 19 51.999c0 16 -4.5 31.667 -13.5 47s-21.167 27.666 -36.5 36.999s-32 14 -50 14c-11.333 0 -24.166 -1.66699 -38.499 -5s-24.833 -7 -31.5 -11z" />
    <glyph glyph-name="S" unicode="S" horiz-adv-x="624" 
d="M142 27.5c-54 23.667 -98.335 55.1709 -133.002 94.5039l135 148c21.333 -24 46.5 -42.833 75.5 -56.5s58.167 -20.5 87.5 -20.5c26.667 0 48.334 5 65.001 15s25 21.667 25 35s-8 23 -24 29s-36.667 9 -62 9c-49.333 0 -94.833 10.333 -136.5 31s-75 49.167 -100 85.5
s-37.5 77.166 -37.5 122.499c0 46.667 13 88.667 39 126s61 66.666 105 87.999s92 32 144 32c52.667 0 104 -10.167 154 -30.5s94 -49.5 132 -87.5l-113 -153c-62.667 46 -122 69 -178 69c-24.667 0 -46 -4.33301 -64 -13s-27 -19 -27 -31
c0 -12.667 10.667 -22.167 32 -28.5s46.666 -9.5 75.999 -9.5c53.333 0 101 -8.33301 143 -25s75 -41.334 99 -74.001s36 -72.334 36 -119.001c0 -50 -14.167 -95.833 -42.5 -137.5s-66.166 -74.5 -113.499 -98.5s-98.666 -36 -153.999 -36c-54.667 0 -109 11.833 -163 35.5
z" />
    <glyph glyph-name="T" unicode="T" horiz-adv-x="662" 
d="M429 570l2 -568l-198 -9l-2 572l-208 -5l-14 200l628 15l16 -200z" />
    <glyph glyph-name="U" unicode="U" horiz-adv-x="660" 
d="M160 45c-48.667 36.667 -85.998 89.499 -111.998 158.499s-39 150.5 -39 244.5c0 110 13.333 214 40 312l215 -52c-6.66699 -31.333 -12 -65.5 -16 -102.5s-8.33301 -83.833 -13 -140.5l-3 -29c0 -164 33.667 -246 101 -246c66 0 99 80.333 99 241
c0 27.333 -4.33301 69 -13 125s-19.667 109.333 -33 160l212 60c35.333 -98.667 53 -213.667 53 -345c0 -89.333 -13 -167.166 -39 -233.499s-62.833 -117.5 -110.5 -153.5s-103.834 -54 -168.501 -54c-66.667 0 -124.334 18.333 -173.001 55z" />
    <glyph glyph-name="V" unicode="V" horiz-adv-x="732" 
d="M723 706l-196 -702l-202 -36l-316 708l200 92l198 -447l120 439z" />
    <glyph glyph-name="W" unicode="W" horiz-adv-x="1146" 
d="M1137 671l-261 -687h-242l-80 373l-81 -353h-251l-212 690l223 70l120 -430l117 412h184l95 -446l155 483z" />
    <glyph glyph-name="X" unicode="X" horiz-adv-x="722" 
d="M521 -22l-159 221l-168 -221l-185 127l217 282l-190 263l170 111l152 -202l160 209l184 -121l-206 -271l217 -289z" />
    <glyph glyph-name="Y" unicode="Y" horiz-adv-x="742" 
d="M469 321l1 -322h-200l-1 339l-260 339l210 87l159 -232l155 232l200 -49z" />
    <glyph glyph-name="Z" unicode="Z" horiz-adv-x="590" 
d="M581 572l-289 -382h278v-196h-561v193l286 382l-259 -1v195l545 1v-192z" />
    <glyph glyph-name="bracketleft" unicode="[" horiz-adv-x="370" 
d="M361 -195l-352 1l11 1000h321l11 -168h-145l-11 -642l153 -5z" />
    <glyph glyph-name="backslash" unicode="\" horiz-adv-x="518" 
d="M9 745l187 35l313 -748l-178 -57z" />
    <glyph glyph-name="bracketright" unicode="]" horiz-adv-x="370" 
d="M174 -4l-11 642h-145l11 168h321l11 -1000l-352 -1l12 186z" />
    <glyph glyph-name="asciicircum" unicode="^" horiz-adv-x="364" 
d="M216 618l-33 116l-46 -114h-128l104 186h148l94 -187z" />
    <glyph glyph-name="underscore" unicode="_" horiz-adv-x="576" 
d="M18 -2h549l-12 -137h-546z" />
    <glyph glyph-name="grave" unicode="`" horiz-adv-x="264" 
d="M9 760l156 46l90 -128l-140 -14z" />
    <glyph glyph-name="a" unicode="a" horiz-adv-x="595" 
d="M403 0l-1.00098 47.001c-18 -15.333 -40.333 -27.666 -67 -36.999s-54 -14 -82 -14c-44 0 -84.667 12.167 -122 36.5s-67 57.166 -89 98.499s-33 86.666 -33 135.999c0 50 11.333 95.667 34 137s53.834 73.833 93.501 97.5s83.5 35.5 131.5 35.5
c26 0 50.5 -4.33301 73.5 -13s41.5 -20.667 55.5 -36v43h166l23 -531h-183zM336.999 177.001c16 10.667 28.666 24.835 37.999 42.502s14 36.5 14 56.5c0 27.333 -8.83301 50.166 -26.5 68.499s-39.834 27.5 -66.501 27.5c-29.333 0 -55 -10.333 -77 -31
s-33 -45.334 -33 -74.001c0 -17.333 4.83301 -34.333 14.5 -51s22.334 -30 38.001 -40s31.834 -15 48.501 -15c17.333 0 34 5.33301 50 16z" />
    <glyph glyph-name="b" unicode="b" horiz-adv-x="607" 
d="M485.5 503.5c33.667 -26.333 60.832 -60.5 81.499 -102.5s31 -85.667 31 -131c0 -49.333 -10 -95.333 -30 -138s-47 -76.5 -81 -101.5s-70.667 -37.5 -110 -37.5c-32 0 -63.667 5.66699 -95 17s-57.333 26 -78 44v-56h-195v792l200 16l-2 -310c45.333 34 103 50 173 48
c36.667 -0.666992 71.834 -14.167 105.501 -40.5zM364.498 178.5c16.333 10.333 29.335 23.833 39.002 40.5s14.5 34 14.5 52c0 28.667 -10.5 53.5 -31.5 74.5s-45.167 31.5 -72.5 31.5c-28.667 0 -53.834 -10.5 -75.501 -31.5s-32.5 -45.5 -32.5 -73.5
c0 -18 5.16699 -35.5 15.5 -52.5s23.833 -30.667 40.5 -41s34 -15.5 52 -15.5c17.333 0 34.166 5.16699 50.499 15.5z" />
    <glyph glyph-name="c" unicode="c" horiz-adv-x="551" 
d="M146 31.5c-42 25.667 -75.333 60 -100 103s-37 89.167 -37 138.5s11.833 94.5 35.5 135.5s55.667 73.5 96 97.5s84.833 36 133.5 36c43.333 0 85.833 -10 127.5 -30s75.5 -47 101.5 -81s39 -70.667 39 -110l-168 -15c-6 19.333 -16.833 34.833 -32.5 46.5
s-33.167 17.5 -52.5 17.5c-26.667 0 -50.5 -9.83301 -71.5 -29.5s-31.5 -42.167 -31.5 -67.5c0 -16.667 5 -33 15 -49s23.167 -29 39.5 -39s33.166 -15 50.499 -15s33.833 5 49.5 15s26.834 22.667 33.501 38l166 -16c0 -36.667 -12.5 -71.5 -37.5 -104.5
s-57.5 -59.5 -97.5 -79.5s-81 -30 -123 -30c-48.667 0 -94 12.833 -136 38.5z" />
    <glyph glyph-name="d" unicode="d" horiz-adv-x="607" 
d="M598 790l-0.00195312 -792h-195v56c-20.667 -18 -46.667 -32.667 -78 -44s-63 -17 -95 -17c-39.333 0 -76 12.5 -110 37.5s-61 58.833 -81 101.5s-30 88.667 -30 138c0 45.333 10.333 89 31 131s47.834 76.167 81.501 102.5s68.834 39.833 105.501 40.5
c70 2 127.667 -14 173 -48l-2 310zM344.998 178.5c16.667 10.333 30.1689 24 40.502 41s15.5 34.5 15.5 52.5c0 28 -10.833 52.5 -32.5 73.5s-46.834 31.5 -75.501 31.5c-27.333 0 -51.5 -10.5 -72.5 -31.5s-31.5 -45.833 -31.5 -74.5c0 -18 4.83301 -35.333 14.5 -52
s22.667 -30.167 39 -40.5s33.166 -15.5 50.499 -15.5c18 0 35.333 5.16699 52 15.5z" />
    <glyph glyph-name="e" unicode="e" horiz-adv-x="550" 
d="M472 464c46 -48.667 69.0029 -115 69.0029 -199c0 -14 -0.333008 -24.667 -1 -32l-354 -4c8 -22 19.167 -40.167 33.5 -54.5s31.166 -22.166 50.499 -23.499c53.333 -4 92 11.667 116 47l143 -41c-8.66699 -31.333 -25.334 -59.5 -50.001 -84.5
s-54.167 -44.5 -88.5 -58.5s-69.833 -21 -106.5 -21c-8.66699 0 -15.334 0.333008 -20.001 1c-46 3.33301 -88.5 18.333 -127.5 45s-70 61.667 -93 105s-34.5 90.666 -34.5 141.999c0 10 0.333008 17.667 1 23c2.66699 44 16.167 83.333 40.5 118s56.333 61.667 96 81
s83.5 29 131.5 29c83.333 0 148 -24.333 194 -73zM187.003 351l169 -1c-2.66699 19.333 -10.5 34.333 -23.5 45s-27.833 16.667 -44.5 18c-49.333 4 -83 -16.667 -101 -62z" />
    <glyph glyph-name="f" unicode="f" horiz-adv-x="527" 
d="M334.5 603.5c-9 -16.333 -14.5 -39.167 -16.5 -68.5l154 -2l-11 -180l-136 2l15 -353h-205l-4 356l-103 1l-19 180l120 -2l-1 69c-2.66699 67.333 16.166 117.666 56.499 150.999s94.166 50 161.499 50c34.667 0 66.834 -5 96.501 -15s54.834 -24.667 75.501 -44l-7 -142
c-2 1.33301 -12.667 7.5 -32 18.5s-43 16.5 -71 16.5c-13.333 0 -25 -1.66699 -35 -5c-16.667 -5.33301 -29.5 -16.166 -38.5 -32.499z" />
    <glyph glyph-name="g" unicode="g" horiz-adv-x="604" 
d="M595 532l-5.99902 -498.001c-0.666992 -32 -8.16699 -69.333 -22.5 -112s-41.5 -81.167 -81.5 -115.5s-95 -51.5 -165 -51.5c-59.333 0 -111.833 12.833 -157.5 38.5s-81.334 61.667 -107.001 108s-38.5 99.5 -38.5 159.5l185 -61
c0.666992 -23.333 10.834 -41.666 30.501 -54.999s42.5 -20 68.5 -20c47.333 0 79.833 15.5 97.5 46.5s26.167 65.5 25.5 103.5v14c-22.667 -15.333 -49.667 -28 -81 -38s-60.333 -15 -87 -15c-44.667 0 -86 10.167 -124 30.5s-68 48.333 -90 84s-33 75.5 -33 119.5
c0 45.333 11.5 89 34.5 131s53.833 76 92.5 102s79.667 39 123 39c32.667 0 64.167 -3.83301 94.5 -11.5s56.166 -18.167 77.499 -31.5l1 33h163zM350.001 217.999c19.333 20.667 29.001 44.667 29.001 72c0 28 -9.33301 51.333 -28 70s-41.667 28 -69 28
c-26.667 0 -48.5 -9.33301 -65.5 -28s-25.5 -42.667 -25.5 -72s8.5 -53.5 25.5 -72.5s38.167 -28.5 63.5 -28.5c27.333 0 50.666 10.333 69.999 31z" />
    <glyph glyph-name="h" unicode="h" horiz-adv-x="592" 
d="M398 0l0.00195312 280c0 28 -8.33301 50 -25 66s-39.334 24 -68.001 24c-47.333 0 -80 -24.667 -98 -74l4 -295l-188 3l-14 802h190l5 -335c20 22.667 46 41 78 55s64.333 21 97 21c61.333 0 110.166 -22.333 146.499 -67s54.833 -105 55.5 -181l2 -299h-185z" />
    <glyph glyph-name="i" unicode="i" horiz-adv-x="249" 
d="M71.5 586.5c-18.333 10.333 -33.334 24.5 -45.001 42.5s-17.5 37.333 -17.5 58c0 32 12.167 58.667 36.5 80s53.5 32 87.5 32c32 0 57.833 -9.66699 77.5 -29s29.5 -45 29.5 -77c0 -35.333 -10.667 -64.5 -32 -87.5s-48 -34.5 -80 -34.5
c-19.333 0 -38.166 5.16699 -56.499 15.5zM18.999 533h209v-530h-193z" />
    <glyph glyph-name="j" unicode="j" horiz-adv-x="409" 
d="M215 614.5c-21.333 22.333 -32.001 49.833 -32.001 82.5c0 32 10.333 58 31 78s48 30 82 30c32 0 57.333 -9.16699 76 -27.5s28 -43.5 28 -75.5c0 -33.333 -10.333 -61.833 -31 -85.5s-46.667 -35.5 -78 -35.5c-29.333 0 -54.666 11.167 -75.999 33.5zM8.99902 -207
l61.998 171c10 -8.66699 21.667 -13 35 -13c3.33301 0 9 0.666992 17 2c20.667 4.66699 35.834 16.5 45.501 35.5s15.667 41.5 18 67.5s3.83301 62.667 4.5 110v29l2 341l199 6l2 -382c0.666992 -89.333 -6.16602 -163.5 -20.499 -222.5s-39.333 -104.167 -75 -135.5
s-84.834 -47 -147.501 -47c-59.333 0 -106.666 12.667 -141.999 38z" />
    <glyph glyph-name="k" unicode="k" horiz-adv-x="574" 
d="M348 -10l-151 221l-1 -209l-187 -2v806l189 10l-1 -457l120 184l202 -13l-154 -240l200 -290z" />
    <glyph glyph-name="l" unicode="l" horiz-adv-x="361" 
d="M211 -8c-60.667 0 -109.668 19.668 -147.001 59.001s-55.666 94.666 -54.999 165.999l2 492l189 56l1 -492c0 -27.333 7.33301 -47.5 22 -60.5s31.667 -19.5 51 -19.5c14 0 25.333 3 34 9l44 -177c-50 -22 -97 -33 -141 -33z" />
    <glyph glyph-name="m" unicode="m" horiz-adv-x="828" 
d="M819 0h-194l-1 278c0 36.667 -4.16699 62 -12.5 76s-23.5 21 -45.5 21c-16.667 0 -30.167 -10.167 -40.5 -30.5s-15.5 -46.166 -15.5 -77.499l1 -19l-1 3v-248l-188 -2l-2 277c0 30.667 -5.66699 54.5 -17 71.5s-27.333 25.5 -48 25.5c-21.333 0 -37.666 -9 -48.999 -27
s-17 -43.667 -17 -77l1 -21l-1 2l8 -253h-188v527l172 6l1 -40c17.333 13.333 38.5 23.666 63.5 30.999s52.167 11 81.5 11c61.333 0 107.666 -15.667 138.999 -47c16.667 18.667 38.667 32 66 40s63 12 107 12c62 0 107.167 -24.5 135.5 -73.5s42.833 -128.167 43.5 -237.5
z" />
    <glyph glyph-name="n" unicode="n" horiz-adv-x="544" 
d="M494 492.5c28.667 -33 42.333 -79.502 41 -139.502l-6 -353h-183l1 235c0 48.667 -6.5 83.334 -19.5 104.001s-32.167 31 -57.5 31c-20.667 0 -38.5 -6 -53.5 -18s-24.167 -32.333 -27.5 -61l1 -291h-181v533l179 3v-51c25.333 16.667 55 30.334 89 41.001
s67.333 16 100 16c49.333 0 88.333 -16.5 117 -49.5z" />
    <glyph glyph-name="o" unicode="o" horiz-adv-x="582" 
d="M149 35c-43.333 26 -77.5 60.833 -102.5 104.5s-37.5 90.167 -37.5 139.5c0 54.667 14.167 102 42.5 142s64 70.333 107 91s86.5 31 130.5 31c57.333 0 107.333 -10.833 150 -32.5s75.667 -52.5 99 -92.5s35 -86.667 35 -140c0 -52.667 -12.333 -100.5 -37 -143.5
s-58.5 -76.833 -101.5 -101.5s-90.5 -37 -142.5 -37s-99.667 13 -143 39zM367.5 193c18.333 18 27.5 42.667 27.5 74c0 30 -8.66699 55.333 -26 76s-43 31 -77 31c-30 0 -54.833 -10 -74.5 -30s-29.5 -44.667 -29.5 -74c0 -30 10.333 -54.833 31 -74.5s47 -29.5 79 -29.5
c28 0 51.167 9 69.5 27z" />
    <glyph glyph-name="p" unicode="p" horiz-adv-x="560" 
d="M496 469.5c36.667 -47 55 -106.833 55 -179.5c0 -51.333 -9.5 -98.5 -28.5 -141.5s-45.833 -77 -80.5 -102s-75 -37.5 -121 -37.5c-49.333 0 -90.333 9 -123 27l9 -275h-198v773l163 -1l7 -53c23.333 19.333 50.666 35 81.999 47s60 17.667 86 17
c62.667 -2.66699 112.334 -27.5 149.001 -74.5zM365.5 198c16.333 17.333 24.5 41 24.5 71c0 31.333 -9 56.5 -27 75.5s-41.667 28.5 -71 28.5c-28.667 0 -52.5 -9 -71.5 -27s-28.5 -40.667 -28.5 -68c0 -28.667 10.833 -53.5 32.5 -74.5s47.167 -31.5 76.5 -31.5
c26.667 0 48.167 8.66699 64.5 26z" />
    <glyph glyph-name="q" unicode="q" horiz-adv-x="594" 
d="M585 537l-0.000976562 -776.001h-193l9 289c-21.333 -15.333 -46.833 -27.666 -76.5 -36.999s-62.167 -14 -97.5 -14c-37.333 0 -72.666 12.5 -105.999 37.5s-60.333 58.333 -81 100s-31 85.834 -31 132.501c0 50 11.5 95.667 34.5 137s54.667 74.166 95 98.499
s84.833 36.5 133.5 36.5c27.333 0 54 -5.5 80 -16.5s49.333 -26.833 70 -47.5l10 53zM364.499 193.499c21.667 21.667 32.498 47.167 32.498 76.5c0 28 -9.66699 51.167 -29 69.5s-43.666 27.5 -72.999 27.5c-18.667 0 -35.667 -5.66699 -51 -17
s-27.166 -25.5 -35.499 -42.5s-12.5 -32.5 -12.5 -46.5c0 -30 8.16699 -54.167 24.5 -72.5s38.166 -27.5 65.499 -27.5c30.667 0 56.834 10.833 78.501 32.5z" />
    <glyph glyph-name="r" unicode="r" horiz-adv-x="463" 
d="M394 520.5c22.667 -11.667 42.667 -28.167 60 -49.5l-69 -155c-19.333 26.667 -45.666 40 -78.999 40c-36 0 -62.833 -12.833 -80.5 -38.5s-27.834 -67.5 -30.501 -125.5v-192h-186v533h186v-46c18 16 38.5 28.5 61.5 37.5s45.833 13.5 68.5 13.5
c23.333 0 46.333 -5.83301 69 -17.5z" />
    <glyph glyph-name="s" unicode="s" horiz-adv-x="486" 
d="M407 349c-30 16.667 -56.6689 28.833 -80.002 36.5s-45.666 11.5 -66.999 11.5c-20 0 -36.5 -3 -49.5 -9s-19.5 -13.667 -19.5 -23c0 -16.667 23.333 -25 70 -25c68 0 121 -13.333 159 -40s57 -63.667 57 -111c0 -36 -11.167 -69.167 -33.5 -99.5
s-52.333 -54.5 -90 -72.5s-78.834 -27 -123.501 -27c-44 0 -86 8.16699 -126 24.5s-71.667 38.166 -95 65.499l101 114c16 -14 34.333 -24.833 55 -32.5s41.667 -11.5 63 -11.5c20.667 0 38.167 3.5 52.5 10.5s21.5 15.5 21.5 25.5c0 8 -4.66699 13.667 -14 17s-25 5 -47 5
c-4 -0.666992 -10 -1 -18 -1c-33.333 0 -64.833 7.5 -94.5 22.5s-53.5 35.167 -71.5 60.5s-27 52.666 -27 81.999c0 30.667 10.333 59.334 31 86.001s48.334 48.167 83.001 64.5s71.334 24.5 110.001 24.5s77.5 -7.66699 116.5 -23s74.5 -36.666 106.5 -63.999z" />
    <glyph glyph-name="t" unicode="t" horiz-adv-x="462" 
d="M453 84c-22 -32.667 -48.834 -56.832 -80.501 -72.499s-70.167 -23.5 -115.5 -23.5c-60.667 0 -106 15.5 -136 46.5s-45 80.833 -45 149.5c0 19.333 1.66699 44.666 5 75.999l14 115h-79l-7 158l106 2l14 117l178 9l-14 -124l112 2l19 -163h-150l-10 -90
c-1.33301 -12 -2 -20.667 -2 -26c0 -26.667 5 -47.667 15 -63s23.333 -23 40 -23s31.334 3.66699 44.001 11s26.667 20.333 42 39z" />
    <glyph glyph-name="u" unicode="u" horiz-adv-x="561" 
d="M552 534l0.00195312 -529h-190v49c-16.667 -19.333 -38 -34.5 -64 -45.5s-54 -16.5 -84 -16.5c-68.667 0 -120.334 22.833 -155.001 68.5s-51.334 112.5 -50.001 200.5l3 275h185l-1 -265c0 -28 6.83301 -49.5 20.5 -64.5s33.167 -22.5 58.5 -22.5
c27.333 0 48.833 10.833 64.5 32.5s23.5 49.167 23.5 82.5v-1l1 236h188z" />
    <glyph glyph-name="v" unicode="v" horiz-adv-x="519" 
d="M510 533l-144 -533h-243l-114 534h192l54 -305l62 304h193z" />
    <glyph glyph-name="w" unicode="w" horiz-adv-x="840" 
d="M831 536l-136 -536h-187l-81 275l-95 -275h-217l-106 532l204 6l49 -224l89 219l165 1l75 -223l38 225h202z" />
    <glyph glyph-name="x" unicode="x" horiz-adv-x="587" 
d="M403 261l173 -247l-207 -14l-70 102l-67 -102l-223 2l181 261l-172 253l193 20l85 -121l82 118l200 -7z" />
    <glyph glyph-name="y" unicode="y" horiz-adv-x="615" 
d="M595 545l-139.999 -523.001c-24.667 -85.333 -60.834 -151.166 -108.501 -197.499s-103.167 -69.5 -166.5 -69.5c-26.667 0 -55.167 4 -85.5 12s-58.833 18.667 -85.5 32l45 187c12.667 -10.667 31.667 -20 57 -28s46.333 -12 63 -12c30 0 53 12.667 69 38l-223 545
l196 5l102 -296l77 298z" />
    <glyph glyph-name="z" unicode="z" horiz-adv-x="487" 
d="M478 0h-463l-5 142l198 240h-183v154h426l18 -154l-184 -226l181 9z" />
    <glyph glyph-name="braceleft" unicode="{" horiz-adv-x="384" 
d="M154.5 -116.5c-25.667 20.333 -42.3311 47.499 -49.998 81.499s-11.834 80.667 -12.501 140c-0.666992 28.667 -2.33398 51 -5.00098 67s-10.334 29.667 -23.001 41s-32.667 17 -60 17v180c23.333 1.33301 41 4.83301 53 10.5s20.667 15 26 28s8 31.833 8 56.5l-2 111
c0 59.333 18 105.5 54 138.5s89.333 49.5 160 49.5c29.333 0 54.333 -1.66699 75 -5l-21 -149c-11.333 2 -21.666 3 -30.999 3c-28 0 -50.833 -7.83301 -68.5 -23.5s-26.5 -35.5 -26.5 -59.5l1 -52l2 -63c0 -24 -5.16699 -47.667 -15.5 -71s-26.166 -43.333 -47.499 -60
c48.667 -31.333 73 -85.666 73 -162.999l-1 -34c-0.666992 -6.66699 -1 -17.667 -1 -33c0 -28 6.5 -50 19.5 -66s35.167 -24 66.5 -24c13.333 0 23.666 0.666992 30.999 2l21 -146l-35 -3c-28 -2.66699 -52 -4 -72 -4c-53.333 0 -92.833 10.167 -118.5 30.5z" />
    <glyph glyph-name="braceright" unicode="}" horiz-adv-x="384" 
d="M39 -143l-34.9961 3.00098l21 146c7.33301 -1.33301 17.666 -2 30.999 -2c31.333 0 53.5 8 66.5 24s19.5 38 19.5 66c0 15.333 -0.333008 26.333 -1 33l-1 34c0 77.333 24.333 131.666 73 162.999c-21.333 16.667 -37.166 36.667 -47.499 60s-15.5 47 -15.5 71l2 63l1 52
c0 24 -8.83301 43.833 -26.5 59.5s-40.5 23.5 -68.5 23.5c-10 0 -20.333 -1 -31 -3l-21 149c20.667 3.33301 45.667 5 75 5c70.667 0 124 -16.5 160 -49.5s54 -79.167 54 -138.5l-2 -111c0 -24.667 2.66699 -43.5 8 -56.5s14 -22.333 26 -28s29.667 -9.16699 53 -10.5v-180
c-27.333 0 -47.333 -5.66699 -60 -17s-20.334 -25 -23.001 -41s-4.33398 -38.333 -5.00098 -67c-0.666992 -59.333 -4.83398 -106 -12.501 -140s-24.334 -61.167 -50.001 -81.5s-65.167 -30.5 -118.5 -30.5c-20 0 -44 1.33301 -72 4z" />
    <glyph glyph-name="asciitilde" unicode="~" horiz-adv-x="407" 
d="M257.5 655.5c-11.667 4.33301 -25.502 10.499 -41.502 18.499c-10 5.33301 -20.167 10 -30.5 14s-18.833 6 -25.5 6c-19.333 0 -32.666 -13.333 -39.999 -40l-111 11c4.66699 50.667 19.167 87.5 43.5 110.5s52.5 34.5 84.5 34.5c12 0 24 -2 36 -6s27 -10 45 -18
c2 -0.666992 8.83301 -3.5 20.5 -8.5s21.5 -7.5 29.5 -7.5c16.667 0 26.667 12.333 30 37l100 -11c-8 -45.333 -21.667 -81.166 -41 -107.499s-41.666 -39.5 -66.999 -39.5c-10 0 -20.833 2.16699 -32.5 6.5z" />
    <glyph glyph-name="exclamdown" unicode="&#xa1;" horiz-adv-x="251" 
d="M208.5 499.5c22.333 -24.333 33.5 -54.166 33.5 -89.499c0 -32.667 -10 -58.5 -30 -77.5s-46.667 -28.5 -80 -28.5c-36 0 -65.5 10.5 -88.5 31.5s-34.5 47.833 -34.5 80.5c0 21.333 5.33301 41.166 16 59.499s25.167 33 43.5 44s37.833 16.5 58.5 16.5
c32 0 59.167 -12.167 81.5 -36.5zM230 270l4 -498h-219l18 506z" />
    <glyph glyph-name="cent" unicode="&#xa2;" horiz-adv-x="556" 
d="M340.5 185c15.667 10 26.834 22.666 33.501 37.999l166 -16c0 -38 -13.333 -74 -40 -108s-61 -60.667 -103 -80l9 -102l-211 16l-5 77c-53.333 20 -96.833 54.167 -130.5 102.5s-50.5 101.833 -50.5 160.5c0 55.333 14.833 105.333 44.5 150s68.5 77.334 116.5 98.001
l-6 88l206 9v-93c48.667 -17.333 89.5 -44.5 122.5 -81.5s49.5 -77.833 49.5 -122.5l-168 -15c-6 19.333 -16.833 34.833 -32.5 46.5s-33.167 17.5 -52.5 17.5c-26.667 0 -50.5 -9.83301 -71.5 -29.5s-31.5 -42.167 -31.5 -67.5c0 -16.667 5 -33 15 -49s23.167 -29 39.5 -39
s33.166 -15 50.499 -15s33.833 5 49.5 15z" />
    <glyph glyph-name="sterling" unicode="&#xa3;" horiz-adv-x="639" 
d="M401 169l228.997 4.99902v-174h-621l14 161l115 2c-25.333 34.667 -43 76.667 -53 126l-62 1l5 156l53 1c9.33301 56 29 108.333 59 157s67.333 87.834 112 117.501s93.334 44.5 146.001 44.5c42.667 0 84.5 -9.33301 125.5 -28s76.5 -44.667 106.5 -78l-99 -137
c-30.667 34 -64.667 51 -102 51c-31.333 0 -56.166 -11.167 -74.499 -33.5s-30.166 -51.833 -35.499 -88.5l169 4v-175l-155 3c16 -50 38.667 -88.333 68 -115z" />
    <glyph glyph-name="currency" unicode="&#xa4;" horiz-adv-x="632" 
d="M565 131l51.001 -57.999l-96 -96l-53 59c-40.667 -22 -84.667 -33 -132 -33c-56 0 -106 15.667 -150 47l-82 -67l-83 100l81 60c-22.667 40 -34 83 -34 129c0 39.333 8.66699 76.333 26 111l-84 65l96 96l81 -63c22.667 14 46.667 24.5 72 31.5s50.333 10.5 75 10.5
c55.333 0 103.666 -10.667 144.999 -32l70 53l75 -98l-53 -44c21.333 -37.333 32 -81 32 -131c0 -50.667 -12.333 -97.334 -37 -140.001zM266.001 192.501c19.333 -18.333 44.333 -27.5 75 -27.5c26.667 0 48.667 8.5 66 25.5s26 40.5 26 70.5
c0 28 -8.16699 51.833 -24.5 71.5s-40.833 29.5 -73.5 29.5c-28 0 -51.333 -9.5 -70 -28.5s-28 -42.5 -28 -70.5c0 -28.667 9.66699 -52.167 29 -70.5z" />
    <glyph glyph-name="yen" unicode="&#xa5;" horiz-adv-x="742" 
d="M620 74h-150v-75h-200v75h-132l-16 112h147v39l-152 4l15 120l131 -4l-254 332l210 87l159 -232l155 232l200 -49l-252 -376l104 -3l29 -119l-145 3v-34h128z" />
    <glyph glyph-name="section" unicode="&#xa7;" horiz-adv-x="462" 
d="M107 21c-39.333 17.333 -71.9971 40.333 -97.9971 69l100 123c16 -17.333 34.5 -31 55.5 -41s42.5 -15 64.5 -15c22.667 0 39.167 1.33301 49.5 4s15.5 9 15.5 19c0 6.66699 -2.33301 10.667 -7 12s-15.667 2.66602 -33 3.99902c-9.33301 0 -17 0.333008 -23 1
c-40 2 -75.333 11.333 -106 28s-54.334 38.667 -71.001 66s-25 57.333 -25 90c0 38 11.667 71.667 35 101c-23.333 30 -35 63.667 -35 101c0 34 9.33301 64.833 28 92.5s44.167 49.5 76.5 65.5s68.5 24 108.5 24c38.667 0 76.334 -7.66699 113.001 -23
s68.667 -36.666 96 -63.999l-83 -121c-43.333 34.667 -86.333 52 -129 52c-20.667 0 -37.167 -2 -49.5 -6s-18.5 -10.333 -18.5 -19c0 -6 3.66699 -9.83301 11 -11.5s22.666 -3.5 45.999 -5.5c9.33301 0 16.666 -0.333008 21.999 -1c64 -4 113.833 -21.167 149.5 -51.5
s53.5 -69.5 53.5 -117.5c0 -40 -11.333 -75.333 -34 -106c22.667 -27.333 34 -59.666 34 -96.999c0 -36 -10.167 -69.333 -30.5 -100s-47.833 -54.834 -82.5 -72.501s-72.334 -26.5 -113.001 -26.5s-80.667 8.66699 -120 26zM288.003 359.5c12.667 6.33301 19 14.5 19 24.5
c0 9.33301 -5.83301 16.666 -17.5 21.999s-27.834 8 -48.501 8c-21.333 0 -38.166 -2.66699 -50.499 -8s-18.5 -12.666 -18.5 -21.999c0 -10 6.33301 -18.167 19 -24.5s28.667 -9.5 48 -9.5c20 0 36.333 3.16699 49 9.5z" />
    <glyph glyph-name="dieresis" unicode="&#xa8;" horiz-adv-x="324" 
d="M28 698.5c-12.667 13.667 -19 29.834 -19 48.501c0 17.333 6.66699 32.166 20 44.499s29.333 18.5 48 18.5c18 0 33.167 -6 45.5 -18s18.5 -27.333 18.5 -46s-6.33301 -34.667 -19 -48s-27.667 -20 -45 -20c-20 0 -36.333 6.83301 -49 20.5zM201 698
c-12 13.333 -18 29.668 -18 49.001c0 17.333 6.66699 32.166 20 44.499s29.333 18.5 48 18.5c18 0 33.167 -6 45.5 -18s18.5 -27.333 18.5 -46s-6.33301 -34.667 -19 -48s-27.667 -20 -45 -20c-21.333 0 -38 6.66699 -50 20z" />
    <glyph glyph-name="copyright" unicode="&#xa9;" 
d="M195.5 45c-58.333 34 -104.001 80.667 -137.001 140s-49.5 125.666 -49.5 198.999c0 66.667 16.333 128.834 49 186.501s78.5 103.667 137.5 138s126.167 51.5 201.5 51.5c68.667 0 131.5 -15.5 188.5 -46.5s102.333 -74.667 136 -131s50.5 -121.166 50.5 -194.499
c0 -76 -16 -143.833 -48 -203.5s-76.667 -106.334 -134 -140.001s-122.666 -50.5 -195.999 -50.5c-74 0 -140.167 17 -198.5 51zM519.999 154c39.333 23.333 70.332 55.498 92.999 96.498s34 86.833 34 137.5c0 44.667 -11 86 -33 124s-52.167 68.333 -90.5 91
s-80.5 34 -126.5 34c-48 0 -92.167 -11.667 -132.5 -35s-72.166 -54.5 -95.499 -93.5s-35 -80.5 -35 -124.5c0 -51.333 11.167 -97.166 33.5 -137.499s52.833 -71.666 91.5 -93.999s82 -33.5 130 -33.5s91.667 11.667 131 35zM305.998 215.498
c-26.667 17 -47.9971 40.002 -63.9971 69.002s-24 60.167 -24 93.5s8.16699 64 24.5 92s38.5 50 66.5 66s58.667 24 92 24c39.333 0 73.166 -10.833 101.499 -32.5s48.5 -51.834 60.5 -90.501l-94 -33c-4.66699 13.333 -13.834 24.666 -27.501 33.999s-28.167 14 -43.5 14
c-19.333 0 -36.5 -7.33301 -51.5 -22s-22.5 -31.667 -22.5 -51s7.5 -36.333 22.5 -51s32.5 -22 52.5 -22c14.667 0 28.167 3.83301 40.5 11.5s21.166 17.5 26.499 29.5l91 -34c-3.33301 -21.333 -13 -41.5 -29 -60.5s-36 -34.167 -60 -45.5s-49 -17 -75 -17
c-31.333 0 -60.333 8.5 -87 25.5z" />
    <glyph glyph-name="guillemotleft" unicode="&#xab;" horiz-adv-x="356" 
d="M19 198l-10 79l128 157l49 -98l-69 -96l69 -92l-39 -98zM179 196l-9 78l127 158l50 -99l-69 -91l69 -95l-40 -98z" />
    <glyph glyph-name="registered" unicode="&#xae;" horiz-adv-x="308" 
d="M225.5 748c22.333 -12 40.166 -28.6689 53.499 -50.002s20 -44.666 20 -69.999s-6.83301 -49.333 -20.5 -72s-32 -41 -55 -55s-47.833 -21 -74.5 -21c-26 0 -49.667 6.83301 -71 20.5s-38.166 31.667 -50.499 54s-18.5 45.833 -18.5 70.5
c0 25.333 6.66699 48.833 20 70.5s31 38.834 53 51.501s45.333 19 70 19c26.667 0 51.167 -6 73.5 -18zM217.5 559.998c19.667 18.667 29.5 41.332 29.5 67.999c0 24.667 -9.66699 45.167 -29 61.5s-41.333 24.5 -66 24.5c-27.333 0 -49.333 -7.83301 -66 -23.5
s-25 -37.5 -25 -65.5c0 -27.333 8.33301 -49.666 25 -66.999s37.667 -26 63 -26c26 0 48.833 9.33301 68.5 28zM176 606.996c5.33301 -11.333 12.667 -17.001 22 -17.001v-36c-12 0 -23.5 4.5 -34.5 13.5s-18.5 19.5 -22.5 31.5h-3v-32h-36v120
c4 2.66699 9.5 4.83398 16.5 6.50098s13.833 2.5 20.5 2.5c20 0 35 -4.5 45 -13.5s15 -21.167 15 -36.5c0 -17.333 -7.66699 -30.333 -23 -39zM154.001 639.995c4.66699 2.66699 7 5.99902 7 9.99902c0 4.66699 -1.5 8.33398 -4.5 11.001s-6.83301 4 -11.5 4
c-2.66699 0 -5 -0.333008 -7 -1v-28c6 0 11.333 1.33301 16 4z" />
    <glyph glyph-name="degree" unicode="&#xb0;" horiz-adv-x="284" 
d="M75.5 582c-20.333 11.333 -36.499 26.666 -48.499 45.999s-18 40.333 -18 63c0 33.333 12.833 61.5 38.5 84.5s57.5 34.5 95.5 34.5c37.333 0 68.666 -11.5 93.999 -34.5s38 -51.167 38 -84.5c0 -22.667 -6 -43.667 -18 -63s-28.167 -34.666 -48.5 -45.999
s-42.5 -17 -66.5 -17s-46.167 5.66699 -66.5 17zM176.501 654.5c10.333 11 15.5 23.5 15.5 37.5c0 12 -5.16699 22.5 -15.5 31.5s-22.166 13.5 -35.499 13.5c-14 0 -26.167 -4.33301 -36.5 -13s-15.5 -19 -15.5 -31c0 -14 5.33301 -26.667 16 -38s22.667 -17 36 -17
s25.166 5.5 35.499 16.5z" />
    <glyph glyph-name="plusminus" unicode="&#xb1;" horiz-adv-x="568" 
d="M192 364l-171 4l-12 186l186 -3l3 179l174 -11l2 -170l185 -3l-13 -190l-169 4l2 -167l-190 -13zM546 158l13 -158h-529v158h516z" />
    <glyph glyph-name="acute" unicode="&#xb4;" horiz-adv-x="264" 
d="M9 678l90 128l156 -46l-106 -96z" />
    <glyph glyph-name="cedilla" unicode="&#xb8;" horiz-adv-x="187" 
d="M31.5 -151c-17 16 -24.166 35.665 -21.499 58.998l56 2c1.33301 -17.333 9.66602 -26.666 24.999 -27.999c7.33301 0 13.333 2.5 18 7.5s7 11.5 7 19.5c0 8.66699 -3.33301 15.334 -10 20.001s-16.334 7 -29.001 7c-7.33301 0 -28 -2 -62 -6l13 91l70 6l-9 -40
c25.333 2 46.5 -4 63.5 -18s25.5 -32.667 25.5 -56c0 -25.333 -7.66699 -46.333 -23 -63s-35.666 -25 -60.999 -25c-24.667 0 -45.5 8 -62.5 24z" />
    <glyph glyph-name="guillemotright" unicode="&#xbb;" horiz-adv-x="353" 
d="M177 208l-128 -147l-40 98l85 94l-85 92l50 99l127 -158zM344 287l-10 -79l-128 -148l-39 98l81 96l-81 92l49 98z" />
    <glyph glyph-name="questiondown" unicode="&#xbf;" horiz-adv-x="505" 
d="M365 505c21.333 -23.333 32.001 -50.667 32.001 -82c0 -21.333 -5.5 -40.833 -16.5 -58.5s-25.333 -31.5 -43 -41.5s-36.5 -15 -56.5 -15c-28.667 0 -53.167 10 -73.5 30s-30.5 47 -30.5 81s10.167 62.667 30.5 86s46.166 35 77.499 35c32 0 58.667 -11.667 80 -35z
M207.001 298.999l158.002 -13.001v-199c-26.667 8 -50.334 12 -71.001 12c-32 0 -57.5 -7.33301 -76.5 -22s-28.5 -34 -28.5 -58c0 -22.667 7.33301 -41.167 22 -55.5s33 -21.5 55 -21.5c23.333 0 43.5 8.16699 60.5 24.5s26.167 36.5 27.5 60.5l132 -54
c-3.33301 -37.333 -16.333 -71.5 -39 -102.5s-51.5 -55.5 -86.5 -73.5s-72.167 -27 -111.5 -27c-50 0 -94 11.333 -132 34s-67.167 54.334 -87.5 95.001s-30.5 86.667 -30.5 138c0 34 10.167 66.833 30.5 98.5s46.666 57.167 78.999 76.5s65.833 29 100.5 29z" />
    <glyph glyph-name="Agrave" unicode="&#xc0;" 
d="M384 802l-106 96l156 46l90 -128zM527 167l-254 1l-64 -159l-200 82l328 669l200 -2l235 -710l-200 -48zM473 367l-48 180l-72 -179z" />
    <glyph glyph-name="Aacute" unicode="&#xc1;" 
d="M488 806l-140 14l90 128l156 -46zM527 167l-254 1l-64 -159l-200 82l328 669l200 -2l235 -710l-200 -48zM473 367l-48 180l-72 -179z" />
    <glyph glyph-name="Acircumflex" unicode="&#xc2;" 
d="M397 795h-128l98 99h140l89 -99l-125 -1l-37 52zM527 167l-254 1l-64 -159l-200 82l328 669l200 -2l235 -710l-200 -48zM473 367l-48 180l-72 -179z" />
    <glyph glyph-name="Atilde" unicode="&#xc3;" 
d="M340 796l-111.002 10.999c4.66699 50.667 19.167 87.5 43.5 110.5s52.5 34.5 84.5 34.5c12 0 24 -2 36 -6s27 -10 45 -18c2 -0.666992 8.83301 -3.5 20.5 -8.5s21.5 -7.5 29.5 -7.5c16.667 0 26.667 12.333 30 37l100 -11c-8 -45.333 -21.667 -81.166 -41 -107.499
s-41.666 -39.5 -66.999 -39.5c-10 0 -20.833 2.16699 -32.5 6.5s-25.5 10.5 -41.5 18.5c-10 5.33301 -20.167 10 -30.5 14s-18.833 6 -25.5 6c-19.333 0 -32.666 -13.333 -39.999 -40zM526.998 166.999l-254 1l-64 -159l-200 82l328 669l200 -2l235 -710l-200 -48z
M472.998 366.999l-48 180l-72 -179z" />
    <glyph glyph-name="Adieresis" unicode="&#xc4;" 
d="M527 167l-254 1l-64 -159l-200 82l328 669l200 -2l235 -710l-200 -48zM473 367l-48 180l-72 -179zM303 824.5c-12.667 13.667 -19 29.834 -19 48.501c0 17.333 6.66699 32.166 20 44.499s29.333 18.5 48 18.5c18 0 33.167 -6 45.5 -18s18.5 -27.333 18.5 -46
s-6.33301 -34.667 -19 -48s-27.667 -20 -45 -20c-20 0 -36.333 6.83301 -49 20.5zM476 824c-12 13.333 -18 29.668 -18 49.001c0 17.333 6.66699 32.166 20 44.499s29.333 18.5 48 18.5c18 0 33.167 -6 45.5 -18s18.5 -27.333 18.5 -46s-6.33301 -34.667 -19 -48
s-27.667 -20 -45 -20c-21.333 0 -38 6.66699 -50 20z" />
    <glyph glyph-name="Aring" unicode="&#xc5;" 
d="M527 167l-254.001 1l-64 -159l-200 82l325 663c-24 25.333 -36 53.666 -36 84.999c0 22 6.33301 43.333 19 64s29.667 37.334 51 50.001s44.333 19 69 19c24 0 46.5 -6 67.5 -18s37.833 -28.167 50.5 -48.5s19 -41.833 19 -64.5c0 -16 -3.16699 -31.5 -9.5 -46.5
s-15.166 -28.5 -26.499 -40.5l234 -706l-200 -48zM401.999 871.5c-8.66699 -8.33301 -12.998 -18.833 -12.998 -31.5s4.16699 -23 12.5 -31s19.166 -12 32.499 -12s24.166 4 32.499 12s12.5 18.333 12.5 31s-4.16699 23.167 -12.5 31.5s-19.166 12.5 -32.499 12.5
c-12.667 0 -23.334 -4.16699 -32.001 -12.5zM473.001 367l-48 180l-72 -179z" />
    <glyph glyph-name="AE" unicode="&#xc6;" horiz-adv-x="1120" 
d="M1111 213v-200l-528 -12l-6 177h-251l-99 -169l-218 82l471 669l605 18l14 -200l-335 -4l5 -96l277 18l10 -200l-276 -10l5 -86zM571 361l-8 220l-133 -226z" />
    <glyph glyph-name="Ccedilla" unicode="&#xc7;" horiz-adv-x="725" 
d="M452 211c24 12 43.834 26.8311 59.501 44.498s25.834 34.5 30.501 50.5l163 -56c-7.33301 -43.333 -25.333 -83.333 -54 -120s-64.5 -66.834 -107.5 -90.501s-88.5 -38.5 -136.5 -44.5l-5 -22c25.333 2 46.5 -4 63.5 -18s25.5 -32.667 25.5 -56
c0 -25.333 -7.66699 -46.333 -23 -63s-35.666 -25 -60.999 -25c-24.667 0 -45.5 8 -62.5 24s-24.167 35.667 -21.5 59l56 2c1.33301 -17.333 9.66602 -26.666 24.999 -27.999c7.33301 0 13.333 2.5 18 7.5s7 11.5 7 19.5c0 8.66699 -3.33301 15.334 -10 20.001
s-16.334 7 -29.001 7c-7.33301 0 -28 -2 -62 -6l11 78c-62 4.66699 -119 25.334 -171 62.001s-93.167 83.834 -123.5 141.501s-45.5 119.167 -45.5 184.5c0 70 17 134.167 51 192.5s80.167 104.666 138.5 138.999s121.833 51.5 190.5 51.5c50 0 98.167 -9.5 144.5 -28.5
s86.5 -47.833 120.5 -86.5s58 -85.667 72 -141l-174 -53c-10 28.667 -30 54 -60 76s-65.333 33 -106 33c-50.667 0 -92.834 -15.5 -126.501 -46.5s-50.5 -75.833 -50.5 -134.5c0 -39.333 8 -73.5 24 -102.5s37.333 -51 64 -66s55.667 -22.5 87 -22.5c28 0 54 6 78 18z" />
    <glyph glyph-name="Egrave" unicode="&#xc8;" horiz-adv-x="572" 
d="M226 801l-106 96l156 46l90 -128zM563 212v-200l-528 -12l-26 760l528 17l14 -200l-338 -4l4 -79l281 6l10 -200l-279 -6l5 -95z" />
    <glyph glyph-name="Eacute" unicode="&#xc9;" horiz-adv-x="572" 
d="M304 809l-140 14l90 128l156 -46zM563 212v-200l-528 -12l-26 760l528 17l14 -200l-338 -4l4 -79l281 6l10 -200l-279 -6l5 -95z" />
    <glyph glyph-name="Ecircumflex" unicode="&#xca;" horiz-adv-x="572" 
d="M248 802h-128l98 99h140l89 -99l-125 -1l-37 52zM563 212v-200l-528 -12l-26 760l528 17l14 -200l-338 -4l4 -79l281 6l10 -200l-279 -6l5 -95z" />
    <glyph glyph-name="Edieresis" unicode="&#xcb;" horiz-adv-x="572" 
d="M148 812.5c-12.667 13.667 -19 29.834 -19 48.501c0 17.333 6.66699 32.166 20 44.499s29.333 18.5 48 18.5c18 0 33.167 -6 45.5 -18s18.5 -27.333 18.5 -46s-6.33301 -34.667 -19 -48s-27.667 -20 -45 -20c-20 0 -36.333 6.83301 -49 20.5zM321 812
c-12 13.333 -18 29.668 -18 49.001c0 17.333 6.66699 32.166 20 44.499s29.333 18.5 48 18.5c18 0 33.167 -6 45.5 -18s18.5 -27.333 18.5 -46s-6.33301 -34.667 -19 -48s-27.667 -20 -45 -20c-21.333 0 -38 6.66699 -50 20zM563 212.002v-200l-528 -12l-26 760l528 17
l14 -200l-338 -4l4 -79l281 6l10 -200l-279 -6l5 -95z" />
    <glyph glyph-name="Igrave" unicode="&#xcc;" horiz-adv-x="218" 
d="M10 842l106 46l65 -88l-90 -14zM15 760h194l-6 -760h-194z" />
    <glyph glyph-name="Iacute" unicode="&#xcd;" horiz-adv-x="218" 
d="M49 804l44 86l96 -39l-60 -54zM15 760h194l-6 -760h-194z" />
    <glyph glyph-name="Icircumflex" unicode="&#xce;" horiz-adv-x="218" 
d="M87 795h-88l65 111h96l58 -110l-86 -2l-23 56zM15 760h194l-6 -760h-194z" />
    <glyph glyph-name="Idieresis" unicode="&#xcf;" horiz-adv-x="218" 
d="M21 792c-9.33301 10 -14 22.334 -14 37.001s4.66699 26.5 14 35.5s21.333 13.5 36 13.5c14 0 25 -4.33301 33 -13s12 -20.334 12 -35.001c0 -15.333 -4.33301 -28 -13 -38s-19.667 -15 -33 -15c-14 0 -25.667 5 -35 15zM129.5 791.501
c-9 9.66699 -13.502 21.502 -13.502 35.502c0 15.333 4.33301 27.666 13 36.999s20.334 14 35.001 14s26.167 -4.33301 34.5 -13s12.5 -20.334 12.5 -35.001c0 -15.333 -4.66699 -28 -14 -38s-20.666 -15 -33.999 -15s-24.5 4.83301 -33.5 14.5zM14.998 760.003h194l-6 -760
h-194z" />
    <glyph glyph-name="Eth" unicode="&#xd0;" horiz-adv-x="726" 
d="M474.5 711c73 -36.667 131.834 -86.833 176.501 -150.5s67 -134.5 67 -212.5c0 -119.333 -43.333 -208.333 -130 -267s-203.334 -88 -350.001 -88c-58.667 0 -116.667 3.33301 -174 10l3 276l-58 -2l13 198l47 -3l3 256c30.667 13.333 59.5 23 86.5 29s55.833 9 86.5 9
c80 0 156.5 -18.333 229.5 -55zM501.001 379.001c0 34 -9.5 63.667 -28.5 89s-43.667 44.833 -74 58.5s-61.5 20.5 -93.5 20.5c-16.667 0 -30.667 -1.33301 -42 -4v-82l89 -5l-24 -169l-65 -2v-81c158.667 -3.33301 238 55 238 175z" />
    <glyph glyph-name="Ntilde" unicode="&#xd1;" horiz-adv-x="730" 
d="M279 807l-111.002 10.999c4.66699 50.667 19.167 87.5 43.5 110.5s52.5 34.5 84.5 34.5c12 0 24 -2 36 -6s27 -10 45 -18c2 -0.666992 8.83301 -3.5 20.5 -8.5s21.5 -7.5 29.5 -7.5c16.667 0 26.667 12.333 30 37l100 -11c-8 -45.333 -21.667 -81.166 -41 -107.499
s-41.666 -39.5 -66.999 -39.5c-10 0 -20.833 2.16699 -32.5 6.5s-25.5 10.5 -41.5 18.5c-10 5.33301 -20.167 10 -30.5 14s-18.833 6 -25.5 6c-19.333 0 -32.666 -13.333 -39.999 -40zM720.998 771.999l-6 -772h-194l-315 425l4 -424l-194 -7l-7 781l194 -8l321 -421l3 419z
" />
    <glyph glyph-name="Ograve" unicode="&#xd2;" horiz-adv-x="801" 
d="M224 903l156 46l90 -128l-140 -14zM209 47.5c-60.667 36.333 -109.167 84.335 -145.5 144.002s-54.5 123.167 -54.5 190.5s18.167 130.5 54.5 189.5s84.833 106 145.5 141s125.334 52.5 194.001 52.5c68 0 132 -17.5 192 -52.5s107.833 -81.833 143.5 -140.5
s53.5 -122 53.5 -190c0 -68.667 -17.833 -132.834 -53.5 -192.501s-83.5 -107.334 -143.5 -143.001s-124 -53.5 -192 -53.5c-68.667 0 -133.334 18.167 -194.001 54.5zM494.5 218.002c29.667 16.667 53.334 39.335 71.001 68.002s26.5 60.667 26.5 96
c0 34.667 -8.83301 66 -26.5 94s-41.5 49.833 -71.5 65.5s-63.333 23.5 -100 23.5c-34.667 0 -66.167 -7.83301 -94.5 -23.5s-50.5 -37.334 -66.5 -65.001s-24 -58.834 -24 -93.501c0 -36 8.16699 -68.5 24.5 -97.5s38.666 -51.667 66.999 -68s60.5 -24.5 96.5 -24.5
c35.333 0 67.833 8.33301 97.5 25z" />
    <glyph glyph-name="Oacute" unicode="&#xd3;" horiz-adv-x="801" 
d="M290 820l90 128l156 -46l-106 -96zM209 47.5c-60.667 36.333 -109.167 84.335 -145.5 144.002s-54.5 123.167 -54.5 190.5s18.167 130.5 54.5 189.5s84.833 106 145.5 141s125.334 52.5 194.001 52.5c68 0 132 -17.5 192 -52.5s107.833 -81.833 143.5 -140.5
s53.5 -122 53.5 -190c0 -68.667 -17.833 -132.834 -53.5 -192.501s-83.5 -107.334 -143.5 -143.001s-124 -53.5 -192 -53.5c-68.667 0 -133.334 18.167 -194.001 54.5zM494.5 218.002c29.667 16.667 53.334 39.335 71.001 68.002s26.5 60.667 26.5 96
c0 34.667 -8.83301 66 -26.5 94s-41.5 49.833 -71.5 65.5s-63.333 23.5 -100 23.5c-34.667 0 -66.167 -7.83301 -94.5 -23.5s-50.5 -37.334 -66.5 -65.001s-24 -58.834 -24 -93.501c0 -36 8.16699 -68.5 24.5 -97.5s38.666 -51.667 66.999 -68s60.5 -24.5 96.5 -24.5
c35.333 0 67.833 8.33301 97.5 25z" />
    <glyph glyph-name="Ocircumflex" unicode="&#xd4;" horiz-adv-x="801" 
d="M367 804h-128l98 99h140l89 -99l-125 -1l-37 52zM595 712.5c60 -35 107.833 -81.8311 143.5 -140.498s53.5 -122 53.5 -190c0 -68.667 -17.833 -132.834 -53.5 -192.501s-83.5 -107.334 -143.5 -143.001s-124 -53.5 -192 -53.5c-68.667 0 -133.334 18.167 -194.001 54.5
s-109.167 84.333 -145.5 144s-54.5 123.167 -54.5 190.5s18.167 130.5 54.5 189.5s84.833 106 145.5 141s125.334 52.5 194.001 52.5c68 0 132 -17.5 192 -52.5zM494.5 218.002c29.667 16.667 53.334 39.335 71.001 68.002s26.5 60.667 26.5 96
c0 34.667 -8.83301 66 -26.5 94s-41.5 49.833 -71.5 65.5s-63.333 23.5 -100 23.5c-34.667 0 -66.167 -7.83301 -94.5 -23.5s-50.5 -37.334 -66.5 -65.001s-24 -58.834 -24 -93.501c0 -36 8.16699 -68.5 24.5 -97.5s38.666 -51.667 66.999 -68s60.5 -24.5 96.5 -24.5
c35.333 0 67.833 8.33301 97.5 25z" />
    <glyph glyph-name="Otilde" unicode="&#xd5;" horiz-adv-x="801" 
d="M455.5 797.5c-11.667 4.33301 -25.502 10.499 -41.502 18.499c-10 5.33301 -20.167 10 -30.5 14s-18.833 6 -25.5 6c-19.333 0 -32.666 -13.333 -39.999 -40l-111 11c4.66699 50.667 19.167 87.5 43.5 110.5s52.5 34.5 84.5 34.5c12 0 24 -2 36 -6s27 -10 45 -18
c2 -0.666992 8.83301 -3.5 20.5 -8.5s21.5 -7.5 29.5 -7.5c16.667 0 26.667 12.333 30 37l100 -11c-8 -45.333 -21.667 -81.166 -41 -107.499s-41.666 -39.5 -66.999 -39.5c-10 0 -20.833 2.16699 -32.5 6.5zM208.998 47.499c-60.667 36.333 -109.167 84.335 -145.5 144.002
s-54.5 123.167 -54.5 190.5s18.167 130.5 54.5 189.5s84.833 106 145.5 141s125.334 52.5 194.001 52.5c68 0 132 -17.5 192 -52.5s107.833 -81.833 143.5 -140.5s53.5 -122 53.5 -190c0 -68.667 -17.833 -132.834 -53.5 -192.501s-83.5 -107.334 -143.5 -143.001
s-124 -53.5 -192 -53.5c-68.667 0 -133.334 18.167 -194.001 54.5zM494.498 218.001c29.667 16.667 53.334 39.335 71.001 68.002s26.5 60.667 26.5 96c0 34.667 -8.83301 66 -26.5 94s-41.5 49.833 -71.5 65.5s-63.333 23.5 -100 23.5
c-34.667 0 -66.167 -7.83301 -94.5 -23.5s-50.5 -37.334 -66.5 -65.001s-24 -58.834 -24 -93.501c0 -36 8.16699 -68.5 24.5 -97.5s38.666 -51.667 66.999 -68s60.5 -24.5 96.5 -24.5c35.333 0 67.833 8.33301 97.5 25z" />
    <glyph glyph-name="Odieresis" unicode="&#xd6;" horiz-adv-x="801" 
d="M267 821.5c-12.667 13.667 -19 29.834 -19 48.501c0 17.333 6.66699 32.166 20 44.499s29.333 18.5 48 18.5c18 0 33.167 -6 45.5 -18s18.5 -27.333 18.5 -46s-6.33301 -34.667 -19 -48s-27.667 -20 -45 -20c-20 0 -36.333 6.83301 -49 20.5zM440 821
c-12 13.333 -18 29.668 -18 49.001c0 17.333 6.66699 32.166 20 44.499s29.333 18.5 48 18.5c18 0 33.167 -6 45.5 -18s18.5 -27.333 18.5 -46s-6.33301 -34.667 -19 -48s-27.667 -20 -45 -20c-21.333 0 -38 6.66699 -50 20zM209 47.502
c-60.667 36.333 -109.167 84.335 -145.5 144.002s-54.5 123.167 -54.5 190.5s18.167 130.5 54.5 189.5s84.833 106 145.5 141s125.334 52.5 194.001 52.5c68 0 132 -17.5 192 -52.5s107.833 -81.833 143.5 -140.5s53.5 -122 53.5 -190
c0 -68.667 -17.833 -132.834 -53.5 -192.501s-83.5 -107.334 -143.5 -143.001s-124 -53.5 -192 -53.5c-68.667 0 -133.334 18.167 -194.001 54.5zM494.5 218.004c29.667 16.667 53.334 39.335 71.001 68.002s26.5 60.667 26.5 96c0 34.667 -8.83301 66 -26.5 94
s-41.5 49.833 -71.5 65.5s-63.333 23.5 -100 23.5c-34.667 0 -66.167 -7.83301 -94.5 -23.5s-50.5 -37.334 -66.5 -65.001s-24 -58.834 -24 -93.501c0 -36 8.16699 -68.5 24.5 -97.5s38.666 -51.667 66.999 -68s60.5 -24.5 96.5 -24.5c35.333 0 67.833 8.33301 97.5 25z" />
    <glyph glyph-name="multiply" unicode="&#xd7;" horiz-adv-x="670" 
d="M327 239l-175 -167l-143 137l164 145l-156 160l149 142l165 -161l179 172l151 -136l-187 -169l164 -160l-134 -150z" />
    <glyph glyph-name="Oslash" unicode="&#xd8;" horiz-adv-x="810" 
d="M739 586c40.667 -63.333 61.0039 -128.998 61.0039 -196.998s-17.833 -131.833 -53.5 -191.5s-83.334 -107.334 -143.001 -143.001s-123.834 -53.5 -192.501 -53.5c-56.667 0 -111.667 13.667 -165 41l-60 -66l-177 162l62 67c-36 59.333 -54 120.666 -54 183.999
c0 67.333 18.167 130.5 54.5 189.5s84.666 106 144.999 141s125.166 52.5 194.499 52.5c51.333 0 101.333 -11.333 150 -34l46 50l194 -133zM197.004 342.002l225.001 244.999c-2.66699 0.666992 -7.33398 1 -14.001 1c-36.667 0 -71.5 -9.66699 -104.5 -29
s-59.667 -45 -80 -77s-30.5 -65.333 -30.5 -100c0 -15.333 1.33301 -28.666 4 -39.999zM595.005 428.001l-220.002 -244h13c36.667 0 71.334 9.33301 104.001 28s58.834 43.5 78.501 74.5s29.5 64.167 29.5 99.5c0 12.667 -1.66699 26.667 -5 42z" />
    <glyph glyph-name="Ugrave" unicode="&#xd9;" horiz-adv-x="660" 
d="M168 846l156 46l90 -128l-140 -14zM160 45c-48.667 36.667 -85.998 89.499 -111.998 158.499s-39 150.5 -39 244.5c0 110 13.333 214 40 312l215 -52c-6.66699 -31.333 -12 -65.5 -16 -102.5s-8.33301 -83.833 -13 -140.5l-3 -29c0 -164 33.667 -246 101 -246
c66 0 99 80.333 99 241c0 27.333 -4.33301 69 -13 125s-19.667 109.333 -33 160l212 60c35.333 -98.667 53 -213.667 53 -345c0 -89.333 -13 -167.166 -39 -233.499s-62.833 -117.5 -110.5 -153.5s-103.834 -54 -168.501 -54c-66.667 0 -124.334 18.333 -173.001 55z" />
    <glyph glyph-name="Uacute" unicode="&#xda;" horiz-adv-x="660" 
d="M223 763l90 128l156 -46l-106 -96zM160 45c-48.667 36.667 -85.998 89.499 -111.998 158.499s-39 150.5 -39 244.5c0 110 13.333 214 40 312l215 -52c-6.66699 -31.333 -12 -65.5 -16 -102.5s-8.33301 -83.833 -13 -140.5l-3 -29c0 -164 33.667 -246 101 -246
c66 0 99 80.333 99 241c0 27.333 -4.33301 69 -13 125s-19.667 109.333 -33 160l212 60c35.333 -98.667 53 -213.667 53 -345c0 -89.333 -13 -167.166 -39 -233.499s-62.833 -117.5 -110.5 -153.5s-103.834 -54 -168.501 -54c-66.667 0 -124.334 18.333 -173.001 55z" />
    <glyph glyph-name="Ucircumflex" unicode="&#xdb;" horiz-adv-x="660" 
d="M300 763h-107l82 80h117l75 -80l-105 -1l-31 42zM651 431c0 -89.333 -12.998 -167.167 -38.998 -233.5s-62.833 -117.5 -110.5 -153.5s-103.834 -54 -168.501 -54c-66.667 0 -124.334 18.333 -173.001 55s-86 89.5 -112 158.5s-39 150.5 -39 244.5
c0 110 13.333 214 40 312l215 -52c-6.66699 -31.333 -12 -65.5 -16 -102.5s-8.33301 -83.833 -13 -140.5l-3 -29c0 -164 33.667 -246 101 -246c66 0 99 80.333 99 241c0 27.333 -4.33301 69 -13 125s-19.667 109.333 -33 160l212 60c35.333 -98.667 53 -213.667 53 -345z
" />
    <glyph glyph-name="Udieresis" unicode="&#xdc;" horiz-adv-x="660" 
d="M196 789.5c-12.667 13.667 -19 29.834 -19 48.501c0 17.333 6.66699 32.166 20 44.499s29.333 18.5 48 18.5c18 0 33.167 -6 45.5 -18s18.5 -27.333 18.5 -46s-6.33301 -34.667 -19 -48s-27.667 -20 -45 -20c-20 0 -36.333 6.83301 -49 20.5zM369 789
c-12 13.333 -18 29.668 -18 49.001c0 17.333 6.66699 32.166 20 44.499s29.333 18.5 48 18.5c18 0 33.167 -6 45.5 -18s18.5 -27.333 18.5 -46s-6.33301 -34.667 -19 -48s-27.667 -20 -45 -20c-21.333 0 -38 6.66699 -50 20zM160 45.002
c-48.667 36.667 -85.998 89.499 -111.998 158.499s-39 150.5 -39 244.5c0 110 13.333 214 40 312l215 -52c-6.66699 -31.333 -12 -65.5 -16 -102.5s-8.33301 -83.833 -13 -140.5l-3 -29c0 -164 33.667 -246 101 -246c66 0 99 80.333 99 241c0 27.333 -4.33301 69 -13 125
s-19.667 109.333 -33 160l212 60c35.333 -98.667 53 -213.667 53 -345c0 -89.333 -13 -167.166 -39 -233.499s-62.833 -117.5 -110.5 -153.5s-103.834 -54 -168.501 -54c-66.667 0 -124.334 18.333 -173.001 55z" />
    <glyph glyph-name="Yacute" unicode="&#xdd;" horiz-adv-x="742" 
d="M426 768l-140 14l90 128l156 -46zM469 321l1 -322h-200l-1 339l-260 339l210 87l159 -232l155 232l200 -49z" />
    <glyph glyph-name="Thorn" unicode="&#xde;" horiz-adv-x="651" 
d="M205 -77h-196.001l3 836h208l-1 -107c26 4.66699 53.667 7 83 7c62 0 118.833 -12.167 170.5 -36.5s92.834 -59.166 123.501 -104.499s46 -98.333 46 -159c0 -66.667 -15.833 -125.334 -47.5 -176.001s-75.167 -89.667 -130.5 -117s-117 -41 -185 -41
c-27.333 0 -51.333 1.66699 -72 5zM210.999 231c7.33301 -1.33301 18.667 -1.99902 34 -1.99902c46 0 84.5 11.667 115.5 35s45.5 55 43.5 95c-2.66699 39.333 -16.167 69.666 -40.5 90.999s-56.833 32 -97.5 32c-14 0 -31 -1.66699 -51 -5z" />
    <glyph glyph-name="germandbls" unicode="&#xdf;" horiz-adv-x="564" 
d="M9 725c70 26 137.663 39.001 202.996 39.001c57.333 0 108.5 -9.83301 153.5 -29.5s80 -46.5 105 -80.5s37.5 -71.667 37.5 -113c0 -34 -8 -64.5 -24 -91.5s-36 -45.167 -60 -54.5c38 -7.33301 69.333 -26.833 94 -58.5s37 -72.5 37 -122.5
c0 -36.667 -8.66699 -72 -26 -106s-42.666 -61.5 -75.999 -82.5s-72.666 -31.5 -117.999 -31.5c-34.667 0 -69.667 6 -105 18l7 154c16 -4.66699 31.667 -7 47 -7c28.667 0 51.834 7.66699 69.501 23s26.5 33.333 26.5 54c0 25.333 -10.167 46.166 -30.5 62.499
s-52.166 24.5 -95.499 24.5l-5 113c32 0 57.5 8.33301 76.5 25s28.5 37.667 28.5 63c0 26 -10.667 46 -32 60s-46 21 -74 21s-49.667 -7 -65 -21v-585h-174v726z" />
    <glyph glyph-name="agrave" unicode="&#xe0;" horiz-adv-x="595" 
d="M240 578l-106 96l156 46l90 -128zM403 0l-1.00098 47.001c-18 -15.333 -40.333 -27.666 -67 -36.999s-54 -14 -82 -14c-44 0 -84.667 12.167 -122 36.5s-67 57.166 -89 98.499s-33 86.666 -33 135.999c0 50 11.333 95.667 34 137s53.834 73.833 93.501 97.5
s83.5 35.5 131.5 35.5c26 0 50.5 -4.33301 73.5 -13s41.5 -20.667 55.5 -36v43h166l23 -531h-183zM336.999 177.001c16 10.667 28.666 24.835 37.999 42.502s14 36.5 14 56.5c0 27.333 -8.83301 50.166 -26.5 68.499s-39.834 27.5 -66.501 27.5
c-29.333 0 -55 -10.333 -77 -31s-33 -45.334 -33 -74.001c0 -17.333 4.83301 -34.333 14.5 -51s22.334 -30 38.001 -40s31.834 -15 48.501 -15c17.333 0 34 5.33301 50 16z" />
    <glyph glyph-name="aacute" unicode="&#xe1;" horiz-adv-x="595" 
d="M330 562l-140 14l90 128l156 -46zM403 0l-1.00098 47.001c-18 -15.333 -40.333 -27.666 -67 -36.999s-54 -14 -82 -14c-44 0 -84.667 12.167 -122 36.5s-67 57.166 -89 98.499s-33 86.666 -33 135.999c0 50 11.333 95.667 34 137s53.834 73.833 93.501 97.5
s83.5 35.5 131.5 35.5c26 0 50.5 -4.33301 73.5 -13s41.5 -20.667 55.5 -36v43h166l23 -531h-183zM336.999 177.001c16 10.667 28.666 24.835 37.999 42.502s14 36.5 14 56.5c0 27.333 -8.83301 50.166 -26.5 68.499s-39.834 27.5 -66.501 27.5
c-29.333 0 -55 -10.333 -77 -31s-33 -45.334 -33 -74.001c0 -17.333 4.83301 -34.333 14.5 -51s22.334 -30 38.001 -40s31.834 -15 48.501 -15c17.333 0 34 5.33301 50 16z" />
    <glyph glyph-name="acircumflex" unicode="&#xe2;" horiz-adv-x="595" 
d="M289 572h-128l98 99h140l89 -99l-125 -1l-37 52zM403 0l-1.00098 47.001c-18 -15.333 -40.333 -27.666 -67 -36.999s-54 -14 -82 -14c-44 0 -84.667 12.167 -122 36.5s-67 57.166 -89 98.499s-33 86.666 -33 135.999c0 50 11.333 95.667 34 137
s53.834 73.833 93.501 97.5s83.5 35.5 131.5 35.5c26 0 50.5 -4.33301 73.5 -13s41.5 -20.667 55.5 -36v43h166l23 -531h-183zM336.999 177.001c16 10.667 28.666 24.835 37.999 42.502s14 36.5 14 56.5c0 27.333 -8.83301 50.166 -26.5 68.499s-39.834 27.5 -66.501 27.5
c-29.333 0 -55 -10.333 -77 -31s-33 -45.334 -33 -74.001c0 -17.333 4.83301 -34.333 14.5 -51s22.334 -30 38.001 -40s31.834 -15 48.501 -15c17.333 0 34 5.33301 50 16z" />
    <glyph glyph-name="atilde" unicode="&#xe3;" horiz-adv-x="595" 
d="M214 574l-111.002 10.999c4.66699 50.667 19.167 87.5 43.5 110.5s52.5 34.5 84.5 34.5c12 0 24 -2 36 -6s27 -10 45 -18c2 -0.666992 8.83301 -3.5 20.5 -8.5s21.5 -7.5 29.5 -7.5c16.667 0 26.667 12.333 30 37l100 -11c-8 -45.333 -21.667 -81.166 -41 -107.499
s-41.666 -39.5 -66.999 -39.5c-10 0 -20.833 2.16699 -32.5 6.5s-25.5 10.5 -41.5 18.5c-10 5.33301 -20.167 10 -30.5 14s-18.833 6 -25.5 6c-19.333 0 -32.666 -13.333 -39.999 -40zM402.998 -0.000976562l-1.00098 47.001c-18 -15.333 -40.333 -27.666 -67 -36.999
s-54 -14 -82 -14c-44 0 -84.667 12.167 -122 36.5s-67 57.166 -89 98.499s-33 86.666 -33 135.999c0 50 11.333 95.667 34 137s53.834 73.833 93.501 97.5s83.5 35.5 131.5 35.5c26 0 50.5 -4.33301 73.5 -13s41.5 -20.667 55.5 -36v43h166l23 -531h-183zM336.997 177
c16 10.667 28.666 24.835 37.999 42.502s14 36.5 14 56.5c0 27.333 -8.83301 50.166 -26.5 68.499s-39.834 27.5 -66.501 27.5c-29.333 0 -55 -10.333 -77 -31s-33 -45.334 -33 -74.001c0 -17.333 4.83301 -34.333 14.5 -51s22.334 -30 38.001 -40s31.834 -15 48.501 -15
c17.333 0 34 5.33301 50 16z" />
    <glyph glyph-name="adieresis" unicode="&#xe4;" horiz-adv-x="595" 
d="M183 590.5c-12.667 13.667 -19 29.834 -19 48.501c0 17.333 6.66699 32.166 20 44.499s29.333 18.5 48 18.5c18 0 33.167 -6 45.5 -18s18.5 -27.333 18.5 -46s-6.33301 -34.667 -19 -48s-27.667 -20 -45 -20c-20 0 -36.333 6.83301 -49 20.5zM356 590
c-12 13.333 -18 29.668 -18 49.001c0 17.333 6.66699 32.166 20 44.499s29.333 18.5 48 18.5c18 0 33.167 -6 45.5 -18s18.5 -27.333 18.5 -46s-6.33301 -34.667 -19 -48s-27.667 -20 -45 -20c-21.333 0 -38 6.66699 -50 20zM403 0.00195312l-1.00098 47.001
c-18 -15.333 -40.333 -27.666 -67 -36.999s-54 -14 -82 -14c-44 0 -84.667 12.167 -122 36.5s-67 57.166 -89 98.499s-33 86.666 -33 135.999c0 50 11.333 95.667 34 137s53.834 73.833 93.501 97.5s83.5 35.5 131.5 35.5c26 0 50.5 -4.33301 73.5 -13
s41.5 -20.667 55.5 -36v43h166l23 -531h-183zM336.999 177.003c16 10.667 28.666 24.835 37.999 42.502s14 36.5 14 56.5c0 27.333 -8.83301 50.166 -26.5 68.499s-39.834 27.5 -66.501 27.5c-29.333 0 -55 -10.333 -77 -31s-33 -45.334 -33 -74.001
c0 -17.333 4.83301 -34.333 14.5 -51s22.334 -30 38.001 -40s31.834 -15 48.501 -15c17.333 0 34 5.33301 50 16z" />
    <glyph glyph-name="aring" unicode="&#xe5;" horiz-adv-x="595" 
d="M232 570.5c-21.333 11.667 -38.667 27.499 -52 47.499s-20 41.667 -20 65c0 22 6.33301 43.333 19 64s29.667 37.334 51 50.001s44.333 19 69 19c24 0 46.5 -6 67.5 -18s37.833 -28.167 50.5 -48.5s19 -41.833 19 -64.5c0 -24 -6.5 -46 -19.5 -66s-30.167 -36 -51.5 -48
s-44 -18 -68 -18c-22 0 -43.667 5.83301 -65 17.5zM263.999 715.499c-8.66699 -8.33301 -12.998 -18.833 -12.998 -31.5s4.16699 -23 12.5 -31s19.166 -12 32.499 -12s24.166 4 32.499 12s12.5 18.333 12.5 31s-4.16699 23.167 -12.5 31.5s-19.166 12.5 -32.499 12.5
c-12.667 0 -23.334 -4.16699 -32.001 -12.5zM403.001 -0.000976562l-1.00098 47.001c-18 -15.333 -40.333 -27.666 -67 -36.999s-54 -14 -82 -14c-44 0 -84.667 12.167 -122 36.5s-67 57.166 -89 98.499s-33 86.666 -33 135.999c0 50 11.333 95.667 34 137
s53.834 73.833 93.501 97.5s83.5 35.5 131.5 35.5c26 0 50.5 -4.33301 73.5 -13s41.5 -20.667 55.5 -36v43h166l23 -531h-183zM337 177c16 10.667 28.666 24.835 37.999 42.502s14 36.5 14 56.5c0 27.333 -8.83301 50.166 -26.5 68.499s-39.834 27.5 -66.501 27.5
c-29.333 0 -55 -10.333 -77 -31s-33 -45.334 -33 -74.001c0 -17.333 4.83301 -34.333 14.5 -51s22.334 -30 38.001 -40s31.834 -15 48.501 -15c17.333 0 34 5.33301 50 16z" />
    <glyph glyph-name="ae" unicode="&#xe6;" horiz-adv-x="1015" 
d="M855 205l146 -31c-7.33301 -33.333 -23.5 -63.833 -48.5 -91.5s-55.667 -49.5 -92 -65.5s-73.833 -24 -112.5 -24c-30 0 -59 5.16699 -87 15.5s-53.667 24.833 -77 43.5l2 -52h-183l-1 47c-18 -15.333 -40.333 -27.666 -67 -36.999s-54 -14 -82 -14
c-44 0 -84.667 12.167 -122 36.5s-67 57.166 -89 98.499s-33 86.666 -33 135.999c0 50 11.333 95.667 34 137s53.834 73.833 93.501 97.5s83.5 35.5 131.5 35.5c26 0 50.5 -4.33301 73.5 -13s41.5 -20.667 55.5 -36v43h166l2 -53c24.667 18.667 52.667 33.167 84 43.5
s64.333 15.5 99 15.5c81.333 0 144.666 -25.667 189.999 -77s68 -121 68 -209l-352 -29c10 -21.333 22.667 -38.666 38 -51.999s32.333 -20 51 -20c54 0 91.333 18.333 112 55zM646 344l169 11c-3.33301 19.333 -11.833 33.833 -25.5 43.5s-29.167 14.5 -46.5 14.5
c-50 0 -82.333 -23 -97 -69zM337 177c16 10.667 28.666 24.835 37.999 42.502s14 36.5 14 56.5c0 27.333 -8.83301 50.166 -26.5 68.499s-39.834 27.5 -66.501 27.5c-29.333 0 -55 -10.333 -77 -31s-33 -45.334 -33 -74.001c0 -17.333 4.83301 -34.333 14.5 -51
s22.334 -30 38.001 -40s31.834 -15 48.501 -15c17.333 0 34 5.33301 50 16z" />
    <glyph glyph-name="ccedilla" unicode="&#xe7;" horiz-adv-x="551" 
d="M340.5 185c15.667 10 26.835 22.6641 33.502 37.9971l166 -16c0 -34 -11 -66.5 -33 -97.5s-50.833 -57 -86.5 -78s-73.167 -33.5 -112.5 -37.5l-4 -16c25.333 2 46.5 -4 63.5 -18s25.5 -32.667 25.5 -56c0 -25.333 -7.66699 -46.333 -23 -63s-35.666 -25 -60.999 -25
c-24.667 0 -45.5 8 -62.5 24s-24.167 35.667 -21.5 59l56 2c1.33301 -17.333 9.66602 -26.666 24.999 -27.999c7.33301 0 13.333 2.5 18 7.5s7 11.5 7 19.5c0 8.66699 -3.33301 15.334 -10 20.001s-16.334 7 -29.001 7c-7.33301 0 -28 -2 -62 -6l11 75
c-42.667 6.66699 -81.667 23.334 -117 50.001s-63.333 60 -84 100s-31 82.333 -31 127c0 49.333 11.833 94.5 35.5 135.5s55.667 73.5 96 97.5s84.833 36 133.5 36c43.333 0 85.833 -10 127.5 -30s75.5 -47 101.5 -81s39 -70.667 39 -110l-168 -15
c-6 19.333 -16.833 34.833 -32.5 46.5s-33.167 17.5 -52.5 17.5c-26.667 0 -50.5 -9.83301 -71.5 -29.5s-31.5 -42.167 -31.5 -67.5c0 -16.667 5 -33 15 -49s23.167 -29 39.5 -39s33.166 -15 50.499 -15s33.833 5 49.5 15z" />
    <glyph glyph-name="egrave" unicode="&#xe8;" horiz-adv-x="550" 
d="M218 568l-106 96l156 46l90 -128zM472 464c46 -48.667 69.0029 -115 69.0029 -199c0 -14 -0.333008 -24.667 -1 -32l-354 -4c8 -22 19.167 -40.167 33.5 -54.5s31.166 -22.166 50.499 -23.499c53.333 -4 92 11.667 116 47l143 -41
c-8.66699 -31.333 -25.334 -59.5 -50.001 -84.5s-54.167 -44.5 -88.5 -58.5s-69.833 -21 -106.5 -21c-8.66699 0 -15.334 0.333008 -20.001 1c-46 3.33301 -88.5 18.333 -127.5 45s-70 61.667 -93 105s-34.5 90.666 -34.5 141.999c0 10 0.333008 17.667 1 23
c2.66699 44 16.167 83.333 40.5 118s56.333 61.667 96 81s83.5 29 131.5 29c83.333 0 148 -24.333 194 -73zM187.003 351l169 -1c-2.66699 19.333 -10.5 34.333 -23.5 45s-27.833 16.667 -44.5 18c-49.333 4 -83 -16.667 -101 -62z" />
    <glyph glyph-name="eacute" unicode="&#xe9;" horiz-adv-x="550" 
d="M311 561l-140 14l90 128l156 -46zM472 464c46 -48.667 69.0029 -115 69.0029 -199c0 -14 -0.333008 -24.667 -1 -32l-354 -4c8 -22 19.167 -40.167 33.5 -54.5s31.166 -22.166 50.499 -23.499c53.333 -4 92 11.667 116 47l143 -41
c-8.66699 -31.333 -25.334 -59.5 -50.001 -84.5s-54.167 -44.5 -88.5 -58.5s-69.833 -21 -106.5 -21c-8.66699 0 -15.334 0.333008 -20.001 1c-46 3.33301 -88.5 18.333 -127.5 45s-70 61.667 -93 105s-34.5 90.666 -34.5 141.999c0 10 0.333008 17.667 1 23
c2.66699 44 16.167 83.333 40.5 118s56.333 61.667 96 81s83.5 29 131.5 29c83.333 0 148 -24.333 194 -73zM187.003 351l169 -1c-2.66699 19.333 -10.5 34.333 -23.5 45s-27.833 16.667 -44.5 18c-49.333 4 -83 -16.667 -101 -62z" />
    <glyph glyph-name="ecircumflex" unicode="&#xea;" horiz-adv-x="550" 
d="M242 568h-128l98 99h140l89 -99l-125 -1l-37 52zM472 464c46 -48.667 69.0029 -115 69.0029 -199c0 -14 -0.333008 -24.667 -1 -32l-354 -4c8 -22 19.167 -40.167 33.5 -54.5s31.166 -22.166 50.499 -23.499c53.333 -4 92 11.667 116 47l143 -41
c-8.66699 -31.333 -25.334 -59.5 -50.001 -84.5s-54.167 -44.5 -88.5 -58.5s-69.833 -21 -106.5 -21c-8.66699 0 -15.334 0.333008 -20.001 1c-46 3.33301 -88.5 18.333 -127.5 45s-70 61.667 -93 105s-34.5 90.666 -34.5 141.999c0 10 0.333008 17.667 1 23
c2.66699 44 16.167 83.333 40.5 118s56.333 61.667 96 81s83.5 29 131.5 29c83.333 0 148 -24.333 194 -73zM187.003 351l169 -1c-2.66699 19.333 -10.5 34.333 -23.5 45s-27.833 16.667 -44.5 18c-49.333 4 -83 -16.667 -101 -62z" />
    <glyph glyph-name="edieresis" unicode="&#xeb;" horiz-adv-x="550" 
d="M141 578.5c-12.667 13.667 -19 29.834 -19 48.501c0 17.333 6.66699 32.166 20 44.499s29.333 18.5 48 18.5c18 0 33.167 -6 45.5 -18s18.5 -27.333 18.5 -46s-6.33301 -34.667 -19 -48s-27.667 -20 -45 -20c-20 0 -36.333 6.83301 -49 20.5zM314 578
c-12 13.333 -18 29.668 -18 49.001c0 17.333 6.66699 32.166 20 44.499s29.333 18.5 48 18.5c18 0 33.167 -6 45.5 -18s18.5 -27.333 18.5 -46s-6.33301 -34.667 -19 -48s-27.667 -20 -45 -20c-21.333 0 -38 6.66699 -50 20zM472 464.002
c46 -48.667 69.0029 -115 69.0029 -199c0 -14 -0.333008 -24.667 -1 -32l-354 -4c8 -22 19.167 -40.167 33.5 -54.5s31.166 -22.166 50.499 -23.499c53.333 -4 92 11.667 116 47l143 -41c-8.66699 -31.333 -25.334 -59.5 -50.001 -84.5s-54.167 -44.5 -88.5 -58.5
s-69.833 -21 -106.5 -21c-8.66699 0 -15.334 0.333008 -20.001 1c-46 3.33301 -88.5 18.333 -127.5 45s-70 61.667 -93 105s-34.5 90.666 -34.5 141.999c0 10 0.333008 17.667 1 23c2.66699 44 16.167 83.333 40.5 118s56.333 61.667 96 81s83.5 29 131.5 29
c83.333 0 148 -24.333 194 -73zM187.003 351.002l169 -1c-2.66699 19.333 -10.5 34.333 -23.5 45s-27.833 16.667 -44.5 18c-49.333 4 -83 -16.667 -101 -62z" />
    <glyph glyph-name="igrave" unicode="&#xec;" horiz-adv-x="227" 
d="M26 612l106 46l65 -88l-90 -14zM9 533h209v-530h-193z" />
    <glyph glyph-name="iacute" unicode="&#xed;" horiz-adv-x="227" 
d="M44 564l44 86l96 -39l-60 -54zM9 533h209v-530h-193z" />
    <glyph glyph-name="icircumflex" unicode="&#xee;" horiz-adv-x="227" 
d="M97 555h-88l65 111h96l58 -110l-86 -2l-23 56zM9 533h209v-530h-193z" />
    <glyph glyph-name="idieresis" unicode="&#xef;" horiz-adv-x="227" 
d="M26 565c-9.33301 10 -14 22.334 -14 37.001s4.66699 26.5 14 35.5s21.333 13.5 36 13.5c14 0 25 -4.33301 33 -13s12 -20.334 12 -35.001c0 -15.333 -4.33301 -28 -13 -38s-19.667 -15 -33 -15c-14 0 -25.667 5 -35 15zM134.5 564.501
c-9 9.66699 -13.502 21.502 -13.502 35.502c0 15.333 4.33301 27.666 13 36.999s20.334 14 35.001 14s26.167 -4.33301 34.5 -13s12.5 -20.334 12.5 -35.001c0 -15.333 -4.66699 -28 -14 -38s-20.666 -15 -33.999 -15s-24.5 4.83301 -33.5 14.5zM8.99805 533.003h209v-530
h-193z" />
    <glyph glyph-name="eth" unicode="&#xf0;" horiz-adv-x="552" 
d="M500 455.5c28.667 -62.333 43.001 -125.499 43.001 -189.499c0 -14 -0.333008 -24.333 -1 -31v-1c0 -42 -12 -81.333 -36 -118s-56 -66 -96 -88s-83.333 -33 -130 -33s-90.834 11.667 -132.501 35s-75.167 54.166 -100.5 92.499s-38 78.833 -38 121.5
c0 40.667 11.333 78.5 34 113.5s53.334 63 92.001 84s81 31.833 127 32.5c-14.667 17.333 -26.667 30.666 -36 39.999l-53 -42l-98 65l59 56c-26.667 17.333 -46.334 29 -59.001 35l131 138c22.667 -14 44.667 -29 66 -45l68 64l122 -86l-86 -67
c54 -55.333 95.333 -114.166 124 -176.499zM342.501 185.001c19.667 15.333 29.501 33.667 29.501 55c0 23.333 -10.167 43.833 -30.5 61.5s-43.833 26.5 -70.5 26.5c-24.667 0 -45.667 -8.5 -63 -25.5s-26 -37.833 -26 -62.5c0 -22 8.66699 -40.5 26 -55.5
s38.666 -22.5 63.999 -22.5c27.333 0 50.833 7.66699 70.5 23z" />
    <glyph glyph-name="ntilde" unicode="&#xf1;" horiz-adv-x="544" 
d="M189 583l-111.002 10.999c4.66699 50.667 19.167 87.5 43.5 110.5s52.5 34.5 84.5 34.5c12 0 24 -2 36 -6s27 -10 45 -18c2 -0.666992 8.83301 -3.5 20.5 -8.5s21.5 -7.5 29.5 -7.5c16.667 0 26.667 12.333 30 37l100 -11c-8 -45.333 -21.667 -81.166 -41 -107.499
s-41.666 -39.5 -66.999 -39.5c-10 0 -20.833 2.16699 -32.5 6.5s-25.5 10.5 -41.5 18.5c-10 5.33301 -20.167 10 -30.5 14s-18.833 6 -25.5 6c-19.333 0 -32.666 -13.333 -39.999 -40zM493.998 492.499c28.667 -33 42.333 -79.502 41 -139.502l-6 -353h-183l1 235
c0 48.667 -6.5 83.334 -19.5 104.001s-32.167 31 -57.5 31c-20.667 0 -38.5 -6 -53.5 -18s-24.167 -32.333 -27.5 -61l1 -291h-181v533l179 3v-51c25.333 16.667 55 30.334 89 41.001s67.333 16 100 16c49.333 0 88.333 -16.5 117 -49.5z" />
    <glyph glyph-name="ograve" unicode="&#xf2;" horiz-adv-x="582" 
d="M118 663l156 46l90 -128l-140 -14zM149 35c-43.333 26 -77.5 60.833 -102.5 104.5s-37.5 90.167 -37.5 139.5c0 54.667 14.167 102 42.5 142s64 70.333 107 91s86.5 31 130.5 31c57.333 0 107.333 -10.833 150 -32.5s75.667 -52.5 99 -92.5s35 -86.667 35 -140
c0 -52.667 -12.333 -100.5 -37 -143.5s-58.5 -76.833 -101.5 -101.5s-90.5 -37 -142.5 -37s-99.667 13 -143 39zM367.5 193c18.333 18 27.5 42.667 27.5 74c0 30 -8.66699 55.333 -26 76s-43 31 -77 31c-30 0 -54.833 -10 -74.5 -30s-29.5 -44.667 -29.5 -74
c0 -30 10.333 -54.833 31 -74.5s47 -29.5 79 -29.5c28 0 51.167 9 69.5 27z" />
    <glyph glyph-name="oacute" unicode="&#xf3;" horiz-adv-x="582" 
d="M194 578l90 128l156 -46l-106 -96zM149 35c-43.333 26 -77.5 60.833 -102.5 104.5s-37.5 90.167 -37.5 139.5c0 54.667 14.167 102 42.5 142s64 70.333 107 91s86.5 31 130.5 31c57.333 0 107.333 -10.833 150 -32.5s75.667 -52.5 99 -92.5s35 -86.667 35 -140
c0 -52.667 -12.333 -100.5 -37 -143.5s-58.5 -76.833 -101.5 -101.5s-90.5 -37 -142.5 -37s-99.667 13 -143 39zM367.5 193c18.333 18 27.5 42.667 27.5 74c0 30 -8.66699 55.333 -26 76s-43 31 -77 31c-30 0 -54.833 -10 -74.5 -30s-29.5 -44.667 -29.5 -74
c0 -30 10.333 -54.833 31 -74.5s47 -29.5 79 -29.5c28 0 51.167 9 69.5 27z" />
    <glyph glyph-name="ocircumflex" unicode="&#xf4;" horiz-adv-x="582" 
d="M258 579h-128l98 99h140l89 -99l-125 -1l-37 52zM439 510.5c42.667 -21.667 75.667 -52.5 99 -92.5s35 -86.667 35 -140c0 -52.667 -12.333 -100.5 -37 -143.5s-58.5 -76.833 -101.5 -101.5s-90.5 -37 -142.5 -37s-99.667 13 -143 39s-77.5 60.833 -102.5 104.5
s-37.5 90.167 -37.5 139.5c0 54.667 14.167 102 42.5 142s64 70.333 107 91s86.5 31 130.5 31c57.333 0 107.333 -10.833 150 -32.5zM367.5 193c18.333 18 27.5 42.667 27.5 74c0 30 -8.66699 55.333 -26 76s-43 31 -77 31c-30 0 -54.833 -10 -74.5 -30
s-29.5 -44.667 -29.5 -74c0 -30 10.333 -54.833 31 -74.5s47 -29.5 79 -29.5c28 0 51.167 9 69.5 27z" />
    <glyph glyph-name="otilde" unicode="&#xf5;" horiz-adv-x="582" 
d="M345.5 572.5c-11.667 4.33301 -25.502 10.499 -41.502 18.499c-10 5.33301 -20.167 10 -30.5 14s-18.833 6 -25.5 6c-19.333 0 -32.666 -13.333 -39.999 -40l-111 11c4.66699 50.667 19.167 87.5 43.5 110.5s52.5 34.5 84.5 34.5c12 0 24 -2 36 -6s27 -10 45 -18
c2 -0.666992 8.83301 -3.5 20.5 -8.5s21.5 -7.5 29.5 -7.5c16.667 0 26.667 12.333 30 37l100 -11c-8 -45.333 -21.667 -81.166 -41 -107.499s-41.666 -39.5 -66.999 -39.5c-10 0 -20.833 2.16699 -32.5 6.5zM148.998 34.999c-43.333 26 -77.5 60.833 -102.5 104.5
s-37.5 90.167 -37.5 139.5c0 54.667 14.167 102 42.5 142s64 70.333 107 91s86.5 31 130.5 31c57.333 0 107.333 -10.833 150 -32.5s75.667 -52.5 99 -92.5s35 -86.667 35 -140c0 -52.667 -12.333 -100.5 -37 -143.5s-58.5 -76.833 -101.5 -101.5s-90.5 -37 -142.5 -37
s-99.667 13 -143 39zM367.498 192.999c18.333 18 27.5 42.667 27.5 74c0 30 -8.66699 55.333 -26 76s-43 31 -77 31c-30 0 -54.833 -10 -74.5 -30s-29.5 -44.667 -29.5 -74c0 -30 10.333 -54.833 31 -74.5s47 -29.5 79 -29.5c28 0 51.167 9 69.5 27z" />
    <glyph glyph-name="odieresis" unicode="&#xf6;" horiz-adv-x="582" 
d="M157 580.5c-12.667 13.667 -19 29.834 -19 48.501c0 17.333 6.66699 32.166 20 44.499s29.333 18.5 48 18.5c18 0 33.167 -6 45.5 -18s18.5 -27.333 18.5 -46s-6.33301 -34.667 -19 -48s-27.667 -20 -45 -20c-20 0 -36.333 6.83301 -49 20.5zM330 580
c-12 13.333 -18 29.668 -18 49.001c0 17.333 6.66699 32.166 20 44.499s29.333 18.5 48 18.5c18 0 33.167 -6 45.5 -18s18.5 -27.333 18.5 -46s-6.33301 -34.667 -19 -48s-27.667 -20 -45 -20c-21.333 0 -38 6.66699 -50 20zM149 35.002
c-43.333 26 -77.5 60.833 -102.5 104.5s-37.5 90.167 -37.5 139.5c0 54.667 14.167 102 42.5 142s64 70.333 107 91s86.5 31 130.5 31c57.333 0 107.333 -10.833 150 -32.5s75.667 -52.5 99 -92.5s35 -86.667 35 -140c0 -52.667 -12.333 -100.5 -37 -143.5
s-58.5 -76.833 -101.5 -101.5s-90.5 -37 -142.5 -37s-99.667 13 -143 39zM367.5 193.002c18.333 18 27.5 42.667 27.5 74c0 30 -8.66699 55.333 -26 76s-43 31 -77 31c-30 0 -54.833 -10 -74.5 -30s-29.5 -44.667 -29.5 -74c0 -30 10.333 -54.833 31 -74.5
s47 -29.5 79 -29.5c28 0 51.167 9 69.5 27z" />
    <glyph glyph-name="divide" unicode="&#xf7;" horiz-adv-x="394" 
d="M134.5 529.5c-16.333 19.667 -24.5 41.834 -24.5 66.501c0 23.333 7 45.166 21 65.499s36.333 30.5 67 30.5c30 0 53.167 -10 69.5 -30s24.5 -43.667 24.5 -71c0 -28 -8.5 -50.167 -25.5 -66.5s-38.5 -24.5 -64.5 -24.5c-28.667 0 -51.167 9.83301 -67.5 29.5zM9 463h376
v-164h-376v164zM156 92c-14 10.667 -25.001 23.834 -33.001 39.501s-12 30.167 -12 43.5c0 18 4.83301 34.167 14.5 48.5s21.834 25.333 36.501 33s29.667 11.5 45 11.5c12.667 0 25.667 -3.83301 39 -11.5s24.333 -18.334 33 -32.001s13 -28.5 13 -44.5
c0 -27.333 -8.66699 -51.5 -26 -72.5s-38.333 -31.5 -63 -31.5c-17.333 0 -33 5.33301 -47 16z" />
    <glyph glyph-name="oslash" unicode="&#xf8;" horiz-adv-x="621" 
d="M170 32l-49.002 -41.999l-112 131l44 37c-18.667 37.333 -28 75.333 -28 114c0 45.333 13 88.5 39 129.5s60.667 74 104 99s89.333 37.5 138 37.5c50.667 0 98.667 -13.667 144 -41l50 43l112 -131l-46 -40c15.333 -32.667 23 -66.334 23 -101.001
c0 -47.333 -13.167 -92.333 -39.5 -135s-61.166 -77 -104.499 -103s-88.666 -39 -135.999 -39c-48.667 0 -95 13.667 -139 41zM369.998 170.501c16.667 11 29.834 25.167 39.501 42.5s14.5 35.333 14.5 54s-4.83301 36.334 -14.5 53.001s-22.834 30.167 -39.501 40.5
s-35 15.5 -55 15.5s-39 -5.16699 -57 -15.5s-32.5 -23.833 -43.5 -40.5s-16.5 -34.334 -16.5 -53.001s5.33301 -36.667 16 -54s25 -31.5 43 -42.5s37.333 -16.5 58 -16.5c20 0 38.333 5.5 55 16.5z" />
    <glyph glyph-name="ugrave" unicode="&#xf9;" horiz-adv-x="561" 
d="M234 580l-106 96l156 46l90 -128zM552 534l0.00195312 -529h-190v49c-16.667 -19.333 -38 -34.5 -64 -45.5s-54 -16.5 -84 -16.5c-68.667 0 -120.334 22.833 -155.001 68.5s-51.334 112.5 -50.001 200.5l3 275h185l-1 -265c0 -28 6.83301 -49.5 20.5 -64.5
s33.167 -22.5 58.5 -22.5c27.333 0 48.833 10.833 64.5 32.5s23.5 49.167 23.5 82.5v-1l1 236h188z" />
    <glyph glyph-name="uacute" unicode="&#xfa;" horiz-adv-x="561" 
d="M338 574l-140 14l90 128l156 -46zM552 534l0.00195312 -529h-190v49c-16.667 -19.333 -38 -34.5 -64 -45.5s-54 -16.5 -84 -16.5c-68.667 0 -120.334 22.833 -155.001 68.5s-51.334 112.5 -50.001 200.5l3 275h185l-1 -265c0 -28 6.83301 -49.5 20.5 -64.5
s33.167 -22.5 58.5 -22.5c27.333 0 48.833 10.833 64.5 32.5s23.5 49.167 23.5 82.5v-1l1 236h188z" />
    <glyph glyph-name="ucircumflex" unicode="&#xfb;" horiz-adv-x="561" 
d="M253 573h-107l82 80h117l75 -80l-105 -1l-31 42zM552 534l0.00195312 -529h-190v49c-16.667 -19.333 -38 -34.5 -64 -45.5s-54 -16.5 -84 -16.5c-68.667 0 -120.334 22.833 -155.001 68.5s-51.334 112.5 -50.001 200.5l3 275h185l-1 -265c0 -28 6.83301 -49.5 20.5 -64.5
s33.167 -22.5 58.5 -22.5c27.333 0 48.833 10.833 64.5 32.5s23.5 49.167 23.5 82.5v-1l1 236h188z" />
    <glyph glyph-name="udieresis" unicode="&#xfc;" horiz-adv-x="561" 
d="M146 581.5c-12.667 13.667 -19 29.834 -19 48.501c0 17.333 6.66699 32.166 20 44.499s29.333 18.5 48 18.5c18 0 33.167 -6 45.5 -18s18.5 -27.333 18.5 -46s-6.33301 -34.667 -19 -48s-27.667 -20 -45 -20c-20 0 -36.333 6.83301 -49 20.5zM319 581
c-12 13.333 -18 29.668 -18 49.001c0 17.333 6.66699 32.166 20 44.499s29.333 18.5 48 18.5c18 0 33.167 -6 45.5 -18s18.5 -27.333 18.5 -46s-6.33301 -34.667 -19 -48s-27.667 -20 -45 -20c-21.333 0 -38 6.66699 -50 20zM552 534.002l0.00195312 -529h-190v49
c-16.667 -19.333 -38 -34.5 -64 -45.5s-54 -16.5 -84 -16.5c-68.667 0 -120.334 22.833 -155.001 68.5s-51.334 112.5 -50.001 200.5l3 275h185l-1 -265c0 -28 6.83301 -49.5 20.5 -64.5s33.167 -22.5 58.5 -22.5c27.333 0 48.833 10.833 64.5 32.5s23.5 49.167 23.5 82.5
v-1l1 236h188z" />
    <glyph glyph-name="yacute" unicode="&#xfd;" horiz-adv-x="615" 
d="M350 577l-140 14l90 128l156 -46zM595 545l-139.999 -523.001c-24.667 -85.333 -60.834 -151.166 -108.501 -197.499s-103.167 -69.5 -166.5 -69.5c-26.667 0 -55.167 4 -85.5 12s-58.833 18.667 -85.5 32l45 187c12.667 -10.667 31.667 -20 57 -28s46.333 -12 63 -12
c30 0 53 12.667 69 38l-223 545l196 5l102 -296l77 298z" />
    <glyph glyph-name="thorn" unicode="&#xfe;" horiz-adv-x="574" 
d="M510 469.5c36.667 -47 55.001 -106.833 55.001 -179.5c0 -51.333 -9.5 -98.5 -28.5 -141.5s-45.833 -77 -80.5 -102s-75 -37.5 -121 -37.5c-49.333 0 -90.333 9 -123 27l9 -294h-198l-14 1065l178 -1l10 -322c23.333 18.667 50.166 33.5 80.499 44.5
s58.166 16.167 83.499 15.5c62.667 -2.66699 112.334 -27.5 149.001 -74.5zM379.501 198c16.333 17.333 24.5 41 24.5 71c0 31.333 -9 56.5 -27 75.5s-41.667 28.5 -71 28.5c-28.667 0 -52.5 -9 -71.5 -27s-28.5 -40.667 -28.5 -68c0 -28.667 10.833 -53.5 32.5 -74.5
s47.167 -31.5 76.5 -31.5c26.667 0 48.167 8.66699 64.5 26z" />
    <glyph glyph-name="ydieresis" unicode="&#xff;" horiz-adv-x="615" 
d="M174 598.5c-12.667 13.667 -19 29.834 -19 48.501c0 17.333 6.66699 32.166 20 44.499s29.333 18.5 48 18.5c18 0 33.167 -6 45.5 -18s18.5 -27.333 18.5 -46s-6.33301 -34.667 -19 -48s-27.667 -20 -45 -20c-20 0 -36.333 6.83301 -49 20.5zM347 598
c-12 13.333 -18 29.668 -18 49.001c0 17.333 6.66699 32.166 20 44.499s29.333 18.5 48 18.5c18 0 33.167 -6 45.5 -18s18.5 -27.333 18.5 -46s-6.33301 -34.667 -19 -48s-27.667 -20 -45 -20c-21.333 0 -38 6.66699 -50 20zM595 545.002l-139.999 -523.001
c-24.667 -85.333 -60.834 -151.166 -108.501 -197.499s-103.167 -69.5 -166.5 -69.5c-26.667 0 -55.167 4 -85.5 12s-58.833 18.667 -85.5 32l45 187c12.667 -10.667 31.667 -20 57 -28s46.333 -12 63 -12c30 0 53 12.667 69 38l-223 545l196 5l102 -296l77 298z" />
    <glyph glyph-name="dotlessi" unicode="&#x131;" horiz-adv-x="227" 
d="M9 533h209v-530h-193z" />
    <glyph glyph-name="Lslash" unicode="&#x141;" horiz-adv-x="567" 
d="M558 198v-200h-470v276l-57 -32l-22 185l79 46v287h200v-170l71 41l22 -194l-93 -52v-187h270z" />
    <glyph glyph-name="lslash" unicode="&#x142;" horiz-adv-x="416" 
d="M408 25c-50 -22 -97.001 -32.999 -141.001 -32.999c-60.667 0 -109.667 19.667 -147 59s-55.666 94.666 -54.999 165.999v70l-56 -25v186l57 26l1 235l189 56v-205l73 33v-188l-72 -32v-100c0 -27.333 7.33301 -47.5 22 -60.5s31.667 -19.5 51 -19.5c14 0 25.333 3 34 9z
" />
    <glyph glyph-name="OE" unicode="&#x152;" horiz-adv-x="1144" 
d="M1135 212v-200l-528 -12l-2 53c-62 -40 -129.333 -60 -202 -60c-68.667 0 -133.334 18.167 -194.001 54.5s-109.167 84.333 -145.5 144s-54.5 123.167 -54.5 190.5s18.167 130.5 54.5 189.5s84.833 106 145.5 141s125.334 52.5 194.001 52.5c63.333 0 123 -15 179 -45
l-1 40l528 17l14 -200l-338 -4l4 -79l281 6l10 -200l-279 -6l5 -95zM494.5 218c29.667 16.667 53.334 39.335 71.001 68.002s26.5 60.667 26.5 96c0 34.667 -8.83301 66 -26.5 94s-41.5 49.833 -71.5 65.5s-63.333 23.5 -100 23.5c-34.667 0 -66.167 -7.83301 -94.5 -23.5
s-50.5 -37.334 -66.5 -65.001s-24 -58.834 -24 -93.501c0 -36 8.16699 -68.5 24.5 -97.5s38.666 -51.667 66.999 -68s60.5 -24.5 96.5 -24.5c35.333 0 67.833 8.33301 97.5 25z" />
    <glyph glyph-name="oe" unicode="&#x153;" horiz-adv-x="941" 
d="M862.5 464c46.333 -48.667 69.499 -115.001 69.499 -199.001c0 -14 -0.333008 -24.667 -1 -32l-354 -4c8 -22 19.167 -40.167 33.5 -54.5s31.166 -22.166 50.499 -23.499c53.333 -4 92 11.667 116 47l143 -41c-8.66699 -31.333 -25.334 -59.5 -50.001 -84.5
s-54.167 -44.5 -88.5 -58.5s-69.833 -21 -106.5 -21c-35.333 0 -69.166 6.83301 -101.499 20.5s-61.166 33.167 -86.499 58.5c-25.333 -24 -54.666 -42.667 -87.999 -56s-69 -20 -107 -20c-52 0 -99.667 13 -143 39s-77.5 60.833 -102.5 104.5s-37.5 90.167 -37.5 139.5
c0 54.667 14.167 102 42.5 142s64 70.333 107 91s86.5 31 130.5 31c40.667 0 78 -5.66699 112 -17s63.333 -27.666 88 -48.999c23.333 19.333 50.333 34.166 81 44.499s63 15.5 97 15.5c84 0 149.167 -24.333 195.5 -73zM577.999 350.999l169 -1
c-2.66699 19.333 -10.5 34.333 -23.5 45s-27.833 16.667 -44.5 18c-49.333 4 -83 -16.667 -101 -62zM367.499 192.999c18.333 18 27.5 42.667 27.5 74c0 30 -8.66699 55.333 -26 76s-43 31 -77 31c-30 0 -54.833 -10 -74.5 -30s-29.5 -44.667 -29.5 -74
c0 -30 10.333 -54.833 31 -74.5s47 -29.5 79 -29.5c28 0 51.167 9 69.5 27z" />
    <glyph glyph-name="Scaron" unicode="&#x160;" horiz-adv-x="624" 
d="M142 27.5c-54 23.667 -98.335 55.1709 -133.002 94.5039l135 148c21.333 -24 46.5 -42.833 75.5 -56.5s58.167 -20.5 87.5 -20.5c26.667 0 48.334 5 65.001 15s25 21.667 25 35s-8 23 -24 29s-36.667 9 -62 9c-49.333 0 -94.833 10.333 -136.5 31s-75 49.167 -100 85.5
s-37.5 77.166 -37.5 122.499c0 46.667 13 88.667 39 126s61 66.666 105 87.999s92 32 144 32c52.667 0 104 -10.167 154 -30.5s94 -49.5 132 -87.5l-113 -153c-62.667 46 -122 69 -178 69c-24.667 0 -46 -4.33301 -64 -13s-27 -19 -27 -31
c0 -12.667 10.667 -22.167 32 -28.5s46.666 -9.5 75.999 -9.5c53.333 0 101 -8.33301 143 -25s75 -41.334 99 -74.001s36 -72.334 36 -119.001c0 -50 -14.167 -95.833 -42.5 -137.5s-66.166 -74.5 -113.499 -98.5s-98.666 -36 -153.999 -36c-54.667 0 -109 11.833 -163 35.5
zM475.998 887.004l-89 -99h-140l-98 99h128l37 -51l37 52z" />
    <glyph glyph-name="scaron" unicode="&#x161;" horiz-adv-x="486" 
d="M407 349c-30 16.667 -56.6689 28.833 -80.002 36.5s-45.666 11.5 -66.999 11.5c-20 0 -36.5 -3 -49.5 -9s-19.5 -13.667 -19.5 -23c0 -16.667 23.333 -25 70 -25c68 0 121 -13.333 159 -40s57 -63.667 57 -111c0 -36 -11.167 -69.167 -33.5 -99.5
s-52.333 -54.5 -90 -72.5s-78.834 -27 -123.501 -27c-44 0 -86 8.16699 -126 24.5s-71.667 38.166 -95 65.499l101 114c16 -14 34.333 -24.833 55 -32.5s41.667 -11.5 63 -11.5c20.667 0 38.167 3.5 52.5 10.5s21.5 15.5 21.5 25.5c0 8 -4.66699 13.667 -14 17s-25 5 -47 5
c-4 -0.666992 -10 -1 -18 -1c-33.333 0 -64.833 7.5 -94.5 22.5s-53.5 35.167 -71.5 60.5s-27 52.666 -27 81.999c0 30.667 10.333 59.334 31 86.001s48.334 48.167 83.001 64.5s71.334 24.5 110.001 24.5s77.5 -7.66699 116.5 -23s74.5 -36.666 106.5 -63.999z
M428.998 676.999l-89 -99h-140l-98 99h128l37 -51l37 52z" />
    <glyph glyph-name="Ycircumflex" unicode="&#x176;" horiz-adv-x="742" 
d="M348 798h-128l98 99h140l89 -99l-125 -1l-37 52zM469 321l1 -322h-200l-1 339l-260 339l210 87l159 -232l155 232l200 -49z" />
    <glyph glyph-name="Ydieresis" unicode="&#x178;" horiz-adv-x="742" 
d="M246 810.5c-12.667 13.667 -19 29.834 -19 48.501c0 17.333 6.66699 32.166 20 44.499s29.333 18.5 48 18.5c18 0 33.167 -6 45.5 -18s18.5 -27.333 18.5 -46s-6.33301 -34.667 -19 -48s-27.667 -20 -45 -20c-20 0 -36.333 6.83301 -49 20.5zM419 810
c-12 13.333 -18 29.668 -18 49.001c0 17.333 6.66699 32.166 20 44.499s29.333 18.5 48 18.5c18 0 33.167 -6 45.5 -18s18.5 -27.333 18.5 -46s-6.33301 -34.667 -19 -48s-27.667 -20 -45 -20c-21.333 0 -38 6.66699 -50 20zM469 321.002l1 -322h-200l-1 339l-260 339
l210 87l159 -232l155 232l200 -49z" />
    <glyph glyph-name="Zcaron" unicode="&#x17d;" horiz-adv-x="590" 
d="M581 572l-289 -382h278v-196h-561v193l286 382l-259 -1v195l545 1v-192zM474 900l-89 -99h-140l-98 99h128l37 -51l37 52z" />
    <glyph glyph-name="zcaron" unicode="&#x17e;" horiz-adv-x="487" 
d="M478 0h-463l-5 142l198 240h-183v154h426l18 -154l-184 -226l181 9zM403 669l-89 -99h-140l-98 99h128l37 -51l37 52z" />
    <glyph glyph-name="florin" unicode="&#x192;" horiz-adv-x="545" 
d="M311 433l155.001 6.00098l-43 -177l-128 -1l-27 -261h-187l32 260l-104 -1l25 163l97 4c11.333 114 38.666 199.167 81.999 255.5s103 84.5 179 84.5c59.333 0 107.333 -17.333 144 -52l-25 -136c-36 18 -66.667 27 -92 27c-10.667 0 -21 -1.66699 -31 -5
c-46 -16.667 -71.667 -72.334 -77 -167.001z" />
    <glyph glyph-name="circumflex" unicode="&#x2c6;" horiz-adv-x="364" 
d="M216 618l-33 116l-46 -114h-128l104 186h148l94 -187z" />
    <glyph glyph-name="caron" unicode="&#x2c7;" horiz-adv-x="345" 
d="M336 820l-89 -99h-140l-98 99h128l37 -51l37 52z" />
    <glyph glyph-name="tilde" unicode="&#x2dc;" horiz-adv-x="407" 
d="M257.5 655.5c-11.667 4.33301 -25.502 10.499 -41.502 18.499c-10 5.33301 -20.167 10 -30.5 14s-18.833 6 -25.5 6c-19.333 0 -32.666 -13.333 -39.999 -40l-111 11c4.66699 50.667 19.167 87.5 43.5 110.5s52.5 34.5 84.5 34.5c12 0 24 -2 36 -6s27 -10 45 -18
c2 -0.666992 8.83301 -3.5 20.5 -8.5s21.5 -7.5 29.5 -7.5c16.667 0 26.667 12.333 30 37l100 -11c-8 -45.333 -21.667 -81.166 -41 -107.499s-41.666 -39.5 -66.999 -39.5c-10 0 -20.833 2.16699 -32.5 6.5z" />
    <glyph glyph-name="Ygrave" unicode="&#x1ef2;" horiz-adv-x="742" 
d="M323 785l-106 96l156 46l90 -128zM469 321l1 -322h-200l-1 339l-260 339l210 87l159 -232l155 232l200 -49z" />
    <glyph glyph-name="dagger" unicode="&#x2020;" horiz-adv-x="340" 
d="M331 431l-88 1l-1 -515h-145v517l-88 1v142l88 -1v217h146v-220l88 -1v-141z" />
    <glyph glyph-name="daggerdbl" unicode="&#x2021;" horiz-adv-x="346" 
d="M94 206h-85v142h85v87h-79v142h79v216h146v-221h97v-141h-98v-90h94v-143h-94v-281h-145v289z" />
    <glyph glyph-name="bullet" unicode="&#x2022;" horiz-adv-x="317" 
d="M82.5 138.5c-22.333 13 -40.166 30.668 -53.499 53.001s-20 46.5 -20 72.5c0 26.667 6.83301 51.167 20.5 73.5s32.167 40.166 55.5 53.499s49.333 20 78 20c26.667 0 51.167 -6.33301 73.5 -19s39.833 -30 52.5 -52s19 -46 19 -72c0 -26.667 -7 -51.5 -21 -74.5
s-32.833 -41.167 -56.5 -54.5s-48.834 -20 -75.501 -20c-26 0 -50.167 6.5 -72.5 19.5z" />
    <glyph glyph-name="ellipsis" unicode="&#x2026;" horiz-adv-x="706" 
d="M273 31c-21.333 23.333 -32.001 50.667 -32.001 82c0 21.333 5.5 40.833 16.5 58.5s25.333 31.5 43 41.5s36.5 15 56.5 15c28.667 0 53.167 -10 73.5 -30s30.5 -47 30.5 -81s-10.167 -62.667 -30.5 -86s-46.166 -35 -77.499 -35c-32 0 -58.667 11.667 -80 35z
M506.999 31.001c-21.333 23.333 -32.001 50.667 -32.001 82c0 21.333 5.5 40.833 16.5 58.5s25.333 31.5 43 41.5s36.5 15 56.5 15c28.667 0 53.167 -10 73.5 -30s30.5 -47 30.5 -81s-10.167 -62.667 -30.5 -86s-46.166 -35 -77.499 -35c-32 0 -58.667 11.667 -80 35z
M38.998 31.002c-21.333 23.333 -32.001 50.667 -32.001 82c0 21.333 5.5 40.833 16.5 58.5s25.333 31.5 43 41.5s36.5 15 56.5 15c28.667 0 53.167 -10 73.5 -30s30.5 -47 30.5 -81s-10.167 -62.667 -30.5 -86s-46.166 -35 -77.499 -35c-32 0 -58.667 11.667 -80 35z" />
    <glyph glyph-name="perthousand" unicode="&#x2030;" horiz-adv-x="1376" 
d="M114.5 400c-31.667 18 -57.1689 42.168 -76.502 72.501s-29 62.833 -29 97.5c0 33.333 9.33301 63.166 28 89.499s43.834 46.833 75.501 61.5s66.167 22 103.5 22c36.667 0 69.334 -7 98.001 -21s51 -33.833 67 -59.5s24 -55.167 24 -88.5
c0 -34.667 -8.66699 -67.5 -26 -98.5s-40.666 -55.833 -69.999 -74.5s-61 -28 -95 -28c-34.667 0 -67.834 9 -99.501 27zM248.998 91.001l269 623h184l-254 -725zM248.498 527.001c11 11.333 16.5 24.668 16.5 40.001s-5.83301 28.666 -17.5 39.999s-25.5 17 -41.5 17
c-15.333 0 -28.5 -5.16699 -39.5 -15.5s-16.5 -22.833 -16.5 -37.5c0 -15.333 6.33301 -29.333 19 -42s26.667 -19 42 -19c14 0 26.5 5.66699 37.5 17zM654.498 23.0029c-29.667 16 -53.167 37.833 -70.5 65.5s-26 58.5 -26 92.5s8.16699 65.833 24.5 95.5
s38.333 53.5 66 71.5s57.834 27 90.501 27c36 0 70 -9.66699 102 -29s57.5 -44.833 76.5 -76.5s28.5 -64.5 28.5 -98.5c0 -32 -8.83301 -61.167 -26.5 -87.5s-41.5 -47 -71.5 -62s-62.333 -22.5 -97 -22.5s-66.834 8 -96.501 24zM1076.5 29.0029
c-31.667 18 -57.1689 42.168 -76.502 72.501s-29 62.833 -29 97.5c0 33.333 9.33301 63.166 28 89.499s43.834 46.833 75.501 61.5s66.167 22 103.5 22c36.667 0 69.334 -7 98.001 -21s51 -33.833 67 -59.5s24 -55.167 24 -88.5c0 -34.667 -8.66699 -67.5 -26 -98.5
s-40.666 -55.833 -69.999 -74.5s-61 -28 -95 -28c-34.667 0 -67.834 9 -99.501 27zM1210.5 156.004c11 11.333 16.5 24.668 16.5 40.001s-5.83301 28.666 -17.5 39.999s-25.5 17 -41.5 17c-15.333 0 -28.5 -5.16699 -39.5 -15.5s-16.5 -22.833 -16.5 -37.5
c0 -15.333 6.33301 -29.333 19 -42s26.667 -19 42 -19c14 0 26.5 5.66699 37.5 17zM782.996 137.006c12.667 11.333 19 24.999 19 40.999c0 16.667 -5.5 30.5 -16.5 41.5s-24.833 16.5 -41.5 16.5c-17.333 0 -31.333 -5.66699 -42 -17s-16 -25.666 -16 -42.999
s4.66699 -31 14 -41s22 -15 38 -15c17.333 0 32.333 5.66699 45 17z" />
    <glyph glyph-name="guilsinglleft" unicode="&#x2039;" horiz-adv-x="195" 
d="M19 198l-10 79l128 157l49 -98l-69 -89l69 -99l-39 -98z" />
    <glyph glyph-name="guilsinglright" unicode="&#x203a;" horiz-adv-x="195" 
d="M9 159l69 99l-69 87l50 99l127 -158l-9 -78l-128 -147z" />
    <glyph glyph-name="Euro" unicode="&#x20ac;" horiz-adv-x="787" 
d="M504 211c24 12 43.8301 26.832 59.4971 44.499s25.834 34.5 30.501 50.5l163 -56c-8 -46.667 -28.667 -89.667 -62 -129s-74.666 -70.5 -123.999 -93.5s-100.333 -34.5 -153 -34.5c-57.333 0 -111 13.5 -161 40.5s-92.333 63.833 -127 110.5s-58 98.334 -70 155.001h-34
l-17 196l58 -2c16 52.667 41.833 99.667 77.5 141s78.334 73.5 128.001 96.5s102.5 34.5 158.5 34.5c50 0 98.167 -9.5 144.5 -28.5s86.5 -47.833 120.5 -86.5s58 -85.667 72 -141l-174 -53c-10 28.667 -30 54 -60 76s-65.333 33 -106 33
c-32.667 0 -62.167 -6.5 -88.5 -19.5s-47.166 -32.167 -62.499 -57.5l131 -4l10 -185h-151c14 -34 35.167 -60.167 63.5 -78.5s60.166 -27.5 95.499 -27.5c28 0 54 6 78 18z" />
    <glyph glyph-name="trademark" unicode="&#x2122;" horiz-adv-x="464" 
d="M198 701l-60 -2l1 -157l-71 -6v161l-55 -1l-4 68l184 4zM384 541l3 121l-29 -121h-50l-33 116l3 -113h-67v221l34 -4v1l59 -7l27 -89l22 94h57h29l16 -217z" />
    </font>
</defs>
</svg>
