<svg width="80" height="50" viewBox="0 0 80 50" fill="none" xmlns="http://www.w3.org/2000/svg">
<path d="M0.25 4C0.25 1.92893 1.92893 0.25 4 0.25H5.33945C6.30595 0.25 7.08945 1.0335 7.08945 2V48C7.08945 48.9665 6.30595 49.75 5.33945 49.75H4C1.92893 49.75 0.25 48.0711 0.25 46V4Z" fill="#24C054" stroke="#24C054" stroke-width="0.5"/>
<path d="M72.9106 2C72.9106 1.0335 73.6941 0.25 74.6606 0.25H76.0001C78.0712 0.25 79.7501 1.92893 79.7501 4V46C79.7501 48.0711 78.0712 49.75 76.0001 49.75H74.6606C73.6941 49.75 72.9106 48.9665 72.9106 48V2Z" fill="white" stroke="#E5E5EA" stroke-width="0.5"/>
<path d="M8.32349 2C8.32349 1.0335 9.10699 0.25 10.0735 0.25H13.4129C14.3794 0.25 15.1629 1.0335 15.1629 2V48C15.1629 48.9665 14.3794 49.75 13.4129 49.75H10.0735C9.10699 49.75 8.32349 48.9665 8.32349 48V2Z" fill="#24C054" stroke="#24C054" stroke-width="0.5"/>
<path d="M16.397 2C16.397 1.0335 17.1805 0.25 18.147 0.25H21.4864C22.4529 0.25 23.2364 1.0335 23.2364 2V48C23.2364 48.9665 22.4529 49.75 21.4864 49.75H18.147C17.1805 49.75 16.397 48.9665 16.397 48V2Z" fill="#24C054" stroke="#24C054" stroke-width="0.5"/>
<path d="M24.4702 2C24.4702 1.0335 25.2537 0.25 26.2202 0.25H29.5597C30.5262 0.25 31.3097 1.0335 31.3097 2V48C31.3097 48.9665 30.5262 49.75 29.5597 49.75H26.2202C25.2537 49.75 24.4702 48.9665 24.4702 48V2Z" fill="white" stroke="#E5E5EA" stroke-width="0.5"/>
<path d="M32.5435 2C32.5435 1.0335 33.327 0.25 34.2935 0.25H37.6329C38.5994 0.25 39.3829 1.0335 39.3829 2V48C39.3829 48.9665 38.5994 49.75 37.6329 49.75H34.2935C33.327 49.75 32.5435 48.9665 32.5435 48V2Z" fill="white" stroke="#E5E5EA" stroke-width="0.5"/>
<path d="M40.6169 2C40.6169 1.0335 41.4004 0.25 42.3669 0.25H45.7064C46.6729 0.25 47.4564 1.0335 47.4564 2V48C47.4564 48.9665 46.6729 49.75 45.7064 49.75H42.3669C41.4004 49.75 40.6169 48.9665 40.6169 48V2Z" fill="white" stroke="#E5E5EA" stroke-width="0.5"/>
<path d="M48.6904 2C48.6904 1.0335 49.4739 0.25 50.4404 0.25H53.7799C54.7464 0.25 55.5299 1.0335 55.5299 2V48C55.5299 48.9665 54.7464 49.75 53.7799 49.75H50.4404C49.4739 49.75 48.6904 48.9665 48.6904 48V2Z" fill="white" stroke="#E5E5EA" stroke-width="0.5"/>
<path d="M56.7637 2C56.7637 1.0335 57.5472 0.25 58.5137 0.25H61.8531C62.8196 0.25 63.6031 1.0335 63.6031 2V48C63.6031 48.9665 62.8196 49.75 61.8531 49.75H58.5137C57.5472 49.75 56.7637 48.9665 56.7637 48V2Z" fill="white" stroke="#E5E5EA" stroke-width="0.5"/>
<path d="M64.8372 2C64.8372 1.0335 65.6207 0.25 66.5872 0.25H69.9266C70.8931 0.25 71.6766 1.0335 71.6766 2V48C71.6766 48.9665 70.8931 49.75 69.9266 49.75H66.5872C65.6207 49.75 64.8372 48.9665 64.8372 48V2Z" fill="white" stroke="#E5E5EA" stroke-width="0.5"/>
</svg>
