<svg width="18" height="22" viewBox="0 0 18 22" fill="none" xmlns="http://www.w3.org/2000/svg">
<g id="file-text">
<path id="Path" fill-rule="evenodd" clip-rule="evenodd" d="M11 1H3C1.89543 1 1 1.89543 1 3V19C1 20.1046 1.89543 21 3 21H15C16.1046 21 17 20.1046 17 19V7L11 1Z" stroke="url(#paint0_linear)" stroke-width="2" stroke-linecap="round" stroke-linejoin="round"/>
<path id="Path_2" d="M11 1V7H17" stroke="url(#paint1_linear)" stroke-width="2" stroke-linecap="round" stroke-linejoin="round"/>
<path id="Path_3" d="M13 12H5" stroke="url(#paint2_linear)" stroke-width="2" stroke-linecap="round" stroke-linejoin="round"/>
<path id="Path_4" d="M13 16H5" stroke="url(#paint3_linear)" stroke-width="2" stroke-linecap="round" stroke-linejoin="round"/>
<path id="Path_5" d="M7 8H6H5" stroke="url(#paint4_linear)" stroke-width="2" stroke-linecap="round" stroke-linejoin="round"/>
</g>
<defs>
<linearGradient id="paint0_linear" x1="9" y1="1" x2="9" y2="21" gradientUnits="userSpaceOnUse">
<stop stop-color="#7131EB"/>
<stop offset="1" stop-color="#241A91"/>
</linearGradient>
<linearGradient id="paint1_linear" x1="14" y1="1" x2="14" y2="7" gradientUnits="userSpaceOnUse">
<stop stop-color="#7131EB"/>
<stop offset="1" stop-color="#241A91"/>
</linearGradient>
<linearGradient id="paint2_linear" x1="9" y1="11.5" x2="9" y2="12.5" gradientUnits="userSpaceOnUse">
<stop stop-color="#7131EB"/>
<stop offset="1" stop-color="#241A91"/>
</linearGradient>
<linearGradient id="paint3_linear" x1="9" y1="15.5" x2="9" y2="16.5" gradientUnits="userSpaceOnUse">
<stop stop-color="#7131EB"/>
<stop offset="1" stop-color="#241A91"/>
</linearGradient>
<linearGradient id="paint4_linear" x1="6" y1="7.5" x2="6" y2="8.5" gradientUnits="userSpaceOnUse">
<stop stop-color="#7131EB"/>
<stop offset="1" stop-color="#241A91"/>
</linearGradient>
</defs>
</svg>
