<svg width="12" height="12" viewBox="0 0 12 12" fill="none" xmlns="http://www.w3.org/2000/svg">
<path d="M0.701828 10C0.319016 10.375 0.311203 11.0625 0.709641 11.4609C1.10808 11.8594 1.79558 11.8438 2.17058 11.4688L5.79558 7.84375L9.42058 11.4609C9.8112 11.8516 10.4831 11.8594 10.8815 11.4531C11.28 11.0547 11.28 10.3828 10.8893 9.99219L7.27214 6.375L10.8893 2.75C11.28 2.35938 11.28 1.6875 10.8815 1.28906C10.4831 0.882812 9.8112 0.890625 9.42058 1.28125L5.79558 4.89844L2.17058 1.27344C1.79558 0.898438 1.10808 0.882812 0.709641 1.28125C0.311203 1.67969 0.319016 2.36719 0.701828 2.75L4.32683 6.375L0.701828 10Z" fill="#777F85"/>
</svg>
