<svg width="135" height="135" viewBox="0 0 135 135" fill="none" xmlns="http://www.w3.org/2000/svg">
<g id="Group 6">
<rect id="Rectangle 19 Copy 5" x="3.15" y="3.15" width="128.7" height="128.7" rx="64.323" fill="#24C054" fill-opacity="0.01" stroke="#FF3B30" stroke-width="6.3"/>
<path id="Rectangle 3 Copy 2" fill-rule="evenodd" clip-rule="evenodd" d="M45.7821 45.7821C46.8249 44.7393 48.5157 44.7393 49.5585 45.7821L67.5 63.7236L85.4415 45.7821C86.4843 44.7393 88.1751 44.7393 89.2179 45.7821C90.2607 46.8249 90.2607 48.5157 89.2179 49.5585L71.2764 67.5L89.2179 85.4415C90.2607 86.4843 90.2607 88.1751 89.2179 89.2179C88.1751 90.2607 86.4843 90.2607 85.4415 89.2179L67.5 71.2764L49.5585 89.2179C48.5157 90.2607 46.8249 90.2607 45.7821 89.2179C44.7393 88.1751 44.7393 86.4843 45.7821 85.4415L63.7236 67.5L45.7821 49.5585C44.7393 48.5157 44.7393 46.8249 45.7821 45.7821Z" fill="#FF3B30"/>
</g>
</svg>
