<svg width="224" height="181" viewBox="0 0 224 181" fill="none" xmlns="http://www.w3.org/2000/svg">
<g id="clip-list-is-empty">
<g id="geometry">
<rect id="monitor" x="21.137" width="187.131" height="114.077" rx="12" fill="url(#paint0_linear)"/>
<rect id="_1" x="41.8114" y="20.0492" width="18.6077" height="18.6077" fill="#E5E5EA"/>
<rect id="_2" x="41.8114" y="47.8288" width="18.6077" height="18.6077" fill="#E5E5EA"/>
<path id="rounded_rect" opacity="0.01" d="M25.784 163.568H62.0381C66.8437 163.568 70.7393 167.463 70.7393 172.269C70.7393 177.075 66.8437 180.97 62.0381 180.97H25.784C20.9784 180.97 17.0827 177.075 17.0827 172.269C17.0827 167.463 20.9784 163.568 25.784 163.568Z" fill="#2B43F2"/>
<circle id="circle" opacity="0.01" cx="208.436" cy="165.752" r="15.2181" fill="#2B43F2"/>
<path id="half_a_circle" opacity="0.01" d="M0 151.357C5.8362 162.756 19.8086 167.267 31.2083 161.43C41.3353 156.246 46.2054 144.48 42.705 133.655L0 151.357Z" fill="#7832F0"/>
</g>
<g id="woman">
<path id="R_shoe" d="M182.457 180.97L150.454 180.971C150.454 180.971 152.095 177.806 157.565 175.461C163.036 173.117 167.479 168.323 167.479 168.323L177.924 168.324L182.457 180.97Z" fill="url(#paint1_linear)"/>
<path id="L_shoe" d="M153.69 168.324L158.223 180.97L126.22 180.971C126.22 180.971 127.861 177.806 133.331 175.461C138.802 173.117 143.907 168.324 143.907 168.324H153.69" fill="url(#paint2_linear)"/>
<path id="R_trousers" d="M162.274 79.1235C162.274 79.1235 163.556 82.0855 161.145 94.6201C161.714 101.201 163.009 107.699 165.006 113.996C168.22 123.798 184.583 152.278 177.924 168.324L167.479 168.322C167.479 168.322 153.435 132.315 151.186 122.513C148.936 112.71 143.742 83.7581 141.006 78.6091L162.274 79.1235Z" fill="url(#paint3_linear)"/>
<path id="L_trousers" fill-rule="evenodd" clip-rule="evenodd" d="M161.47 77.677C161.47 77.677 165.167 84.2656 159.542 99.5322C153.917 114.799 153.757 119.459 154.078 123.637C154.399 127.816 157.453 132.637 156.488 141.475C155.524 150.314 158.278 151.486 157.635 158.557C156.993 165.627 153.69 168.323 153.69 168.323H143.907C143.907 168.323 137.204 131.833 136.722 120.584C136.24 109.335 144.923 89.4616 144.597 78.4804L161.47 77.677Z" fill="url(#paint4_linear)"/>
<path id="texture" opacity="0.01" fill-rule="evenodd" clip-rule="evenodd" d="M162.426 86.1857C162.474 86.1697 162.526 86.1956 162.541 86.2433C162.542 86.2451 162.543 86.247 162.544 86.2492C162.561 86.2958 162.536 86.3469 162.49 86.3636L162.489 86.3638L162.489 86.364C162.441 86.3826 162.388 86.3593 162.37 86.3119L162.368 86.3097C162.349 86.2612 162.373 86.2065 162.422 86.1875C162.423 86.1868 162.425 86.1861 162.426 86.1857ZM161.396 86.594C161.436 86.5386 161.514 86.5259 161.571 86.5656C161.625 86.6068 161.638 86.6841 161.599 86.7409C161.559 86.796 161.481 86.8088 161.425 86.769C161.369 86.7289 161.355 86.6505 161.396 86.594ZM161.619 87.3581C161.632 87.3005 161.69 87.2655 161.748 87.2794C161.806 87.2933 161.841 87.3512 161.827 87.4088C161.813 87.4664 161.755 87.5014 161.697 87.4876C161.64 87.4737 161.605 87.4157 161.619 87.3581ZM159.649 88.3629C159.588 88.341 159.521 88.3723 159.5 88.4332L159.499 88.436L159.498 88.4387C159.475 88.5007 159.506 88.5692 159.568 88.5922C159.63 88.6151 159.699 88.5838 159.722 88.5218C159.723 88.5197 159.723 88.5174 159.724 88.5152L159.724 88.5138C159.746 88.4533 159.715 88.3866 159.654 88.3647C159.653 88.3643 159.652 88.364 159.651 88.3637L159.649 88.3629ZM158.939 92.4135C158.89 92.3701 158.814 92.3752 158.771 92.4244L158.77 92.4251C158.726 92.4758 158.73 92.5531 158.781 92.5979C158.832 92.6428 158.909 92.638 158.954 92.5873L158.955 92.5866C158.996 92.5341 158.99 92.4579 158.939 92.4135ZM152.218 101.77C152.151 101.775 152.1 101.832 152.103 101.899C152.106 101.963 152.161 102.013 152.226 102.01C152.228 102.01 152.23 102.009 152.233 102.009C152.3 102.005 152.35 101.947 152.347 101.88C152.342 101.814 152.284 101.764 152.218 101.77ZM151.899 98.9638C151.894 98.8978 151.943 98.8399 152.009 98.8344C152.077 98.8322 152.135 98.8822 152.143 98.9492C152.147 99.0163 152.095 99.0743 152.028 99.0783C151.961 99.0823 151.903 99.0309 151.899 98.9638ZM157.828 98.7819C157.89 98.7531 157.963 98.7797 157.992 98.8417C158.02 98.9026 157.995 98.9751 157.935 99.005L157.932 99.0061C157.871 99.0349 157.797 99.0083 157.768 98.9463C157.739 98.8843 157.766 98.8107 157.828 98.7819ZM156.679 96.21C156.651 96.148 156.577 96.1214 156.515 96.1502C156.453 96.179 156.426 96.2526 156.455 96.3146C156.484 96.3766 156.558 96.4032 156.62 96.3744L156.622 96.3733C156.682 96.3434 156.707 96.2712 156.679 96.21ZM160.513 97.5001C160.482 97.4494 160.415 97.4338 160.365 97.4655C160.314 97.4968 160.298 97.5636 160.33 97.6142L160.33 97.6148L160.331 97.6153C160.363 97.6656 160.43 97.6802 160.48 97.6481C160.529 97.6164 160.544 97.5504 160.513 97.5001ZM158.973 95.241C159.024 95.2092 159.091 95.2246 159.123 95.2749L159.124 95.2766L159.125 95.278L159.125 95.2789C159.155 95.3292 159.139 95.3941 159.089 95.424C159.038 95.4557 158.971 95.4404 158.94 95.3901C158.908 95.3394 158.923 95.2727 158.973 95.241ZM157.732 93.0456C157.723 93.0266 157.708 93.0121 157.689 93.0048L157.685 93.004L157.684 93.0038L157.685 93.0037L157.689 93.0044L157.691 93.0042L157.692 93.004C157.731 92.9982 157.767 93.0252 157.773 93.0642C157.779 93.0919 157.766 93.1197 157.742 93.134C157.754 93.1047 157.75 93.0712 157.732 93.0456ZM157.742 93.134L157.742 93.1349C157.737 93.1619 157.721 93.1852 157.698 93.1991C157.647 93.2301 157.581 93.2151 157.548 93.1652L157.548 93.1646L157.548 93.1641C157.515 93.1123 157.531 93.0441 157.583 93.0117C157.613 92.9925 157.651 92.9895 157.684 93.0038C157.647 93.0136 157.623 93.0502 157.629 93.0883C157.635 93.1273 157.672 93.1542 157.711 93.1484L157.712 93.1482L157.713 93.148C157.723 93.1451 157.733 93.1404 157.741 93.1345L157.742 93.134ZM149.422 99.3524C149.436 99.2945 149.493 99.258 149.552 99.2715C149.609 99.2865 149.646 99.343 149.635 99.4013C149.619 99.46 149.56 99.4961 149.5 99.4837L149.496 99.4826C149.44 99.4676 149.407 99.41 149.422 99.3543C149.422 99.3539 149.422 99.3532 149.422 99.3524ZM161.554 91.217C161.506 91.182 161.439 91.1926 161.404 91.241L161.401 91.2443C161.366 91.2892 161.375 91.3537 161.419 91.3887L161.425 91.3927C161.471 91.4288 161.538 91.4204 161.574 91.3737L161.577 91.3697C161.612 91.3205 161.602 91.2534 161.554 91.217ZM159.412 89.6877C159.414 89.6887 159.415 89.6899 159.416 89.6916C159.366 89.6592 159.299 89.6713 159.263 89.7186C159.229 89.7686 159.241 89.8368 159.29 89.8718C159.341 89.9046 159.41 89.89 159.442 89.8393C159.471 89.7951 159.464 89.7375 159.428 89.7015C159.452 89.7185 159.485 89.7202 159.512 89.7052C159.545 89.6826 159.556 89.6374 159.534 89.6027C159.513 89.5681 159.467 89.5575 159.432 89.5794C159.398 89.6013 159.387 89.6468 159.409 89.6815L159.409 89.6818L159.409 89.6822C159.409 89.6848 159.41 89.686 159.412 89.6877ZM159.428 89.7015C159.424 89.6987 159.42 89.6956 159.417 89.692L159.416 89.6917C159.421 89.6947 159.424 89.698 159.428 89.7015ZM155.134 98.1122C155.076 98.1253 155.037 98.1811 155.046 98.2405C155.056 98.2989 155.112 98.3379 155.17 98.328C155.229 98.3186 155.27 98.2639 155.262 98.2044C155.251 98.1443 155.195 98.1031 155.134 98.1122ZM154.614 95.6522C154.605 95.5928 154.644 95.537 154.702 95.5239C154.761 95.5158 154.816 95.5563 154.826 95.6154L154.827 95.6219C154.835 95.6792 154.795 95.7317 154.738 95.7397C154.68 95.7495 154.625 95.7105 154.614 95.6522ZM145.414 95.9548C145.365 95.9205 145.298 95.9303 145.261 95.9777C145.226 96.0259 145.237 96.0937 145.286 96.1287L145.289 96.1308C145.334 96.1658 145.398 96.1575 145.433 96.113L145.437 96.1075C145.473 96.0609 145.465 95.9941 145.418 95.958C145.417 95.957 145.415 95.9559 145.414 95.9548ZM160.221 91.0496C160.247 91.0256 160.288 91.0274 160.313 91.0537C160.335 91.0806 160.334 91.1207 160.309 91.1452C160.282 91.1692 160.241 91.1674 160.217 91.1411C160.193 91.1149 160.195 91.0737 160.221 91.0496ZM159.257 89.9243C159.233 89.898 159.192 89.8962 159.166 89.9202C159.14 89.9443 159.138 89.9855 159.162 90.0118C159.186 90.038 159.227 90.0398 159.253 90.0158C159.278 89.9913 159.28 89.9512 159.257 89.9243ZM161.447 87.9334C161.462 87.9024 161.499 87.8886 161.53 87.9032C161.562 87.9199 161.576 87.9578 161.562 87.991C161.547 88.022 161.51 88.0362 161.478 88.0235C161.447 88.0067 161.433 87.9688 161.447 87.9356C161.447 87.9349 161.447 87.9341 161.447 87.9334ZM157.268 92.0197C157.258 91.9877 157.224 91.9698 157.191 91.98L157.186 91.9822C157.153 91.9931 157.135 92.0288 157.147 92.0613L157.148 92.0646C157.162 92.0959 157.197 92.1123 157.23 92.1025C157.263 92.0897 157.28 92.0529 157.268 92.0197ZM161.34 92.5553C161.373 92.5356 161.416 92.5458 161.436 92.579C161.458 92.6136 161.447 92.6592 161.413 92.681L161.412 92.6821C161.379 92.7018 161.336 92.6916 161.316 92.6584L161.314 92.6561L161.313 92.6537C161.293 92.6198 161.304 92.5761 161.339 92.5564L161.34 92.5553ZM160.483 91.0905C160.463 91.0573 160.42 91.0471 160.387 91.0671L160.385 91.0682C160.351 91.0905 160.341 91.1364 160.363 91.1707C160.385 91.2046 160.43 91.2148 160.464 91.1933C160.497 91.1721 160.507 91.1284 160.486 91.0952L160.483 91.0905ZM161.96 88.314C161.927 88.2907 161.882 88.298 161.857 88.3304C161.834 88.3636 161.842 88.4092 161.875 88.4321L161.878 88.4343C161.91 88.4566 161.954 88.4493 161.977 88.4172C162 88.384 161.993 88.3384 161.96 88.314ZM157.377 91.2622C157.338 91.272 157.312 91.3099 157.317 91.3504C157.327 91.3894 157.366 91.4138 157.406 91.4065C157.444 91.3989 157.469 91.3613 157.462 91.3231L157.462 91.3226L157.461 91.322C157.455 91.2826 157.417 91.256 157.377 91.2622ZM160.389 100.332C160.32 100.343 160.273 100.406 160.282 100.476C160.293 100.544 160.357 100.59 160.425 100.579C160.493 100.568 160.541 100.504 160.533 100.436C160.522 100.368 160.457 100.321 160.389 100.332ZM159.814 97.4823C159.802 97.4141 159.849 97.3499 159.917 97.3386C159.985 97.3277 160.049 97.374 160.06 97.4418C160.072 97.51 160.025 97.5741 159.957 97.5854C159.889 97.5967 159.825 97.5504 159.814 97.4823ZM159.449 94.3456C159.38 94.354 159.332 94.4163 159.34 94.4845C159.349 94.5527 159.411 94.6012 159.479 94.5928L159.482 94.5924L159.485 94.592C159.554 94.5815 159.601 94.518 159.592 94.4488C159.581 94.3806 159.517 94.3347 159.449 94.3456ZM158.872 91.4929C158.862 91.4255 158.909 91.3621 158.976 91.3519L158.978 91.3515L158.979 91.3511C159.046 91.3409 159.11 91.3876 159.12 91.455V91.4561C159.131 91.5243 159.084 91.5885 159.016 91.5994C158.948 91.6103 158.884 91.5637 158.873 91.4955C158.873 91.4948 158.872 91.4937 158.872 91.4929ZM147.907 97.3886C147.865 97.4422 147.875 97.5194 147.928 97.561C147.929 97.5617 147.93 97.5625 147.931 97.5628C147.988 97.6026 148.067 97.5905 148.11 97.5351L147.907 97.3886ZM161.09 89.0963C161.15 89.0606 161.227 89.0799 161.262 89.1394C161.296 89.1977 161.278 89.2724 161.222 89.3092C161.163 89.3475 161.085 89.3308 161.047 89.2721C161.011 89.2123 161.029 89.1354 161.088 89.0978C161.089 89.0971 161.09 89.0967 161.09 89.0963ZM154.482 98.7334C154.416 98.7177 154.349 98.7582 154.334 98.8246C154.333 98.8253 154.333 98.826 154.333 98.8271C154.316 98.8935 154.355 98.9613 154.421 98.9799C154.489 98.993 154.555 98.9529 154.575 98.8869C154.591 98.8187 154.55 98.7502 154.482 98.7334ZM155.045 95.8749C155.062 95.8104 155.128 95.7721 155.192 95.7893L155.195 95.7897C155.196 95.7901 155.198 95.7906 155.2 95.7911C155.264 95.8082 155.302 95.8742 155.285 95.9384V95.9387C155.269 96.0065 155.2 96.0481 155.132 96.0313C155.066 96.0149 155.027 95.9486 155.043 95.8829L155.044 95.8789L155.045 95.8749L155.045 95.8749ZM162.127 87.2397C162.091 87.1839 162.017 87.1675 161.962 87.2032L161.959 87.205L161.956 87.2072C161.899 87.2444 161.883 87.3206 161.919 87.3778C161.958 87.4351 162.035 87.4515 162.094 87.415C162.151 87.3767 162.167 87.2991 162.129 87.2418L162.127 87.2397ZM156.164 99.8089C156.178 99.7407 156.245 99.6969 156.313 99.7112C156.382 99.7254 156.425 99.7925 156.411 99.8606C156.397 99.9288 156.33 99.9726 156.262 99.9583C156.194 99.9441 156.15 99.877 156.164 99.8089ZM156.899 96.7499C156.83 96.7393 156.764 96.7838 156.749 96.8519C156.738 96.9187 156.781 96.9825 156.847 96.9974C156.915 97.0116 156.982 96.9679 156.997 96.8997C157.009 96.8315 156.966 96.7655 156.899 96.7499ZM157.333 93.8896C157.347 93.8225 157.412 93.7787 157.479 93.7918C157.547 93.8053 157.592 93.8695 157.582 93.9377C157.567 94.0058 157.5 94.0496 157.432 94.0354H157.431C157.364 94.0219 157.32 93.9566 157.333 93.8896ZM158.065 90.8306C157.999 90.8171 157.934 90.8597 157.92 90.9261L157.919 90.929C157.907 90.9961 157.951 91.061 158.018 91.0744C158.083 91.089 158.147 91.0486 158.162 90.9837C158.163 90.9811 158.163 90.9786 158.163 90.976C158.177 90.9097 158.134 90.8448 158.068 90.8313L158.067 90.831L158.065 90.8306ZM161.259 92.3045C161.248 92.2363 161.291 92.1707 161.359 92.1557H161.359C161.427 92.1433 161.491 92.1878 161.503 92.2549C161.503 92.256 161.503 92.2567 161.503 92.2578C161.517 92.3252 161.472 92.3905 161.405 92.4033C161.337 92.4164 161.272 92.3719 161.259 92.3045ZM160.762 89.1977C160.694 89.2119 160.65 89.2779 160.663 89.3464C160.679 89.4146 160.746 89.4573 160.815 89.4416C160.88 89.4266 160.922 89.3632 160.911 89.2972C160.897 89.229 160.831 89.1849 160.762 89.1977ZM156.297 94.5283C156.253 94.5056 156.199 94.5235 156.176 94.568L156.173 94.5735L156.172 94.5767C156.151 94.6245 156.173 94.6803 156.221 94.7011C156.269 94.7218 156.324 94.7 156.345 94.6522C156.366 94.6048 156.344 94.5494 156.297 94.5283ZM157.069 92.4809C157.091 92.4339 157.146 92.4138 157.193 92.4353C157.241 92.4565 157.263 92.5126 157.241 92.5607C157.22 92.6089 157.164 92.6304 157.116 92.6092C157.068 92.5877 157.046 92.5319 157.068 92.4838C157.068 92.4831 157.069 92.482 157.069 92.4809ZM158.089 90.342C158.041 90.3209 157.985 90.3424 157.963 90.3905C157.942 90.4386 157.964 90.4944 158.012 90.5159C158.06 90.5371 158.116 90.5156 158.137 90.4674C158.157 90.4193 158.136 90.3639 158.089 90.342ZM161.013 92.1397C161.014 92.0897 161.055 92.0496 161.105 92.0504H161.106C161.158 92.0496 161.201 92.0912 161.202 92.143C161.2 92.1954 161.158 92.2374 161.105 92.2392H161.105C161.053 92.2377 161.012 92.1947 161.013 92.143V92.1397ZM161.136 89.7715C161.083 89.7733 161.041 89.8153 161.039 89.8678C161.038 89.9173 161.077 89.9585 161.127 89.9596H161.132C161.182 89.9625 161.225 89.9243 161.227 89.8743L161.228 89.8722C161.228 89.8707 161.228 89.8691 161.227 89.8674C161.229 89.8156 161.188 89.7726 161.136 89.7711L161.136 89.7714L161.136 89.7715ZM161.068 87.5889C161.068 87.5382 161.11 87.4967 161.16 87.4967C161.213 87.4985 161.255 87.5408 161.257 87.5933V87.594C161.255 87.6458 161.212 87.6866 161.161 87.6851H161.154C161.103 87.6822 161.066 87.6392 161.068 87.5893V87.5889ZM161.703 89.3453C161.675 89.3391 161.647 89.3566 161.641 89.3847C161.635 89.4128 161.652 89.4409 161.681 89.4471L161.682 89.4475L161.685 89.4478C161.713 89.4514 161.74 89.4317 161.744 89.4033C161.748 89.3767 161.73 89.3512 161.703 89.3453ZM161.859 88.1598C161.864 88.1325 161.89 88.1146 161.917 88.1193C161.944 88.1274 161.961 88.154 161.957 88.1813C161.956 88.1817 161.956 88.1824 161.956 88.1828C161.951 88.2097 161.925 88.2272 161.898 88.2218C161.896 88.2218 161.894 88.2214 161.891 88.2207C161.867 88.2141 161.852 88.1886 161.858 88.1638L161.859 88.1598ZM162.13 86.8973C162.103 86.8922 162.077 86.9094 162.072 86.9363C162.072 86.9367 162.072 86.9371 162.072 86.9378C162.066 86.9659 162.083 86.9936 162.111 87.0005C162.139 87.0053 162.165 86.987 162.17 86.9597C162.17 86.9582 162.17 86.9571 162.17 86.9557C162.176 86.9291 162.158 86.9032 162.132 86.8977L162.131 86.8977L162.13 86.8973ZM160.152 91.315C160.176 91.2786 160.225 91.2684 160.262 91.2928C160.263 91.2934 160.265 91.2943 160.266 91.2954L160.267 91.2961C160.305 91.3216 160.315 91.373 160.289 91.4109C160.263 91.4499 160.211 91.4601 160.172 91.4343L160.17 91.433C160.168 91.432 160.166 91.4308 160.165 91.4295C160.13 91.404 160.123 91.3555 160.148 91.3209L160.152 91.315ZM161.359 89.548C161.319 89.5236 161.267 89.5356 161.241 89.5757C161.216 89.6137 161.226 89.6651 161.264 89.6906C161.265 89.6917 161.267 89.6928 161.269 89.6935C161.306 89.7179 161.355 89.7077 161.379 89.6713L161.383 89.6654C161.409 89.6282 161.4 89.5768 161.363 89.5506L161.363 89.55C161.362 89.5494 161.361 89.5486 161.359 89.548ZM162.334 87.8346C162.359 87.7945 162.412 87.7825 162.452 87.8069C162.491 87.8321 162.503 87.8831 162.479 87.9232C162.455 87.9637 162.402 87.9768 162.362 87.9527C162.361 87.9524 162.361 87.9522 162.361 87.952C162.36 87.9517 162.359 87.9514 162.359 87.9509C162.32 87.9258 162.309 87.8736 162.334 87.8346Z" fill="white"/>
<g id="pencil">
<path id="Path" d="M157.715 128.407L152.798 130.23L87.5701 62.5639L92.4872 60.7407L157.715 128.407Z" fill="#D8D8D8"/>
<path id="Path_2" d="M162.951 123.493L164.958 118.648L99.7995 50.9155L97.7923 55.7605L162.951 123.493Z" fill="#D8D8D8"/>
<path id="Path_3" d="M92.4874 60.7407L157.715 128.407L162.951 123.493L97.7924 55.7605L92.4874 60.7407Z" fill="#EDEDED"/>
</g>
<path id="R_hand" d="M109.895 85.7643C109.895 85.7643 111.297 84.0702 111.706 83.4275C112.115 82.7848 112.758 84.0115 112.407 84.8879C112.057 85.7643 111.765 86.699 111.414 86.9327C111.414 86.9327 114.803 84.0119 115.971 83.2525C117.139 82.4931 118.541 85.1803 118.074 87.6337C117.607 90.0872 116.817 91.8725 116.116 92.1645C116.115 92.1645 112.349 91.2556 109.895 85.7643Z" fill="url(#paint5_linear)"/>
<path id="R_hand-2" d="M134.241 81.8435C131.686 81.8581 129.439 81.7272 129.439 81.7272L125.879 78.0255C128.245 77.6135 132.411 74.7164 133.381 74.0237L134.241 81.8435Z" fill="url(#paint6_linear)"/>
<path id="L_hand" d="M153.023 78.5297C150.318 79.0947 148.696 79.9186 144.562 83.2762C144.441 83.3746 144.321 83.473 144.197 83.5751C139.793 87.1879 134.646 85.5036 134.646 85.5036L132.48 65.854C132.48 65.854 133.603 65.9524 138.703 64.9608C139.956 64.7596 141.183 64.4235 142.363 63.9583C144.544 62.9922 145.378 61.3262 146.082 57.1666C146.607 54.0606 146.465 50.0614 146.21 46.9444C147.702 46.8923 149.123 46.2926 150.201 45.2602C152.941 46.7578 155.458 48.6316 157.679 50.8269C159.968 55.8032 160.923 60.4877 161.197 65.8467C161.67 75.0518 155.808 77.95 153.023 78.5297Z" fill="url(#paint7_linear)"/>
<path id="L_hand-2" d="M144.657 93.152C142.367 94.5337 138.138 97.0127 135.346 98.1392C131.358 99.7542 128.89 100.228 122.433 100.133C115.977 100.039 116.645 92.7226 116.645 92.7226C118.482 94.6424 120.724 94.8181 121.675 94.9129C122.623 95.0076 124.143 94.4389 121.865 92.5396C119.586 90.6402 120.913 88.9305 121.103 89.4044C121.292 89.8783 123.002 91.0194 126.516 93.4874C130.031 95.9555 126.801 96.0503 131.263 93.8666C134.774 92.1495 139.112 86.0796 140.796 83.5751L144.657 93.152Z" fill="url(#paint8_linear)"/>
<path id="sweater" d="M171.007 82.9809C169.02 83.3965 167.144 83.7319 165.378 83.9871C155.448 85.4453 148.835 84.6287 144.562 83.2762C142.874 82.7695 141.266 82.0268 139.786 81.0706C138.933 80.55 138.177 79.8851 137.552 79.1057C139.87 74.6325 141.379 69.1423 142.364 63.9583C143.435 58.2045 144.053 52.3756 144.212 46.5252L144.777 46.7986C145.246 46.9098 145.728 46.959 146.21 46.9444C147.702 46.8923 149.123 46.2926 150.202 45.2602C152.942 46.7578 155.458 48.6316 157.679 50.8269C158.999 52.1029 160.221 53.4762 161.335 54.9355C166.421 61.6033 165.502 64.3192 168.291 68.2674C168.298 68.2747 168.302 68.2856 168.309 68.2929C171.094 72.2337 174.882 77.0495 171.007 82.9809Z" fill="url(#paint9_linear)"/>
<path id="L_sleeve" d="M165.378 83.9871C164.883 84.3812 164.352 84.7279 163.792 85.0224C161.036 86.4551 159.563 87.8368 155.998 92.9333C152.433 98.0262 146.519 97.7746 146.519 97.7746L139.786 81.0706L138.448 77.7531C138.448 77.7531 139.659 77.5271 144.726 74.9752C149.793 72.427 150.883 71.1583 150.187 64.6036C149.491 58.0488 144.212 46.5252 144.212 46.5252L144.777 46.7986C145.246 46.9098 145.728 46.959 146.21 46.9444C147.702 46.8923 149.123 46.2926 150.202 45.2602C152.942 46.7578 155.458 48.6316 157.679 50.8269C158.999 52.1029 160.221 53.4762 161.335 54.9355C166.421 61.6033 165.502 64.3192 168.291 68.2674C168.298 68.2747 168.302 68.2856 168.309 68.2929C168.422 68.6173 168.535 68.9418 168.644 69.2735C171.306 77.1771 168.116 81.8107 165.378 83.9871Z" fill="url(#paint10_linear)"/>
<path id="neck" d="M148.323 41.2464C148.183 41.9904 147.99 42.7239 147.747 43.441C147.334 44.6546 146.809 45.8274 146.179 46.9444C145.707 46.9568 145.235 46.9076 144.776 46.7986L144.222 46.5325C144.218 46.5306 144.214 46.5281 144.211 46.5252C144.296 44.768 144.269 43.0072 144.131 41.2537C144.353 41.2828 144.575 41.3047 144.798 41.3156C145.972 41.4141 147.153 41.3907 148.323 41.2464Z" fill="url(#paint11_linear)"/>
<path id="face" d="M148.323 41.2464C146.128 41.538 141.619 41.4833 140.204 39.4528C138.513 37.0212 139.107 34.7062 138.637 34.4984C138.167 34.2943 137.266 33.6126 137.437 33.0912C137.605 32.5736 139.457 31.5674 140.317 29.7628C140.398 29.5951 140.478 29.4347 140.565 29.2816L140.569 29.278C140.585 29.239 140.605 29.201 140.627 29.165C140.636 29.1467 140.647 29.1296 140.66 29.1139C140.664 29.1084 140.668 29.1022 140.671 29.0957C140.686 29.0738 140.7 29.0483 140.715 29.0228C140.828 28.8441 140.999 28.5817 141.229 28.2864C141.335 28.1478 141.455 27.9984 141.59 27.8453C141.739 27.671 141.912 27.4953 142.096 27.3199C142.109 27.3072 142.122 27.2948 142.135 27.2824C142.181 27.239 142.224 27.1956 142.271 27.1526C142.355 27.076 142.443 27.0031 142.534 26.9302C142.603 26.8719 142.676 26.8172 142.749 26.7662C142.782 26.7406 142.818 26.7151 142.855 26.6896C142.92 26.6422 142.99 26.5948 143.059 26.5511C143.073 26.5401 143.087 26.5303 143.103 26.5219C143.103 26.5256 143.099 26.5292 143.099 26.5365C143.048 26.6911 143.01 26.8496 142.986 27.0104C142.975 27.0615 142.968 27.1198 142.96 27.1781C142.935 27.3958 142.929 27.6156 142.942 27.8343C142.942 27.8708 142.946 27.9072 142.95 27.9473C142.953 27.9838 142.957 28.0239 142.96 28.064C142.968 28.1442 142.979 28.228 142.993 28.3119C142.993 28.3228 142.997 28.3301 142.997 28.3411C143.015 28.465 143.039 28.5879 143.07 28.7093C143.077 28.7566 143.092 28.8004 143.103 28.8478C143.103 28.8507 143.104 28.8533 143.106 28.8551C143.128 28.9462 143.157 29.041 143.19 29.1358V29.1431C143.205 29.1905 143.223 29.2379 143.241 29.2853C143.316 29.5007 143.403 29.7114 143.504 29.9159C143.536 29.9889 143.577 30.0618 143.617 30.1383C143.635 30.1748 143.653 30.2076 143.675 30.244C143.693 30.2805 143.711 30.3206 143.733 30.3571C143.744 30.3775 143.756 30.3968 143.77 30.4154C143.799 30.4737 143.835 30.5284 143.872 30.5867C143.908 30.6451 143.945 30.7034 143.985 30.7617C144.021 30.82 144.058 30.8784 144.102 30.9367C144.207 31.0898 144.324 31.2429 144.448 31.3997C144.517 31.4872 144.59 31.5747 144.663 31.6658C144.949 31.9994 145.254 32.3169 145.574 32.6173L145.782 32.8142C146.424 33.4106 146.99 34.0839 147.466 34.8192C147.528 34.9395 147.59 35.0635 147.656 35.1911C147.832 35.5396 147.981 35.9016 148.101 36.2738C148.591 37.8863 148.668 39.5964 148.323 41.2464Z" fill="#FFBEB6"/>
<path id="eyeglasses" fill-rule="evenodd" clip-rule="evenodd" d="M138.284 31.7274C138.37 31.7281 138.456 31.7201 138.54 31.7029C139.121 31.5462 139.569 31.0843 139.709 30.4988C140.184 30.579 140.527 31.0194 140.779 31.3996C140.608 31.7449 140.517 32.124 140.513 32.5093C140.499 33.0547 140.667 33.5895 140.991 34.0281C141.275 34.4265 141.729 34.6701 142.218 34.6861C142.318 34.6872 142.419 34.6777 142.517 34.658C142.892 34.5746 143.225 34.362 143.46 34.0573C143.795 33.6263 143.975 33.0959 143.974 32.5502C143.987 31.3614 143.223 30.3847 142.269 30.3734C141.779 30.3781 141.32 30.6107 141.027 31.0023C141.004 31.0305 140.985 31.0618 140.965 31.0931C140.954 31.1106 140.944 31.1282 140.932 31.1452C140.678 30.7026 140.261 30.376 139.771 30.2349C139.79 30.1189 139.801 30.0019 139.802 29.8845C139.814 28.8594 139.153 28.0173 138.328 28.0071H138.328C137.503 27.9987 136.822 28.824 136.81 29.8495C136.798 30.875 137.459 31.7172 138.284 31.7274ZM140.785 32.5122C140.783 32.0277 140.942 31.5564 141.239 31.1732C141.433 30.918 141.711 30.739 142.025 30.6679C142.104 30.6519 142.185 30.6442 142.266 30.6453C143.07 30.6548 143.714 31.5079 143.702 32.5472C143.704 33.0317 143.544 33.5031 143.248 33.8863C142.858 34.4455 142.088 34.5822 141.529 34.1921C141.402 34.1035 141.293 33.9916 141.207 33.8622C140.919 33.4721 140.771 32.9967 140.785 32.5122ZM138.325 28.2797C137.648 28.2713 137.092 28.9778 137.082 29.8528C137.071 30.7284 137.612 31.447 138.287 31.455C138.964 31.4627 139.52 30.7572 139.53 29.8819C139.54 29.0066 139 28.2877 138.325 28.2797Z" fill="url(#paint12_linear)"/>
<path id="hair" d="M163.675 43.6248C162.742 41.6124 160.779 40.2045 159.841 38.2785C159.442 37.1389 159.292 35.9271 159.402 34.7245C159.591 31.0278 158.315 28.9572 157.889 28.3775C157.883 28.3655 157.876 28.3545 157.867 28.3447C156.804 26.484 155.069 25.1001 153.018 24.4767C148.286 23.0331 141.94 22.7305 140.565 29.2816C141.191 28.1792 142.06 27.2343 143.106 26.5183C143.06 26.6415 142.125 29.134 145.228 32.279C145.789 33.2028 146.378 34.1237 146.861 35.0923C149.026 39.4415 147.26 44.0743 143.748 47.0789C143.614 47.1934 143.808 47.3863 143.941 47.2722C146.692 44.9189 148.58 41.5089 148.033 37.7944C147.774 36.0329 146.884 34.5057 145.965 33.0016C146.533 33.5484 147.037 34.1583 147.466 34.8196C147.528 34.9399 147.59 35.0639 147.656 35.1915C147.832 35.54 147.981 35.902 148.101 36.2742C148.899 38.6948 148.472 41.2941 147.747 43.4414C147.189 45.0863 146.426 46.6539 145.476 48.1077C155.643 51.2502 162.916 49.7409 162.916 49.7409C163.878 47.5733 163.866 45.0976 162.882 42.9398C164.14 44.8916 164.417 47.3181 163.63 49.5032C163.573 49.6702 163.837 49.7417 163.894 49.5758C164.6 47.6393 164.521 45.5037 163.675 43.6248Z" fill="#23286B"/>
<path id="top_of_pencil" d="M87.5699 62.5639L76.9492 40.2752L99.7993 50.9155L97.7921 55.7605L92.487 60.7407L87.5699 62.5639Z" fill="url(#paint13_linear)"/>
</g>
</g>
<defs>
<linearGradient id="paint0_linear" x1="-68.1685" y1="55.7399" x2="29.8902" y2="220.342" gradientUnits="userSpaceOnUse">
<stop stop-color="white"/>
<stop offset="1" stop-color="#EFEFF4"/>
</linearGradient>
<linearGradient id="paint1_linear" x1="181.851" y1="143.495" x2="167.441" y2="184.752" gradientUnits="userSpaceOnUse">
<stop stop-color="#7832F0"/>
<stop offset="1" stop-color="#2B43F2"/>
</linearGradient>
<linearGradient id="paint2_linear" x1="123.493" y1="149.685" x2="88.8236" y2="209.658" gradientUnits="userSpaceOnUse">
<stop stop-color="#7832F0"/>
<stop offset="1" stop-color="#2B43F2"/>
</linearGradient>
<linearGradient id="paint3_linear" x1="180.294" y1="203.82" x2="200.362" y2="114.042" gradientUnits="userSpaceOnUse">
<stop stop-color="#535353"/>
<stop offset="1"/>
</linearGradient>
<linearGradient id="paint4_linear" x1="166.364" y1="259.828" x2="280.177" y2="177.037" gradientUnits="userSpaceOnUse">
<stop/>
<stop offset="1" stop-color="#797979"/>
</linearGradient>
<linearGradient id="paint5_linear" x1="109.895" y1="92.1641" x2="118.166" y2="92.1641" gradientUnits="userSpaceOnUse">
<stop stop-color="#FFBEB6"/>
<stop offset="1" stop-color="#F2A19C"/>
</linearGradient>
<linearGradient id="paint6_linear" x1="125.879" y1="81.8446" x2="134.241" y2="81.8446" gradientUnits="userSpaceOnUse">
<stop stop-color="#FFBEB6"/>
<stop offset="1" stop-color="#F2A19C"/>
</linearGradient>
<linearGradient id="paint7_linear" x1="121.598" y1="81.8764" x2="162.372" y2="128.866" gradientUnits="userSpaceOnUse">
<stop stop-color="#6929D7"/>
<stop offset="1" stop-color="#2B43F2"/>
</linearGradient>
<linearGradient id="paint8_linear" x1="135.782" y1="110.069" x2="143.4" y2="87.2175" gradientUnits="userSpaceOnUse">
<stop stop-color="#FFBEB6"/>
<stop offset="1" stop-color="#F2A19C"/>
</linearGradient>
<linearGradient id="paint9_linear" x1="106.45" y1="43.7569" x2="139.584" y2="117.001" gradientUnits="userSpaceOnUse">
<stop stop-color="#7832F0"/>
<stop offset="1" stop-color="#2B43F2"/>
</linearGradient>
<linearGradient id="paint10_linear" x1="137.755" y1="100.526" x2="179.449" y2="144.613" gradientUnits="userSpaceOnUse">
<stop stop-color="#7832F0"/>
<stop offset="1" stop-color="#2B43F2"/>
</linearGradient>
<linearGradient id="paint11_linear" x1="148.122" y1="54.1259" x2="152.269" y2="43.3056" gradientUnits="userSpaceOnUse">
<stop stop-color="#FFBEB6"/>
<stop offset="1" stop-color="#F2A19C"/>
</linearGradient>
<linearGradient id="paint12_linear" x1="145.516" y1="29.2518" x2="138.205" y2="26.1962" gradientUnits="userSpaceOnUse">
<stop stop-color="#28306D"/>
<stop offset="0.51" stop-color="#1F275F"/>
<stop offset="1" stop-color="#171F51"/>
</linearGradient>
<linearGradient id="paint13_linear" x1="76.9492" y1="40.2752" x2="76.9492" y2="62.5639" gradientUnits="userSpaceOnUse">
<stop stop-color="#7633F1"/>
<stop offset="1" stop-color="#5839F1"/>
</linearGradient>
</defs>
</svg>
