<svg width="26" height="26" viewBox="0 0 26 26" fill="none" xmlns="http://www.w3.org/2000/svg">
<path d="M5.76215 15.7122L4.85712 19.0908L1.54929 19.1607C0.560727 17.3272 0 15.2294 0 13.0001C0 10.8443 0.524266 8.81147 1.45356 7.02148H1.45427L4.39918 7.56139L5.68923 10.4886C5.41922 11.2758 5.27206 12.1208 5.27206 13.0001C5.27216 13.9543 5.44502 14.8687 5.76215 15.7122Z" fill="#FBBB00"/>
<path d="M25.7728 10.5713C25.9221 11.3577 26 12.1698 26 12.9999C26 13.9306 25.9021 14.8384 25.7157 15.7142C25.0829 18.6942 23.4293 21.2963 21.1386 23.1377L21.1379 23.137L17.4286 22.9477L16.9036 19.6706C18.4236 18.7792 19.6115 17.3842 20.2372 15.7142H13.2858V10.5713H20.3386H25.7728Z" fill="#518EF8"/>
<path d="M21.1379 23.1369L21.1386 23.1376C18.9108 24.9283 16.0807 25.9997 13 25.9997C8.04932 25.9997 3.74505 23.2326 1.54932 19.1605L5.76218 15.7119C6.86002 18.6419 9.68645 20.7276 13 20.7276C14.4243 20.7276 15.7586 20.3426 16.9036 19.6705L21.1379 23.1369Z" fill="#28B446"/>
<path d="M21.2979 2.99284L17.0865 6.44069C15.9015 5.69999 14.5007 5.27211 13.0001 5.27211C9.61147 5.27211 6.73217 7.45352 5.68933 10.4886L1.45432 7.02142H1.45361C3.6172 2.85 7.97575 0 13.0001 0C16.1543 0 19.0465 1.12359 21.2979 2.99284Z" fill="#F14336"/>
</svg>
