<svg width="28" height="28" viewBox="0 0 28 28" fill="none" xmlns="http://www.w3.org/2000/svg">
<path fill-rule="evenodd" clip-rule="evenodd" d="M12.617 0.00685904C13.0741 0.0101576 13.5348 0.0134814 13.9974 0.0134954C14.5476 0.0134808 15.0797 0.00989136 15.5945 0.00641847C20.0652 -0.0237413 23.2326 -0.045109 25.6397 2.36003C28.0374 4.75441 28.0203 7.86747 27.9951 12.4809C27.9924 12.9695 27.9896 13.4749 27.9896 13.998C27.9896 14.4819 27.9914 14.9478 27.9931 15.3969C28.0057 18.768 28.0148 21.1935 27.2553 23.1569C25.3344 28.0812 20.4527 28.0368 15.4412 27.9913H15.441H15.4408C14.96 27.9869 14.4779 27.9826 13.9972 27.9826C13.5368 27.9826 13.0777 27.9859 12.6217 27.9892H12.6214H12.621C7.4393 28.027 2.64793 28.0619 0.740687 23.1569C-0.0174085 21.2069 -0.00732155 18.3071 0.00365562 15.1514C0.00498139 14.7703 0.00632014 14.3854 0.00632014 13.998C0.00632014 13.5212 0.0046295 13.061 0.00299704 12.6167C-0.0093942 9.24429 -0.0184338 6.78404 0.740687 4.83754C2.65246 -0.0650332 7.40757 -0.0307259 12.617 0.00685904ZM19.7916 6.53235C19.7916 5.60605 20.5433 4.8549 21.4704 4.8549C22.3974 4.8549 23.1491 5.60605 23.1491 6.53235C23.1491 7.45866 22.3974 8.2098 21.4704 8.2098C20.5433 8.2098 19.7916 7.45866 19.7916 6.53235ZM14.0003 6.8164C10.0316 6.8164 6.81461 10.0324 6.81461 13.998C6.81461 17.9636 10.0316 21.1781 14.0003 21.1781C17.9691 21.1781 21.1845 17.9636 21.1845 13.998C21.1845 10.0324 17.9691 6.8164 14.0003 6.8164ZM14.0003 9.33652C20.1674 9.33652 20.1753 18.6595 14.0003 18.6595C7.83483 18.6595 7.82535 9.33652 14.0003 9.33652Z" fill="black" fill-opacity="0.3"/>
</svg>
