<svg xmlns="http://www.w3.org/2000/svg" xmlns:xlink="http://www.w3.org/1999/xlink" width="142" height="36" viewBox="0 0 142 36">
    <defs>
        <linearGradient id="ynsyb0nheb" x1="67.114%" x2="19.86%" y1="29.352%" y2="71.078%">
            <stop offset="0%" stop-color="#7332F0"/>
            <stop offset="100%" stop-color="#2745F3"/>
        </linearGradient>
        <linearGradient id="y910jc592c" x1="102.858%" x2="4.137%" y1="50%" y2="60.457%">
            <stop offset="0%" stop-color="#2C43F2"/>
            <stop offset="100%" stop-color="#2B44F3"/>
        </linearGradient>
        <path id="wthta7ba6a" d="M27.245.845v6.637c-7.536 0-7.536 6.712-7.536 7.909 0 0 5.478.379 7.536 1.57v6.27c-2.67-1.245-7.536-1.526-7.536-1.526 0 5.852-1.572 10.536-6.34 12.493-3.995 1.639-9.188.093-11.26-3.675-3.413-6.208 0-14.725 11.26-15.132l-.001-.017c-.015-.559-.248-14.53 13.877-14.53zM13.517 22.087c-2.63-.188-4.53.304-5.702 1.477-.194.195-.369.41-.523.646-.775 1.188-.611 2.755.392 3.757 1.17 1.17 3.067 1.168 4.236-.002l.142-.15c1.017-1.137 1.502-3.046 1.455-5.728z"/>
    </defs>
    <g fill="none" fill-rule="evenodd">
        <g>
            <g>
                <g transform="translate(-70 -60) translate(70 60)">
                    <mask id="8lbu768fwd" fill="#fff">
                        <use xlink:href="#wthta7ba6a"/>
                    </mask>
                    <use fill="url(#ynsyb0nheb)" xlink:href="#wthta7ba6a"/>
                    <path fill="url(#y910jc592c)" d="M13.368 15.391c1.365-.09 4.81-.09 6.34 0 .226.013 1.614-.545 4.16 0 .64.137 1.766.66 3.377 1.57v6.27c-4.764-1.017-7.276-1.526-7.536-1.526-1.892 0-3.948.148-6.189.382-.183.019-3.483-.027-6.638 1.642-2.543 1.345-4.921 4.525-6.037 4.207-1.667-.473-.966-3.388 2.102-8.744 1.75-1.547 3.062-2.485 3.935-2.815 3.57-1.346 6.166-.965 6.486-.986z" mask="url(#8lbu768fwd)"/>
                </g>
            </g>
        </g>
    </g>
</svg>
