<svg width="25" height="25" viewBox="0 0 25 25" fill="none" xmlns="http://www.w3.org/2000/svg">
<path id="Shape" fill-rule="evenodd" clip-rule="evenodd" d="M18.7302 7.25374L14.4627 11.5212C16.523 14.0712 16.4346 17.7581 14.1493 20.0433C11.6924 22.5002 7.5902 22.4398 5.05836 19.908C2.53337 17.383 2.48786 13.32 4.95694 10.8509C7.24092 8.56694 10.9118 8.4641 13.4447 10.504L17.7126 6.23613L15.4136 6.20191C15.022 6.19608 14.6998 5.8739 14.694 5.48236C14.6882 5.09078 15.0009 4.77809 15.3925 4.78392L19.4032 4.84362C19.7948 4.84945 20.1169 5.17163 20.1227 5.56317L20.1824 9.5739C20.1883 9.96548 19.8756 10.2782 19.484 10.2723C19.0924 10.2665 18.7703 9.94433 18.7645 9.55279L18.7302 7.25374ZM6.00591 11.895C4.11376 13.7872 4.14766 16.8998 6.08145 18.8336C8.03364 20.7858 11.1613 20.8347 13.0534 18.9425C14.9277 17.0682 14.8643 13.9551 12.9121 12.0029C10.9783 10.0692 7.8802 10.0207 6.00591 11.895Z" fill="#A4A4A4"/>
</svg>
