<?xml version="1.0" encoding="UTF-8"?>
<svg width="18px" height="18px" viewBox="0 0 18 18" version="1.1" xmlns="http://www.w3.org/2000/svg" xmlns:xlink="http://www.w3.org/1999/xlink">
    <title>Shape</title>
    <defs>
        <linearGradient x1="40.8920114%" y1="-13.2070566%" x2="60.876667%" y2="100%" id="linearGradient-1">
            <stop stop-color="#7134F0" offset="0%"></stop>
            <stop stop-color="#2C43F2" offset="100%"></stop>
        </linearGradient>
    </defs>
    <g id="Page-1" stroke="none" stroke-width="1" fill="none" fill-rule="evenodd">
        <g id="Info-entered" transform="translate(-228.000000, -415.000000)" fill="url(#linearGradient-1)" fill-rule="nonzero">
            <g id="Group-13" transform="translate(0.000000, 152.000000)">
                <path d="M238.195572,269.419803 L238.195572,263.384661 L239.845469,264.986108 C240.126432,265.258874 240.582055,265.258921 240.863066,264.986108 C241.144077,264.713341 241.144077,264.271131 240.863066,263.998364 L237.984838,261.204575 C237.703875,260.931808 237.248251,260.931808 236.96724,261.204575 L234.089011,263.998364 C233.808,264.271131 233.808,264.713341 234.089011,264.986108 C234.369974,265.258874 234.825598,265.258874 235.106609,264.986108 L236.756458,263.384661 L236.756458,269.420409 C233.522959,269.76898 231,272.437374 231,275.667413 C231,279.159229 233.90514,282 237.476015,282 C241.056579,282 244,279.142001 244,275.667413 C244,272.435605 241.45555,269.766047 238.195572,269.419803 Z M237.439748,280.516867 C234.704961,280.516867 232.480033,278.339887 232.480033,275.663976 C232.480033,273.013336 234.704961,270.856867 237.439748,270.856867 C240.200562,270.856867 242.446699,273.013336 242.446699,275.663976 C242.446699,278.339887 240.200562,280.516867 237.439748,280.516867 Z" id="Shape" transform="translate(237.500000, 271.500000) rotate(45.000000) translate(-237.500000, -271.500000) "></path>
            </g>
        </g>
    </g>
</svg>