<svg width="34" height="20" viewBox="0 0 34 20" fill="none" xmlns="http://www.w3.org/2000/svg">
<path d="M28.2139 11.4686C27.6642 10.7686 27.8215 10.4571 28.2139 9.83143C28.221 9.82429 32.7587 3.50143 33.2262 1.35714L33.2291 1.35571C33.4614 0.574286 33.2291 0 32.1056 0H28.3881C27.4418 0 27.0054 0.492857 26.7717 1.04429C26.7717 1.04429 24.8789 5.61286 22.2014 8.57429C21.3372 9.43 20.9376 9.70429 20.4659 9.70429C20.2335 9.70429 19.8723 9.43 19.8723 8.64857V1.35571C19.8723 0.418571 19.6073 0 18.8239 0H12.9785C12.3849 0 12.0322 0.437143 12.0322 0.844286C12.0322 1.73286 13.371 1.93714 13.5098 4.43714V9.86143C13.5098 11.05 13.2959 11.2686 12.8213 11.2686C11.5576 11.2686 8.49038 6.68143 6.67273 1.43143C6.3058 0.412857 5.94737 0.00142857 4.99392 0.00142857H1.27504C0.213924 0.00142857 0 0.494286 0 1.04571C0 2.02 1.26371 6.86429 5.87654 13.2643C8.95081 17.6329 13.2803 20 17.2188 20C19.5861 20 19.8751 19.4743 19.8751 18.57C19.8751 14.3957 19.6612 14.0014 20.847 14.0014C21.3967 14.0014 22.343 14.2757 24.5531 16.3829C27.0791 18.8814 27.4942 20 28.9081 20H32.6255C33.6852 20 34.2222 19.4743 33.9133 18.4371C33.2064 16.2557 28.4292 11.7686 28.2139 11.4686Z" fill="#4780C2"/>
</svg>
