<svg width="13" height="21" viewBox="0 0 13 21" fill="none" xmlns="http://www.w3.org/2000/svg">
<path id="Shape" fill-rule="evenodd" clip-rule="evenodd" d="M6.52399 0C10.0949 0 13 2.84077 13 6.33259C13 9.56264 10.477 12.231 7.24354 12.5796V16.8093H9.40221C9.7996 16.8093 10.1218 17.122 10.1218 17.5078C10.1218 17.8935 9.7996 18.2062 9.40221 18.2062H7.24354V20.3016C7.24354 20.6873 6.92137 21 6.52399 21C6.1266 21 5.80443 20.6873 5.80443 20.3016V18.2062H3.64576C3.24837 18.2062 2.9262 17.8935 2.9262 17.5078C2.9262 17.122 3.24837 16.8093 3.64576 16.8093H5.80443V12.5802C2.54445 12.234 0 9.56441 0 6.33259C0 2.858 2.94342 0 6.52399 0ZM6.52376 1.44828C3.7458 1.44828 1.48571 3.65137 1.48571 6.35937C1.48571 9.0418 3.7458 11.2241 6.52376 11.2241C9.27554 11.2241 11.5143 9.0418 11.5143 6.35937C11.5143 3.65137 9.27554 1.44828 6.52376 1.44828Z" fill="#A4A4A4"/>
</svg>
